<svg xmlns="http://www.w3.org/2000/svg" viewBox="0 0 456.3 201.17">
  <defs>
    <style>
      .a {
        fill: #d9d9d9;
      }

      .b {
        opacity: 0.8;
      }

      .c {
        fill: #aeabab;
      }

      .d {
        fill: #ededed;
      }

      .e {
        fill: #e1e0e0;
      }

      .f {
        fill: #cac8c8;
      }

      .g {
        fill: #d4d2d2;
      }

      .h {
        fill: #dad8d8;
      }

      .i {
        fill: #e5e4e4;
      }

      .j {
        fill: #c2bfbf;
      }

      .k {
        fill: #c9c7c7;
      }

      .l {
        fill: #ececec;
      }

      .m, .n {
        fill: none;
      }

      .m {
        stroke: #000;
        stroke-miterlimit: 10;
      }

      .o {
        fill: #6e6c6c;
      }
    </style>
  </defs>
  <title>guy_at_computer</title>
  <g>
    <path class="a" d="M627.12,538.28c0-.41-1.06-.73.53-1,5-.78,9.2.24,14.22-.53l.31-.68c3.93,0,8,0,12.18.05q11.43-1,22.67-1.79c-.21-.23-.31-.45.44-.56,1.56-.15,3.42-.21,5.46-.25l6.47,0,2-.16a1,1,0,0,0,.71-.53c2,0,3.82.06,5.48.11,11-.68,22.12-1.08,33.59-1.23s23.27,0,35.58.2c5.22-.19,10.46-.36,15.48-.23,7.42.36,16.84,1.56,24.08,2.17-.47-1.19,3.73-1.73,7.61-2.33s7.46-1.24,5.78-2.52c4.8.39,12,.82,12.42.2.61-.94,1.86-1.93,4.56-2.78s6.82-1.49,13.15-1.93c1.24,0,2.64,0,4.08.08s2.9.13,4.26.2a35.86,35.86,0,0,0,5.93.09c2.74-.6-6.4-1.44-3.65-2-36.55-.94-72.12-4.17-109.87-6.82-1.62,0-4.39,0-8-.18l-13.38-.43c-10.34-.34-23.2-.56-36.42-.29s-26.59,1.08-38,1.86-21,1.52-26.5,1.84l-2,.19c-12.05.84-26.56,2.11-36.61,3.52l-14,2.47c2.19.33,4.24.59,6,.9-4.8.19-9.57.23-11.4.72-10.17,1.16-4.4,2.23-.41,3.72,2.86.6-1,1.77,3.52,2.34-3.22.07-4.83.1-8.07.1-.18.32,2.31.23,4.56.14s4.27-.14,3.16.43c-3.11-.14-6.58.31-9.82.31.56.43,3.37.49,6,.53s5,0,4.76.45a44.59,44.59,0,0,1-5.29-.23c-2.14-.16-4.13-.21-4.44.34-.12.22,3.12.21,4.74.21a83.9,83.9,0,0,0-8.84.77l-.77-8.07a28.08,28.08,0,0,0,3.14-.94c.17-.25-1.4-.66-3.42-.55l-42.81,2.42,43.87,8.64c.62.12,1.46.24,2.49.36-.77,0-1.61,0-2.49-.05l-1.12-11.68c.5-.06,1-.12,1.52-.17l.93,0h.48l.61,0a8.14,8.14,0,0,1,1.34.19,7.62,7.62,0,0,1,1.73.58,10.16,10.16,0,0,1,1,.52,8.83,8.83,0,0,1,1,.77,5.52,5.52,0,0,1,.81.88,9,9,0,0,1,.63.95,8.86,8.86,0,0,1,.64,1.51l.17.6.09.41.17.83s0,0,0,0,.06.14.1.21a1.36,1.36,0,0,0,.3.34v0a1.3,1.3,0,0,1-.31-.56c0,.05,0,0-.12-.89l-.07-.32c0-.11-.08-.31-.12-.45l-.14-.47c-.05-.16-.16-.41-.25-.61s-.19-.42-.29-.62a7.8,7.8,0,0,0-.45-.71,6.52,6.52,0,0,0-1.16-1.3,6.63,6.63,0,0,0-1.36-1,8.6,8.6,0,0,0-1.28-.57c-.34-.1-.67-.19-1-.26l-.47-.09-.35,0a6.52,6.52,0,0,1,1,.16,9.39,9.39,0,0,1,1.09.31,10.31,10.31,0,0,1,1.31.63,7.51,7.51,0,0,1,1.29,1,6.7,6.7,0,0,1,1,1.19c.14.2.3.44.41.63l.27.54.24.55c.07.18.1.28.15.42l.13.4.06.2,0,.14.13.54.07.32,0,.18v.05s0,0,0,0l.06.14a1.29,1.29,0,0,0,.16.26,3.94,3.94,0,0,1,.2-.53c0-.05,0,0,0,0l0,0a.43.43,0,0,0,0-.16,9.31,9.31,0,0,0-.32-1.58,8.45,8.45,0,0,0-2.07-3.59,10,10,0,0,0-1.06-.9,6.82,6.82,0,0,0-1.08-.64,9.35,9.35,0,0,0-1.1-.47c-.29-.09-.59-.17-.89-.24a8.52,8.52,0,0,1,3.54,1.72,8.34,8.34,0,0,1,2.44,3.34,6.38,6.38,0,0,1,.23.64l.17.57.18.75.11.52c.15-.09.3-.39.13-1.66a8,8,0,0,0-1-2.82,8.22,8.22,0,0,0-1.42-1.8,10.93,10.93,0,0,0-.94-.81,9.24,9.24,0,0,0-.94-.6c-.31-.17-.63-.32-.95-.46l-.42-.16-.37-.12a13.19,13.19,0,0,0-1.48-.38c-.37-.06-.73-.11-1.11-.15l-.56-.05-.42,0-.83,0h-.74l-1.31.05-75.81,3.14,77.35,13a59.94,59.94,0,0,0,8,1.08C587.92,540.89,607.69,539.77,627.12,538.28Z" transform="translate(-482.72 -354)"/>
    <path class="a" d="M573.66,552.1c0-.4-.43-.76.06-1,1.57-.61,3.06.62,4.64,0l.05-.66c1.31.17,2.67.39,4.06.59q3.76-.43,7.53-.93c-.08-.24-.12-.45.13-.55a21.13,21.13,0,0,1,4,0l.67-.13a.85.85,0,0,0,.23-.52A17.55,17.55,0,0,1,597,549c7.46-1.46,15.19-2.9,23.64-4.21a32.84,32.84,0,0,1,5.32-1.35,68.74,68.74,0,0,1,8.28.49c-.31-2.32,5.79-3.27,4.64-5.63,1.65.1,4.14.24,4.28-.41.43-1.95,1.77-4.16,6.12-5.27,1.7-.25,4.26.59,4.86.19.93-.62-2.17-1.39-1.23-2-12.41-.81-24.88-.57-37.94-.77-2.24.48-10.87.7-20,1.14s-18.82,1.25-22.86,1.58l-.72.13c-4.37.43-9.74,1.58-13.27,3.38a55,55,0,0,0-4.65,3.2c.91.13,1.74.28,2.47.45-.86.23-1.72.45-2.43.71a4,4,0,0,0-1.53.87c-1.64,1.07-1.81,1.79-1.36,2.25a14.44,14.44,0,0,0,2.42,1.31c1.16.33.26,1.75,1.91,1.93-1,.33-1.57.45-2.58.83.09.61,3-1.43,2.67-.17a11.93,11.93,0,0,0-3,1.22c.34.35,1.2.06,2-.13s1.6-.38,1.66.06c-.46.36-3.2-.15-3,1,0,.23,1-.15,1.52-.29-2.91,1.45-3.94,3.08-.94,3.1a14.15,14.15,0,0,0-3.14,1h0c.47-.18,1.34-.33,1.76-.51l-1.56.66.47.28a4.63,4.63,0,0,0,1.25-.3l-1,.43a9.93,9.93,0,0,0,1.27.53,16.84,16.84,0,0,1,2.12.33,3.6,3.6,0,0,0,1.5.08c2.72-.73,5.64-1.27,8.61-1.76S570.56,552.47,573.66,552.1Z" transform="translate(-482.72 -354)"/>
  </g>
  <g>
    <path d="M853.05,483.54l20.95,7.3,20.91,7.41,20.91,7.41c7,2.48,14,4.9,20.9,7.44l2.31.84h-2.45l-40.82-.14-20.41-.08c-6.8,0-13.61-.08-20.41,0l-81.64.29-40.82.07-40.82,0-40.82-.18-20.41-.09L610,513.55v-.1l20.41-.17,20.41-.09,40.82-.18,40.82,0,40.82.07,81.64.29c6.8,0,13.61,0,20.41,0l20.41-.08,40.82-.14-.15.84c-7-2.45-13.91-5-20.87-7.51l-20.86-7.55-20.86-7.55L853,483.63Z" transform="translate(-482.72 -354)"/>
    <path d="M652.12,502.54s.82-.24,2.27-.62c.72-.2,1.61-.4,2.63-.64s2.17-.5,3.42-.76,2.62-.53,4.07-.77,3-.43,4.58-.65,3.23-.44,4.9-.72,3.34-.6,5-.94,3.36-.66,5-.94l4.88-.79c1.59-.24,3.12-.47,4.58-.64s2.84-.33,4.12-.45c2.55-.27,4.69-.42,6.19-.52l2.35-.12v.1l-2.32.42c-1.48.25-3.59.61-6.12,1s-5.49.84-8.67,1.25-6.56.88-10,1.25c-1.7.2-3.39.43-5.06.71s-3.29.6-4.85.95-3.08.7-4.52,1-2.81.52-4.07.75c-2.53.44-4.64.75-6.12,1s-2.34.31-2.34.31Z" transform="translate(-482.72 -354)"/>
    <path d="M652.84,502.43s1.14-.34,3.15-.89c1-.28,2.23-.58,3.63-.94s3-.73,4.74-1.13,3.62-.83,5.63-1.22,4.13-.75,6.33-1.14,4.46-.79,6.77-1.21,4.63-.92,7-1.43,4.66-1,7-1.41l6.76-1.23c2.2-.38,4.33-.7,6.35-1s3.93-.58,5.7-.8,3.39-.44,4.83-.6,2.69-.31,3.73-.4l3.26-.3v.1s-4.68.89-11.71,2.06l-5.67.95-6.34,1-6.78,1.08-7,1.08c-2.35.37-4.69.76-7,1.2s-4.55.92-6.72,1.44-4.26,1-6.26,1.45-3.88.83-5.63,1.18c-3.49.73-6.41,1.28-8.45,1.67s-3.22.57-3.22.57Z" transform="translate(-482.72 -354)"/>
    <path d="M654.45,491.37s-.7.12-1.91.29c-.61.09-1.35.15-2.21.25s-1.82.17-2.87.25-2.19.13-3.4.15-2.48,0-3.8-.06-2.68-.07-4.06,0-2.79.06-4.19.13-2.81.11-4.19.11-2.75,0-4.06,0-2.59-.07-3.8-.15l-1.76-.12a5.72,5.72,0,0,0-1.51,0,1.38,1.38,0,0,0-1,.59,3,3,0,0,0-.3,1.14l-.28,2.2-.28,1.91h-.1v-1.94l0-2.22a3.19,3.19,0,0,1,.28-1.5,2.21,2.21,0,0,1,1.45-1,6.55,6.55,0,0,1,1.76-.14l1.75.05c1.2,0,2.47.09,3.78.15,2.62.14,5.42.22,8.23.4l2.1.09,2.08,0c1.38,0,2.74-.07,4.05-.18s2.58-.21,3.78-.28,2.34-.09,3.39-.12c2.1-.06,3.86-.06,5.09-.07s1.94,0,1.94,0Z" transform="translate(-482.72 -354)"/>
    <path d="M617.42,498.35c-.54.06-1.09.09-1.63.14l0-.43a60.92,60.92,0,0,1,8.58,1c1.42.28,2.83.59,4.26.76s2.87.3,4.31.4,2.87.25,4.3.41,2.86.31,4.29.53,2.84.47,4.26.71,2.83.55,4.24.9v.1c-1.45,0-2.89-.13-4.33-.24s-2.87-.25-4.3-.43-2.86-.38-4.28-.61-2.85-.45-4.26-.73-2.84-.53-4.26-.74-2.87-.27-4.31-.38a60.91,60.91,0,0,1-8.55-1.26l0-.43c.54.06,1.08.11,1.62.2Z" transform="translate(-482.72 -354)"/>
    <path d="M755.28,367.83l.29,4.79.26,5.5c.11,2.12.18,4.52.27,7.14s.19,5.45.24,8.45.06,6.16.09,9.44.07,6.65.15,10.09.23,6.92.39,10.41.31,7,.44,10.41l.34,10.08c.11,3.27.16,6.43.24,9.43s.12,5.83.15,8.45c.08,5.24.09,9.6.09,12.66l0,4.8h-.1l-.27-4.79c-.16-3.05-.38-7.41-.57-12.64-.11-2.62-.22-5.45-.3-8.45s-.2-6.16-.26-9.43l-.19-10.09c-.05-3.44-.09-6.93-.11-10.42s-.07-7-.15-10.42-.21-6.81-.38-10.08-.33-6.43-.41-9.43-.16-5.83-.21-8.45-.1-5-.1-7.14l0-5.51,0-4.8Z" transform="translate(-482.72 -354)"/>
    <path d="M801.66,368.47s-.68.06-1.87.13c-.6,0-1.32.05-2.15.09s-1.76,0-2.78.06-2.12,0-3.29,0-2.4-.14-3.67-.22-2.59-.16-3.93-.17-2.7,0-4.06.06-2.72.09-4.06.11l-3.93,0c-2.55,0-4.93-.07-7-.18s-3.74-.21-4.92-.3l-1.87-.17v-.1l1.87-.12c1.19-.06,2.89-.14,4.93-.17s4.42-.06,7,0l3.93.13c1.34.05,2.7.13,4.05.22s2.72.15,4.05.17,2.65,0,3.93-.06,2.51-.12,3.68-.12,2.27,0,3.29.06,2,.08,2.78.14,1.55.09,2.14.15c1.19.1,1.87.18,1.87.18Z" transform="translate(-482.72 -354)"/>
    <path d="M849.9,370.77l.44,4.46.44,5.12c.18,2,.33,4.21.5,6.65s.37,5.08.51,7.87.26,5.75.39,8.8.28,6.2.47,9.4.45,6.45.72,9.69.53,6.49.77,9.69l.66,9.39c.22,3,.36,6,.54,8.79s.3,5.44.42,7.88c.25,4.88.39,8.95.49,11.8l.13,4.48h-.1l-.43-4.46c-.25-2.84-.61-6.9-1-11.77-.19-2.44-.39-5.07-.56-7.87s-.39-5.74-.55-8.79l-.51-9.4c-.16-3.2-.31-6.46-.44-9.71s-.29-6.51-.48-9.71-.43-6.35-.7-9.39-.53-6-.7-8.78-.35-5.43-.47-7.87-.26-4.67-.33-6.66l-.2-5.14-.12-4.48Z" transform="translate(-482.72 -354)"/>
    <path d="M734.71,354.61l.39,5.68.38,6.52c.15,2.52.28,5.36.42,8.45s.31,6.45.42,10,.19,7.3.29,11.18.21,7.88.36,11.95.38,8.2.61,12.33l.66,12.33L738.8,445l.44,11.17c.15,3.55.24,6.91.33,10,.19,6.2.29,11.37.36,15l.08,5.69h-.1l-.37-5.68c-.22-3.61-.53-8.77-.84-15-.16-3.1-.34-6.45-.47-10L737.76,445l-.4-11.95L737,420.74c-.09-4.13-.22-8.27-.37-12.34s-.36-8.07-.59-11.94-.46-7.61-.6-11.16-.28-6.91-.38-10-.21-5.94-.25-8.46l-.14-6.53-.07-5.69Z" transform="translate(-482.72 -354)"/>
    <path d="M808.12,478.36,801.85,487l-.13-.37,12.08,3,12.06,3.1c4,1,8,2.07,12,3.15s8,2.14,12,3.25l1.44.4-1.46.27L837.84,502l-12.06,2.29-12,2.39-12,2.46h-.12l-17.66-3.67-17.64-3.75-17.63-3.83c-5.88-1.26-11.74-2.61-17.61-3.93l-1.84-.41,1.85-.36,20-3.94-.11.06,7.17-7.38.07.07-6.93,7.61,0,0-.07,0L731.22,494v-.78c5.89,1.23,11.78,2.43,17.65,3.71l17.63,3.81,17.62,3.89,17.6,4h-.12l12.07-2.25L825.72,504l12-2.41,12-2.48,0,.67q-6-1.5-12.07-3.07c-4-1-8-2.09-12-3.17l-12-3.22-12-3.28-.34-.09.21-.27,6.57-8.4Z" transform="translate(-482.72 -354)"/>
    <path d="M801.24,487.31l-.34.32a11.23,11.23,0,0,1-1,.86,14.76,14.76,0,0,1-1.73,1.15,17.19,17.19,0,0,1-2.45,1.13,20.06,20.06,0,0,1-3.06.85,26.68,26.68,0,0,1-3.51.39l-3.75.18c-1.27.08-2.57.15-3.86.25s-2.58.19-3.86.24-2.53.06-3.75.06-2.4,0-3.52-.15-2.17-.23-3.13-.39-1.85-.33-2.62-.53-1.44-.37-2-.56c-1.08-.35-1.68-.61-1.68-.61l0-.1.46.08c.3.05.73.15,1.29.23s1.23.21,2,.31,1.65.21,2.61.3c1.92.17,4.15.28,6.56.37,1.2,0,2.45.07,3.72.09s2.56,0,3.85.09,2.59,0,3.85,0a27.2,27.2,0,0,0,3.7-.41c1.19-.19,2.32-.46,3.39-.71s2.06-.51,3-.8,1.71-.61,2.43-.91,1.31-.63,1.79-.91a12.59,12.59,0,0,0,1.12-.68l.4-.24Z" transform="translate(-482.72 -354)"/>
    <g class="b">
      <g class="b">
        <path class="c" d="M867.82,542.91c0,1.42,0,.61,0,.15v-.14S867.82,542.93,867.82,542.91Z" transform="translate(-482.72 -354)"/>
        <path class="c" d="M867.82,542.92v0Z" transform="translate(-482.72 -354)"/>
        <path class="c" d="M867.82,542.2v.72s0,0,0,0Z" transform="translate(-482.72 -354)"/>
        <path class="c" d="M867.82,542.91h0C867.83,542.78,867.83,542.81,867.82,542.91Z" transform="translate(-482.72 -354)"/>
        <path class="d" d="M867.9,530.3c0-.79,0-.54-.07-.17l0,1.68c0,.71,0,.66,0,.21Z" transform="translate(-482.72 -354)"/>
        <path class="e" d="M867.8,531.2l0,1.48Z" transform="translate(-482.72 -354)"/>
        <path class="d" d="M867.89,530.74l0,1.74c0,.44,0,.49,0-.23l0-1.7,0,.61,0,1.58,0,1.53,0,1.37c0,.21,0,.3,0,0l-.05-4.39c0-2.11,0-2.72-.05-2.21l0,1.09,0,2.25a34.13,34.13,0,0,1,.22,4.53L868,538v.07c0-.43-.25.32-.23-2.29,0,0-.11-1.41-.11-1.42s-.08,1.14,0-3.47c0-.69,0,1.37,0,1,0,0,0,.09,0,.21s0,.22,0,.5,0,1,0,1.59c0,1.33,0,1.45,0,2.34,0,.31,0,.25,0,.13l0-.69v-1.16l0-2c0-.31,0-.17,0,.12,0-.16,0,2.22,0,1.53l0-2.77v2c0,.29,0,.08,0-.14s0-.36,0-.14v-.54Z" transform="translate(-482.72 -354)"/>
        <g>
          <path class="d" d="M868,535.54v.1l0,2.76Z" transform="translate(-482.72 -354)"/>
          <path class="d" d="M868,534.19v.1c0-.48,0-1,0-1.4,0,.17,0,.35,0,.54,0,0,0,.27,0,1,0,.14,0,.27,0,.4,0-.06,0-.15,0-.24v.19c0,.76,0,1,0,.9s0-.26,0-.4C868,534.48,868,534.21,868,534.19Z" transform="translate(-482.72 -354)"/>
        </g>
        <path class="f" d="M868,547.46c0-.13,0,0,0,.14,0,0,0,.37,0,.76s0,.74,0,.9,0,.38,0,.17c0-.39,0-.11,0,.21s0,.51.06.34c0-1.07.06-1.49.06-1.62Z" transform="translate(-482.72 -354)"/>
        <path class="g" d="M868,539.57l0,1c0,.08,0-.08,0-.31s0-.49,0-.44c0-.15,0,.87,0,1.67s0,1,0-1.33c0-2,0-2.18,0-2s0,.74,0,.73,0,.69,0,.61,0-.26-.06-.18a4.35,4.35,0,0,1,0-.51c0-.3,0-.7,0-.64v-.91c0-.47-.05-.38-.08-.3a.54.54,0,0,0,0,.11l0,.26v.15c0,.1-.26.2-.26.31s.73.51-.27.8V539c1,0,.28.15.3.64s.17,1.17.18,1.45a2.82,2.82,0,0,0,.08.3s0,0,0,0c0-.67,0-.67,0-.77,0-.68.15-.88.18-.37,0,1.29.17,1.64.17,2.22v-.63c0,.31-.1.54-.1.71,0,0,0,0,0,0s0-.11,0,0h0s0,.08,0,.13c0,.66,0,.46,0,.08s0-.79,0-.2c0,2.05,0,2.22.05,1.63s0-1.46,0-.95c0,.06,0,0,0-.14l0-.93,0-2.56Z" transform="translate(-482.72 -354)"/>
        <path class="h" d="M868,538.23v-.36c0-.1,0,.24,0,.3s0-.07,0-.35V536c0-.81,0,2.27,0,1.63,0-1.37,0-2.1-.06-2.2s0,.12-.06.75l-.06,1.83c0,.37,0,.36-.06.13,0,0,0-1.61,0-1.94l0-3.65c0-.65,0,.85,0,1.42l0,.68c0,.06,0,0,0,0h0a.9.9,0,0,0,0,.15c0,.25-.25.09-.27,1,0,3.44.71.62-.29,2.67v.17c1-.29.26-.55.27-.8s.13-.21.13-.31.07-.1.07-.15,0-.18.05-.26,0-.06,0-.11.06-.18.08.3v.91c0-.05,0,.34,0,.65a2.66,2.66,0,0,0,0,.5c0-.08,0,0,.06.18s0-.57,0-.61,0-.53,0-.73,0,0,0,2c0,2.34,0,2.12,0,1.33s0-1.83,0-1.67c0,0,0,.23,0,.44s0,.38,0,.31l0-1v-1.34Z" transform="translate(-482.72 -354)"/>
        <path class="i" d="M868,539.14v-1c0-.31,0-.16,0,.37v.67Z" transform="translate(-482.72 -354)"/>
        <path class="i" d="M868,537.62v-.53l0-.7,0-1.6c0,.2,0,.08,0-.77v-.6c0-.22,0-.09,0,.14s0,.43,0,.14v-2l0,2.77c0,.69,0-1.7,0-1.53,0-.29,0-.43,0-.12l0,2,0,1.16,0,.69c0,.12,0,.18,0-.13l0-2.34,0-1.59v-.5a1.6,1.6,0,0,0,0-.21c0,.4,0-1.66,0-1l-.06,3.47s.24,1.41.24,1.42c0,2.61.23,1.86.23,2.29v.24l-1,.16c1-2,.24.78.29-2.67a3.18,3.18,0,0,1,.14-1c0-.13.07-.15.07-.15h0s0,.05,0,0,0-.16,0-.68,0-2.07,0-1.42c0,3.65,0,2.43,0,3.65,0,.32,0,1.94,0,1.94,0,.23,0,.24.06-.13l.06-1.83c0-.63,0-.84.06-.75s0,.82.06,2.2c0,.64,0-2.44,0-1.63v1.81c0,.28,0,.41,0,.35s0-.4,0-.3Z" transform="translate(-482.72 -354)"/>
        <path class="f" d="M867.74,541.95l0,1.75V544Z" transform="translate(-482.72 -354)"/>
        <path class="f" d="M867.79,545.13l0,1.53,0-2.21Z" transform="translate(-482.72 -354)"/>
        <g>
          <path class="j" d="M868,546.89l0-6.17Z" transform="translate(-482.72 -354)"/>
          <path class="k" d="M868,539.61l0,2.56,0,.93c0,.15,0,.2,0,.14,0-.52,0,.4,0,.95s0,.42-.05-1.63c0-.58,0-.14,0,.2s0,.58,0-.08c0,.38,0,1,0-.23l-.06-2.22c0-.51,0-.31-.07.37l0,.77s0,.08,0,0l0-.3-.05-1.45a2.43,2.43,0,0,0-.05-.64l0,2.23.06,4.42a3.67,3.67,0,0,0,0,.52,3.27,3.27,0,0,0,0-.33v-.76l0-3.2,0,1.83,0-1.81v-.53c0-.12,0-.19,0-.19v0s0,0,0,.1,0,.23,0,.43l0,1.05,0,1.12,0,2.08v.2l.06,3.22c0-.05,0-.09,0,.58s0,.41,0,.21,0-.66,0-.53l0-1.14,0-5.48v-3.47S868,539.62,868,539.61Z" transform="translate(-482.72 -354)"/>
        </g>
      </g>
    </g>
    <path d="M695.93,359.15l1.95,30.93,1.84,31,3.65,62-.37-.41,21.74,3.51h-.06l15.28,0h-.09l18.23-4.63h.05l49.08-3.43c8.18-.56,16.36-1.18,24.53-1.79l24.53-1.83h0L888,468.57l-.25.33-3.07-45.53-3-45.53.37.43-32.32-7h.08l-48.19-2.35-.32,0-.11-.29-3.5-9.32.39.41L734.64,355h0l-15.28-.19,0-.07Zm-.1-.08,23.52-4.91,0-.16h15.32l63.48,4.54.28.08.1.3,3.55,9.31-.43-.3,48.19,2.35H850l32.32,7.06.35.08,0,.35,2.92,45.54,2.8,45.54,0,.28-.27,0L856.35,475v0h0l-24.54,1.7c-8.18.58-16.36,1.12-24.54,1.76l-49.06,3.68h.05L740,486.92l0,.08H724.64l0-.06-21.75-3.43-.35-.07,0-.36-3.4-62-1.69-31Z" transform="translate(-482.72 -354)"/>
    <path d="M721.68,424.84l-.45-8.77-.4-8.77c-.28-5.85-.47-11.7-.7-17.55-.11-2.93-.23-5.85-.31-8.78l-.25-8.78-.39-17.56h.4c.2,5.51.37,11,.63,16.53l.78,16.52.8,16.52.74,16.53.67,16.53c.22,5.51.42,11,.58,16.53l.51,16.53.24,8.27.19,8.27h-.1l-.47-8.26-.42-8.26-.81-16.52c-.29-5.51-.52-11-.74-16.53l-.66-16.53-.59-16.53-.52-16.53-.54-16.53c-.18-5.51-.45-11-.69-16.53h.4l.79,17.55.33,8.78c.12,2.93.2,5.85.28,8.78.16,5.85.36,11.71.48,17.56l.19,8.78.14,8.78Z" transform="translate(-482.72 -354)"/>
  </g>
  <g>
    <path class="l" d="M602.19,460.2l.08,0,.49-.11a2.82,2.82,0,0,0,.35-.07c.24-.07.48-.12.29-.1l-.64.1a8.71,8.71,0,0,0,.92-.27c0-.06-.13-.1-.21-.19a2.51,2.51,0,0,0-.29-.3,3,3,0,0,1-.55,0c-.18-.08.06-.26.13-.42l-.11-.08c-.14,0-.37,0-.51,0a.51.51,0,0,1,.16-.21,25.6,25.6,0,0,1-4-3.92,6.13,6.13,0,0,1-1.37-1.07c-.2-.48.29-1,.41-1.43-2.3-.18-3.32-1.33-5.66-1.33.07-.26.18-.66-.47-.73a19.65,19.65,0,0,1-5.33-1.11c-.28-.16.55-.41.16-.47-.63-.08-1.38.21-2,.12a3.61,3.61,0,0,0-.35,2.18,22.63,22.63,0,0,1,0,3.29c.47.49.64,2.12.76,4.22l.1,1.63.05.83.08.86.07.8.09.79.13,1.26.09.23a5.93,5.93,0,0,0,.38,1.35,7.37,7.37,0,0,0,.75,1.38l5.94,8.45,4.64-3.64a1.79,1.79,0,0,0,.6-1c.09-.59.15-1.29.22-2l-.6-1c.27,0,.51,0,.49-.46.2-1.07-.29-2.14-.91-3.6-.33-.62-.38-1.7-.82-2.31l.51,0c-.14-.64-.52.48-.66-.59.25.19.36-.25.6-.27-.3-.84-.81-.14-1-1,.06-.23.87,1,.67-.07,0-.21-.28-.19-.39-.18a1.62,1.62,0,0,0-.11-2.6,1,1,0,0,1,.29,0l.29.1.14,0s.11,0,.06.06a.27.27,0,0,1-.22.05v0a.72.72,0,0,0,.22-.22.49.49,0,0,0-.28-.1,1.54,1.54,0,0,1,.26,0s-.13.07-.2.1v-.47c0-.08.15-.17.07-.21a.42.42,0,0,0-.22-.05c.09,0,.35,0,.15,0a1.31,1.31,0,0,0,0-.55c-.08-.16-.17-.32-.25-.46l-.44-.49a6.6,6.6,0,0,1-.5-.47c-.29-.29-.5-.51-.6-.5l-1.43-.07c-.42,0-.88,0-1.19,0l8.35,7.09a5.84,5.84,0,0,1,1-.43l.26-.07.35-.12Q601.83,460.3,602.19,460.2Z" transform="translate(-482.72 -354)"/>
    <path class="l" d="M607,456.55c-.4,0-.81,0-1-.11-.36-.47,1-.79.64-1.28l-.65,0c.29-.34.65-.66,1-1a7.46,7.46,0,0,0-.49-1.84,1.16,1.16,0,0,1-.55,0c-.18-.25,0-.58.1-.9l-.12-.14a2.86,2.86,0,0,0-.51,0,1.13,1.13,0,0,1,.14-.4c-1.34-1.52-2.9-2.88-4.37-4.41a5.35,5.35,0,0,1-1.44-1c-.22-.48.25-1,.37-1.44-2.31-.15-3.25-1.51-5.58-1.66.09-.36.3-.9-.33-1.07-1.87-.51-4.08-1.25-4.81-2.94-.09-.63,1-1.17.65-1.48-.49-.51-1.53.22-2-.28a14,14,0,0,0-1.55,6c-.06,1.81.08,3.52.09,5,.5.55.93,2.47,1.17,4.18a8.15,8.15,0,0,1,0,3.66l0,.1a1.13,1.13,0,0,0,0,.79,1.69,1.69,0,0,0,.74.71c.52.28,1.11.5,1.69.83l1.16.06c-.1.18-.19.34.19.54a6.88,6.88,0,0,0,3.54,1.1c.7,0,1.65.58,2.4.46a3.77,3.77,0,0,1-.26.56c.63.23-.09-.82.88-.36-.29.17,0,.55-.14.79a.63.63,0,0,0,.75-.28.49.49,0,0,1,.67-.22c.17.22-1.35.39-.35.79.2.08.34-.19.4-.32a1.52,1.52,0,0,0,2.21,1.42c-.15.32-.75.59-.75,1h0c.1-.15.42-.35.5-.51l-.28.55.46.08a.9.9,0,0,0,.42-.35l-.19.38a7.21,7.21,0,0,0,1.08,0c.84-.23,2-.43,2.14-.74A16.28,16.28,0,0,0,607,456.55Z" transform="translate(-482.72 -354)"/>
    <path class="l" d="M644.14,450.61a9.27,9.27,0,0,1,1,.11c.36.16-1,.06-.62.2l.64.11c-.27,0-.68.11-1,.14a3.67,3.67,0,0,0,.12.36,3.11,3.11,0,0,0,.16.47,2.31,2.31,0,0,1,.52.17c.14.17-.12.26-.26.44l.08.12a4.61,4.61,0,0,0,.48.19.6.6,0,0,1-.23.19,31.13,31.13,0,0,1,2.61,5.13,6.09,6.09,0,0,1,1,1.46c.05.52-.57.94-.82,1.34,2.16.8,2.82,2.25,5.08,2.86-.15.25-.37.62.24.86a19.37,19.37,0,0,1,4.83,2.53c.22.24-.65.28-.29.44.58.25,1.4.14,2,.4.91-.72,1-3,2-5.34-.31-.6,0-2.3.49-4.36s1-4.56,1.33-5.75v-.21a6.26,6.26,0,0,0,0-2.16,4.41,4.41,0,0,0-1-2.08,10.57,10.57,0,0,0-2.1-1.17,8.8,8.8,0,0,1-1,.8c0-.45-.1-.91-.54-1-1.25-.63-2.17.26-3.6.89-.63.35-1.69.38-2.32.8a1.89,1.89,0,0,0-.05-.44c-.32.08-.19.18-.11.29s.06.22-.47.29c.22-.22-.24-.28-.27-.44-.81.3-.14.6-1,.78-.19,0,1-.7,0-.42-.21.06-.19.19-.18.26-.48-.33-1.49-.1-2.53.5,0-.08.39-.35.21-.39h0c0,.06-.2.21-.2.25v-.16l-.41.18c-.11.08-.2.14-.2.18v-.09l-.93.4c-.32.15-.71.31-1,.43l-.58.21C644.6,450.76,644.2,450.38,644.14,450.61Z" transform="translate(-482.72 -354)"/>
    <path class="l" d="M656.7,460.08c-.4,0-.81.08-1-.11-.36-.57,1-1,.66-1.52l-.65-.07c.3-.42.69-.84,1-1.27a20.35,20.35,0,0,0-.29-2.53c-.24,0-.46,0-.54-.09-.15-.36.12-.82.23-1.31l-.09-.23a1.92,1.92,0,0,0-.5-.13,2.35,2.35,0,0,1,.21-.59c-1-2.55-2.26-5.22-3.31-8.16a7,7,0,0,1-1.18-1.95c-.12-.88.52-1.85.74-2.63-2.3-.31-3-2.54-5.34-2.64.16-.55.43-1.38-.19-1.57-1.87-.57-4-1.51-4.72-3.4-.1-.7.95-1.44.62-1.76-.51-.51-1.55.44-2.06-.07-2,4.6-2,9.28-2.66,13.91.4.87.35,4,.25,7.15a65.32,65.32,0,0,1-.57,7.85l0,.25a6.87,6.87,0,0,0,.8,4.55c.54.58,1.19,1.17,1.83,1.74.38-.27.76-.51,1.14-.72-.05.58-.11,1.16.31,1.38,1,1.23,2.14.52,3.71.06.69-.33,1.74.11,2.44-.4l-.08.93c.65,0-.34-1.14.73-.88-.26.36.15.75.12,1.12.88-.13.33-1.27,1.2-1.22.2.2-1.19,1-.1,1.1.22,0,.25-.35.26-.53a1.45,1.45,0,0,0,2.56.7c0,.35-.49.85-.33,1.22h0c0-.19.26-.51.27-.68l-.05.63.45-.12a.94.94,0,0,0,.25-.48l0,.42c.35-.11.69-.23,1-.37.7-.5,1.72-1,1.75-1.23A39.4,39.4,0,0,0,656.7,460.08Z" transform="translate(-482.72 -354)"/>
    <path class="l" d="M562.78,474c-.37-.17-.85-.09-.85-.54.17-1.35,1.85-1.74,2.07-3.1l-.55-.37c.7-.81,1.51-1.61,2.29-2.46.86-1.86,1.71-3.74,2.54-5.65-.23-.07-.44-.16-.41-.38a14.66,14.66,0,0,1,1.77-2.8l.18-.53a.93.93,0,0,0-.34-.43,12.6,12.6,0,0,1,.92-1.24c2.08-5.93,4.29-12.08,7-18.62a22.48,22.48,0,0,1,1.31-4.4,40.89,40.89,0,0,1,4.24-5.34c-2.05-1.14.13-5.81-2.32-6.45.89-1.07,2.26-2.66,1.83-3.15-1.29-1.5-2.46-3.73-.68-7.54.82-1.37,3.3-2.73,3.89-3.69a.31.31,0,0,0-.27-.41,3.14,3.14,0,0,0-1.07.26c-.75.22-1.48.46-1.27-.18a48,48,0,0,0-3.48,3.43c-1,1.09-1.93,2.16-2.82,3.24-1.78,2.16-3.42,4.34-5,6.55-3.17,4.42-6.12,8.93-9.23,13.5-.63,1.85-4.38,8.07-8.15,14.76-1.89,3.34-3.79,6.81-5.39,9.87s-2.9,5.7-3.7,7.25l-.23.59c-1.63,3.42-3.18,8.09-3,12.2a24.66,24.66,0,0,0,1.54,6.19,9.19,9.19,0,0,1,1-2.68c0,.46,0,1,0,1.46a13.85,13.85,0,0,0,.15,1.46,8.35,8.35,0,0,0,.32,1.13,2.55,2.55,0,0,0,.45.71,5.88,5.88,0,0,0,.84,1.09,2.87,2.87,0,0,0,.73.49.74.74,0,0,0,.91-.15,3.17,3.17,0,0,0,.52-1,7.8,7.8,0,0,1,.62-1.27c.19-.52.64-.54,1.07-.65a1.23,1.23,0,0,0,1-.87,4.25,4.25,0,0,0,.73,1.86c.31-.09-.13-.54-.36-1.05s-.28-1,.29-.85c-.09.77.65,1.42,1.15,1.92.29-.28-.08-.74-.19-1.29s-.14-1,.3-1.06c.13.15-.08.64,0,1.1s.23.83.75.64c.19-.06-.16-.56-.26-.86a2,2,0,0,0,2.06.89c.58-.14.74-.45.8-1.06.23.28.48.71,1,.67h0a2.47,2.47,0,0,1-.56-.33,2.54,2.54,0,0,0,.64.2l.15-.27a.71.71,0,0,0-.28-.25,2.1,2.1,0,0,0,.36.12c.12-.2.25-.42.39-.61.13-.5,1-1.09,1-1.13a.68.68,0,0,1,.12-.23c.09.05.11,0,.19-.25.13-.45.36-1.28.68-2.19C560.85,478.44,561.79,476.25,562.78,474Z" transform="translate(-482.72 -354)"/>
  </g>
  <g>
    <path d="M633.87,365.85l-2.48,1.08L629,368.22l-2.24,1.5-2.1,1.68-2,1.85-1.79,2-1.63,2.14-1.46,2.26L616.59,382l-1.09,2.45-.89,2.53-.69,2.59-.47,2.64-.25,2.67v2.68l.23,2.66,0,.33-.32,0a103.72,103.72,0,0,0-15.91-.08,41,41,0,0,0-7.77,1.49c-.62.2-1.26.41-1.86.63l-1.85.75a35.48,35.48,0,0,0-3.5,1.81,40.48,40.48,0,0,0-6.36,4.68,56.31,56.31,0,0,0-5.46,5.74,91.82,91.82,0,0,0-8.87,13.17q-3.93,6.94-7.28,14.16a152,152,0,0,0-5.88,14.79,130.6,130.6,0,0,0-4.14,15.37,60.84,60.84,0,0,0-1.19,7.84,17.2,17.2,0,0,0,1,7.7,9.65,9.65,0,0,0,5.39,5.28,20.58,20.58,0,0,0,7.72,1.3A92.26,92.26,0,0,0,573,493.52c5.24-.9,10.48-1.92,15.8-2.39a100.75,100.75,0,0,1,16,.23c5.3.33,10.66.49,15.86-.61s10.23-2.91,15.5-3.85a74.82,74.82,0,0,1,31.8.87l-.39.32-.09-.75-.16-.74-.22-.73-.29-.7-.34-.68-.4-.65-.45-.61-.5-.58-.54-.53-.58-.49-.62-.44-.65-.39-.68-.33-.71-.27-.73-.2-.74-.13-.53-.1.27-.42c.14-.23.29-.46.44-.68a8.06,8.06,0,0,1,.56-.58,4.41,4.41,0,0,1,1.4-.79,3.92,3.92,0,0,1,.77-.2,4.08,4.08,0,0,1,.78-.09,4.67,4.67,0,0,1,.78,0,5.31,5.31,0,0,1,.77.08,8.84,8.84,0,0,1,1.5.34A11,11,0,0,1,668,478a11.93,11.93,0,0,1,2.61,1.6c1.55,1.26,3,2.62,4.61,3.69a10.39,10.39,0,0,0,2.54,1.28,7,7,0,0,0,1.36.28l.69,0,.69-.07-.33.58-1.08-2.57-.76-1.83,1.46,1.34a9,9,0,0,0,5.54,2.33l-.43.26a7.8,7.8,0,0,0-.71-7.15,10,10,0,0,0-2.48-2.82,13.3,13.3,0,0,0-3.34-1.83,24.1,24.1,0,0,0-7.6-1.36A50,50,0,0,0,663,472a53,53,0,0,0-7.69,1.51,31.77,31.77,0,0,1-7.88,1.38,11.57,11.57,0,0,1-4-.69,24.34,24.34,0,0,1-3.56-1.87,18.4,18.4,0,0,0-1.7-.9,6.76,6.76,0,0,0-.86-.33l-.95-.27a12.52,12.52,0,0,0-3.76-.19c-2.56.22-5.1,1-7.72,1.45a21.34,21.34,0,0,1-4,.42,12.67,12.67,0,0,1-2-.15,14.58,14.58,0,0,1-2-.45,51.51,51.51,0,0,1-7.26-3.29,15.43,15.43,0,0,0-7.35-1.93,58.8,58.8,0,0,0-7.71,1.26,16,16,0,0,1-4.06.23,9.35,9.35,0,0,1-3.94-1.25c-1.19-.69-2.22-1.52-3.31-2.18a10.27,10.27,0,0,0-3.5-1.35,10.75,10.75,0,0,0-7.31,1.21l-.37-.83a25.38,25.38,0,0,1,14.76-.09l-.46.61L579,452.61l-.77-1.24,1.26.73a55,55,0,0,1,10.35,7.73l-.54.16a74.45,74.45,0,0,0,2.21-22.9L592,437l3.39,22.42-.25,0A33.53,33.53,0,0,0,597.52,446h.1a33.71,33.71,0,0,1-2.24,13.54l-.18.46-.08-.48-3.62-22.39L592,437a75,75,0,0,1-2.08,23.09l-.13.53-.4-.38a54.34,54.34,0,0,0-10.27-7.57l.49-.51,7.37,11.7.58.91-1-.3a24.51,24.51,0,0,0-14.25.18l-3.9,1.25,3.53-2.08a11.69,11.69,0,0,1,8-1.37,11.27,11.27,0,0,1,3.84,1.45c1.17.7,2.2,1.53,3.29,2.16a8.36,8.36,0,0,0,3.53,1.12,15.05,15.05,0,0,0,3.81-.22,58.27,58.27,0,0,1,7.87-1.27,13,13,0,0,1,4,.53,24.08,24.08,0,0,1,3.74,1.5,51,51,0,0,0,7.12,3.24,15.2,15.2,0,0,0,7.59.16c2.56-.47,5.11-1.22,7.81-1.45a13.29,13.29,0,0,1,4.1.23l1,.28a7.64,7.64,0,0,1,1,.38,19.29,19.29,0,0,1,1.79.94,23.53,23.53,0,0,0,3.43,1.81,10.65,10.65,0,0,0,3.7.63,31,31,0,0,0,7.64-1.34,54,54,0,0,1,7.81-1.53,50.88,50.88,0,0,1,8-.31,25,25,0,0,1,7.89,1.43,14.27,14.27,0,0,1,3.56,2,10.92,10.92,0,0,1,2.71,3.08,8.69,8.69,0,0,1,.75,8l-.13.28-.31,0a9.84,9.84,0,0,1-6.08-2.6l.7-.48L681,485l.22.53-.55,0-.79.07-.79,0a7.86,7.86,0,0,1-1.54-.33,11.19,11.19,0,0,1-2.74-1.4c-1.68-1.14-3.13-2.52-4.65-3.77a11.17,11.17,0,0,0-2.43-1.51,10.24,10.24,0,0,0-1.34-.51,8.11,8.11,0,0,0-1.39-.32,4.68,4.68,0,0,0-.7-.07,4,4,0,0,0-.7,0,3.44,3.44,0,0,0-.69.08,3.24,3.24,0,0,0-.67.17,3.69,3.69,0,0,0-1.18.65c-.17.14-.31.32-.47.48l-.37.57-.26-.51.81.15.79.22.76.3.73.36.7.42.66.48.62.53.58.57.53.62.48.66.42.7.36.73.3.76.23.78.16.8.09.81,0,.43-.44-.11a73.82,73.82,0,0,0-31.56-1c-5.24.91-10.26,2.73-15.51,3.78s-10.66.9-16,.54a92.25,92.25,0,0,0-15.92-.2c-5.29.5-10.52,1.54-15.76,2.47a92.72,92.72,0,0,1-15.9,1.76,21.11,21.11,0,0,1-7.94-1.3,10.7,10.7,0,0,1-3.43-2.19,10.31,10.31,0,0,1-2.31-3.38,17.81,17.81,0,0,1-1.09-8,61.43,61.43,0,0,1,1.17-7.94,131.34,131.34,0,0,1,4.09-15.48,158.64,158.64,0,0,1,13.15-29.14,92.64,92.64,0,0,1,9-13.24,57.06,57.06,0,0,1,5.56-5.8,41.2,41.2,0,0,1,6.5-4.74,36.11,36.11,0,0,1,3.6-1.84l1.85-.74c.65-.24,1.28-.44,1.92-.64a41.61,41.61,0,0,1,7.9-1.47,104.24,104.24,0,0,1,16,.16l-.29.31-.23-2.72,0-2.72.27-2.71.5-2.68.72-2.62.93-2.55,1.13-2.47,1.32-2.37,1.5-2.26,1.67-2.14,1.84-2,2-1.84,2.14-1.67,2.27-1.48,2.39-1.27,2.49-1Z" transform="translate(-482.72 -354)"/>
    <path d="M676.91,378c.16,3,.24,5.51.31,8.31,0,1.4.05,2.75.07,4.15l.05,4.18-.44-.46c1.39,0,2.79.06,4.18.09s2.79.11,4.18.16h.29l0,.27a20.39,20.39,0,0,1,.12,5.35,6.92,6.92,0,0,1-2.57,4.63,5,5,0,0,1-.58.36,4.91,4.91,0,0,1-.64.26,4.52,4.52,0,0,1-1.36.21,3.86,3.86,0,0,1-2.58-.92,4.89,4.89,0,0,1-1.3-2.43,10.9,10.9,0,0,0-.83-2.42l.61,0a23.2,23.2,0,0,1-4.22,4.94,14,14,0,0,1-1.29,1,8.92,8.92,0,0,1-1.47.83,5.69,5.69,0,0,1-1.68.47,3.63,3.63,0,0,1-1.82-.25,2.43,2.43,0,0,1-.42-.22l-.1-.06-.07,0,0,0-.16-.12a3.62,3.62,0,0,1-.65-.71,5.48,5.48,0,0,1-.72-1.61,26.55,26.55,0,0,1-.56-3.23,14.2,14.2,0,0,1,.36-6.55l.1-.3h.3c2.34-.06,4.68-.12,7-.14s4.68,0,7,0v.1c-2.33.19-4.66.39-7,.54s-4.67.3-7,.44l.41-.31a14.7,14.7,0,0,0-.19,6.14,26,26,0,0,0,.55,3.07,4.45,4.45,0,0,0,.58,1.3,3.22,3.22,0,0,0,.43.48l.16.12,0,0s0,0,0,0l.07,0a1.48,1.48,0,0,0,.28.15,3.42,3.42,0,0,0,2.7-.17,8,8,0,0,0,1.32-.72,13.14,13.14,0,0,0,1.22-.94,24.08,24.08,0,0,0,4.22-4.64l.35-.5.26.53a11.34,11.34,0,0,1,.76,2.62,7.11,7.11,0,0,0,.37,1.22,3.19,3.19,0,0,0,.68,1,3.31,3.31,0,0,0,2.27.89,4.16,4.16,0,0,0,1.25-.17,3.86,3.86,0,0,0,1.14-.55,5.06,5.06,0,0,0,1.64-1.95,7.61,7.61,0,0,0,.73-2.47,18.62,18.62,0,0,0-.38-5.21l.32.28c-1.39,0-2.79,0-4.18,0s-2.79,0-4.18,0h-.44v-.44l0-4.2c0-1.4,0-2.71.05-4.11.06-2.8.13-5.31.27-8.31Z" transform="translate(-482.72 -354)"/>
    <path d="M677.31,377.85c-.1.27-.21.55-.32.82l-.17.39-.08-.44c-.16-.84-.34-1.68-.52-2.51s-.44-1.64-.69-2.45a20,20,0,0,0-.93-2.33,14.84,14.84,0,0,0-1.25-2.14,8.28,8.28,0,0,0-1.67-1.82,8.74,8.74,0,0,0-1-.72,8.64,8.64,0,0,0-1.15-.5,9.69,9.69,0,0,0-2.49-.49,20.31,20.31,0,0,0-2.56,0,32.73,32.73,0,0,1-5.21-.06,12.2,12.2,0,0,1-2.6-.61,12.38,12.38,0,0,1-2.41-1.18,36.65,36.65,0,0,1-4.12-3.18c-.66-.55-1.32-1.07-2-1.58a20.1,20.1,0,0,0-2.14-1.36l-.65-.37.72,0,1.44.1v.1l-1.44.13.07-.32a18.5,18.5,0,0,1,4.53,2.58c1.4,1,2.74,2.07,4.16,3A15.3,15.3,0,0,0,657,364a11.21,11.21,0,0,0,2.39.66c1.65.27,3.36.33,5.08.44a22.19,22.19,0,0,1,5.14.76,10.82,10.82,0,0,1,1.25.46,9.25,9.25,0,0,1,1.15.63,8.82,8.82,0,0,1,2,1.77,12.33,12.33,0,0,1,2.31,4.74,22,22,0,0,1,.7,5.16l-.25,0c.15-.25.31-.5.47-.75Z" transform="translate(-482.72 -354)"/>
    <path d="M643.31,359.44c.4,1.06.75,2.1,1.09,3.15s.72,2.07,1,3.15l.22.86-.7-.41-.92-.54c-.31-.17-.63-.33-1-.48a11.68,11.68,0,0,0-2-.62c-.7-.13-1.4-.22-2.11-.28s-1.4-.12-2.1-.16-1.4,0-2.1,0c-.35,0-.7,0-1,0l-1,0-1.05.07-1.06.1-2.13.27,0-.1c.33-.16.66-.3,1-.44l1-.35a16,16,0,0,1,2.13-.49,17,17,0,0,1,2.19-.19,18.79,18.79,0,0,1,2.19.12,17.43,17.43,0,0,1,2.16.37c.71.19,1.4.41,2.08.65l2,.69c.34.12.68.23,1,.33l1,.36-.49.44a13.35,13.35,0,0,1-1.11-3.18,14.84,14.84,0,0,1-.41-3.35Z" transform="translate(-482.72 -354)"/>
    <path d="M637.67,395.14l-.38-.08a4.14,4.14,0,0,1-1-.49,12.5,12.5,0,0,1-1.34-1.06,5.48,5.48,0,0,0-1.67-1.08,2.75,2.75,0,0,0-1.07-.15,4,4,0,0,0-1.13.27,5.4,5.4,0,0,0-2.13,1.58,5.25,5.25,0,0,0-1.15,2.71,13.2,13.2,0,0,0,0,3.14,29.87,29.87,0,0,1,.19,3.19,22.18,22.18,0,0,0,.06,3,4.86,4.86,0,0,0,.9,2.41,5.09,5.09,0,0,0,1.78,1.44,11.18,11.18,0,0,0,2,.72c.61.17,1.16.27,1.62.36l1.44.25v.1s-.53,0-1.47,0a13.79,13.79,0,0,1-1.7-.12,8.69,8.69,0,0,1-2.19-.56,5.29,5.29,0,0,1-2.27-1.64,5.16,5.16,0,0,1-1.08-2.9,21,21,0,0,1,.09-3.14c.08-1,.09-2.08.14-3.15a28.1,28.1,0,0,1,.26-3.2,7.87,7.87,0,0,1,1-3,5.38,5.38,0,0,1,2.22-2.07,4,4,0,0,1,1.44-.35,3.74,3.74,0,0,1,1.37.24,5.32,5.32,0,0,1,1.87,1.4c.45.48.81.9,1.14,1.21a4.16,4.16,0,0,0,.82.63l.34.18Z" transform="translate(-482.72 -354)"/>
    <path d="M634.57,398.14l-.41.16a8.76,8.76,0,0,0-.93.43l-.57.32c-.21.11-.45.21-.68.35a1.6,1.6,0,0,0-.59.6,1.75,1.75,0,0,0-.2.82,5.51,5.51,0,0,0,.1.84,4.12,4.12,0,0,0,.22.74,8.09,8.09,0,0,0,.61,1.22,5.46,5.46,0,0,0,.63.82c.18.2.3.31.3.31l0,.09a1.87,1.87,0,0,1-.46-.06,2.59,2.59,0,0,1-1.1-.57,3.14,3.14,0,0,1-.55-.64,2.71,2.71,0,0,1-.38-.86,3.82,3.82,0,0,1-.11-1,2.56,2.56,0,0,1,.25-1c.15-.34.32-.59.47-.88s.31-.54.47-.82a2.53,2.53,0,0,1,.59-.71,2.57,2.57,0,0,1,.74-.38,2.39,2.39,0,0,1,1.23-.06,1.34,1.34,0,0,1,.43.16Z" transform="translate(-482.72 -354)"/>
    <path d="M668.41,427.92l.14.46c.09.3.21.75.34,1.33s.24,1.29.35,2.11.17,1.75.22,2.76,0,2.11,0,3.27-.18,2.37-.27,3.62a31.89,31.89,0,0,0-.12,3.87,37,37,0,0,0,.38,4l.58,4,.5,3.85c.32,2.5.53,4.84.67,6.85s.24,3.69.3,4.86.05,1.85.05,1.85h-.1s-.14-.66-.35-1.82-.49-2.81-.77-4.81-.6-4.32-.84-6.83-.51-5.17-.6-7.87c-.05-1.35-.11-2.69-.14-4l-.11-3.89c0-1.26-.07-2.48-.07-3.63l0-3.23c0-2,0-3.66-.13-4.82,0-.58-.09-1-.12-1.36l0-.48Z" transform="translate(-482.72 -354)"/>
    <path d="M684.83,472.07a5.64,5.64,0,0,1,2.1-.69,7.38,7.38,0,0,1,2.24.13,10.53,10.53,0,0,1,2.13.68,17.08,17.08,0,0,1,2,1,36.27,36.27,0,0,1,3.53,2.56c.57.44,1.14.89,1.73,1.31l1.78,1.26a3.57,3.57,0,0,1,1.38,1.79,2,2,0,0,1-.83,2.21,1.82,1.82,0,0,1-1.3.09,6,6,0,0,1-1.06-.45c-.66-.32-1.28-.61-1.94-.88a32.8,32.8,0,0,0-8.2-2.12l-.38,0,0-.36a3.32,3.32,0,0,0-.13-.71,3.7,3.7,0,0,0-.32-.67,5.25,5.25,0,0,0-.47-.6,4.63,4.63,0,0,0-.59-.51,4.69,4.69,0,0,0-.69-.38,5.44,5.44,0,0,0-.76-.24,3.93,3.93,0,0,0-.8-.07,4.12,4.12,0,0,0-.81.13l0-.09a3.44,3.44,0,0,1,.82-.29,4.24,4.24,0,0,1,.88-.06,4.08,4.08,0,0,1,.88.15,4.46,4.46,0,0,1,1.58.85,4.25,4.25,0,0,1,.63.67,4.47,4.47,0,0,1,.46.82,4.16,4.16,0,0,1,.24.93l-.41-.4a22.43,22.43,0,0,1,8.51,2.14,21.36,21.36,0,0,1,1.95,1c.62.37,1.21.69,1.71.5a1.4,1.4,0,0,0,.67-1.53,2.87,2.87,0,0,0-1.15-1.63c-.55-.45-1.17-.83-1.77-1.23s-1.22-.77-1.84-1.14L692.81,474A17,17,0,0,0,689,472.2a6.81,6.81,0,0,0-4.14,0Z" transform="translate(-482.72 -354)"/>
    <path class="m" d="M692.88,470.42c.1-.32-.59-.18-.5.14s.5.41.84.45a9.15,9.15,0,0,1,7,5.2" transform="translate(-482.72 -354)"/>
    <path class="m" d="M680.47,481.8a19.16,19.16,0,0,0-13.06-10.46" transform="translate(-482.72 -354)"/>
    <path d="M666,395.85c-.08,1.12-.23,2.23-.39,3.33s-.4,2.21-.48,3.27a5,5,0,0,0,.46,3,2.21,2.21,0,0,0,1.15.89,2.91,2.91,0,0,0,1.56.05,7.48,7.48,0,0,0,2.89-1.51,15.32,15.32,0,0,0,2.33-2.29,12.26,12.26,0,0,0,.92-1.31,7.89,7.89,0,0,0,.69-1.41,6.25,6.25,0,0,0,.34-1.5,5.76,5.76,0,0,0,0-1.51l.25.37a9.15,9.15,0,0,0-1.89-.86,8.85,8.85,0,0,0-2.06-.42c-.35,0-.71,0-1.06,0a10.69,10.69,0,0,0-1.07.07c-.35.05-.71.11-1.07.19s-.7.19-1.05.3l0-.09a8,8,0,0,1,1-.52,8.27,8.27,0,0,1,1.07-.37,8.91,8.91,0,0,1,2.26-.31,9.73,9.73,0,0,1,2.29.28,8.53,8.53,0,0,1,2.16.87l.22.12,0,.25a6.3,6.3,0,0,1,0,1.82,6.78,6.78,0,0,1-.47,1.74,8.84,8.84,0,0,1-.85,1.55,10.32,10.32,0,0,1-1.1,1.35,14.86,14.86,0,0,1-2.68,2.12c-.48.29-1,.6-1.47.85a8.9,8.9,0,0,1-1.59.61,3.94,3.94,0,0,1-1.75.1,2.75,2.75,0,0,1-1.58-.93,3.41,3.41,0,0,1-.75-1.69,6.38,6.38,0,0,1,0-1.77,23.54,23.54,0,0,1,.71-3.32c.28-1.08.58-2.16.94-3.22Z" transform="translate(-482.72 -354)"/>
    <path d="M678.35,397.54s0,.41-.07,1.12a13,13,0,0,0,0,2.84,4.91,4.91,0,0,0,.2.86,5.29,5.29,0,0,0,.37.82,3.69,3.69,0,0,0,1.32,1.46,2.22,2.22,0,0,0,2.1.11,3.57,3.57,0,0,0,1.55-1.67,13.7,13.7,0,0,0,.82-2.2c.22-.75.45-1.53.22-1.93a2.46,2.46,0,0,0-1.43-.94,14.63,14.63,0,0,0-1.81-.53,14.79,14.79,0,0,0-2.85-.31c-.7,0-1.11,0-1.11,0l0-.1a7.73,7.73,0,0,1,1.09-.32,9.63,9.63,0,0,1,3-.16,9.39,9.39,0,0,1,2,.4,4.42,4.42,0,0,1,1.09.46,2.21,2.21,0,0,1,1,1.05,2.34,2.34,0,0,1,.05,1.44,9.82,9.82,0,0,1-.39,1.18,9.46,9.46,0,0,1-1.19,2.2,5.18,5.18,0,0,1-1.89,1.66,3.25,3.25,0,0,1-2.45.11,3.79,3.79,0,0,1-1.84-1.5,4.2,4.2,0,0,1-.47-1,5.91,5.91,0,0,1-.19-1,8,8,0,0,1,.4-3c.22-.69.38-1.07.38-1.07Z" transform="translate(-482.72 -354)"/>
    <path d="M661.13,397.56s-.43-.12-1.16-.37l-3-1-2-.71-2.2-.87a17.22,17.22,0,0,0-2.42-.75,21.82,21.82,0,0,0-2.58-.42l-2.6-.23c-.85-.09-1.7-.14-2.51-.2l-4.46-.25c-1.31-.05-2.41-.1-3.18-.12s-1.22-.06-1.22-.06v-.1s.43-.1,1.2-.24c.38-.08.85-.13,1.39-.2s1.15-.12,1.81-.15,1.39-.07,2.15-.05,1.57.07,2.4.14,1.68.2,2.54.36,1.73.35,2.59.57c1.71.48,3.41.9,5.06,1.2.81.19,1.61.32,2.33.56a20.88,20.88,0,0,1,2,.75,21.87,21.87,0,0,1,2.87,1.45c.66.4,1,.66,1,.66Z" transform="translate(-482.72 -354)"/>
    <path class="n" d="M668.46,400.93a1.59,1.59,0,1,0-2.12-2.38" transform="translate(-482.72 -354)"/>
    <path class="m" d="M668.55,401.92a5.75,5.75,0,0,1,.27-2.31,10.36,10.36,0,0,1-2.36-.19" transform="translate(-482.72 -354)"/>
    <path d="M626.81,429.39c-.26.77-.54,1.52-.83,2.28l-.83,2.25c-.27.75-.54,1.51-.83,2.25s-.53,1.51-.83,2.25-.59,1.49-.88,2.24-.57,1.5-.82,2.27a38.11,38.11,0,0,0-1.14,4.68c-.27,1.58-.5,3.17-.73,4.75l-.32,2.38c-.08.8-.17,1.59-.27,2.38l-.5,4.77c-.07.8-.12,1.6-.21,2.4s-.11,1.6-.19,2.4l-.09.84-.25-.78c-.14-.45-.29-.89-.41-1.35l.09,0c.22.41.43.83.64,1.25l-.33.07c-.06-.81-.08-1.61-.12-2.42s0-1.62,0-2.43c0-1.62.13-3.23.31-4.84s.47-3.2.76-4.79l.53-2.37.63-2.34c.24-.77.45-1.55.64-2.33s.44-1.55.62-2.34.39-1.57.58-2.35.41-1.56.65-2.34a45.33,45.33,0,0,1,1.77-4.51l1.07-2.18c.39-.71.78-1.41,1.2-2.1Z" transform="translate(-482.72 -354)"/>
    <path d="M623,430.08c1-.09,2-.13,3-.2v.46a16,16,0,0,0-2,.17c-.63.1-1.32.23-1.94.38s-1.26.33-1.86.54-1.2.46-1.78.73-1.14.58-1.69.9l-.81.5-.79.54q-.78.55-1.51,1.18t-1.37,1.35l-.35-.36q2-1.39,3.86-2.89c1.26-1,2.51-2,3.74-3.05a7.29,7.29,0,0,0,1.57-1.69,2.67,2.67,0,0,0,.35-2,7.61,7.61,0,0,0-.92-2.06l-1.23-2.08q-2.48-4.14-4.75-8.4c-.76-1.42-1.53-2.83-2.26-4.26s-1.47-2.86-2.17-4.32l.09,0q1.34,2,2.62,4.06c.87,1.36,1.69,2.74,2.52,4.11q2.51,4.12,4.83,8.36l1.17,2.11a7.6,7.6,0,0,1,.93,2.37,3.35,3.35,0,0,1-.59,2.57,8.06,8.06,0,0,1-1.83,1.71c-1.31.94-2.59,1.91-3.87,2.89s-2.52,2-3.74,3.05l-.35-.36q.61-.78,1.3-1.51t1.47-1.35a17.91,17.91,0,0,1,1.64-1.15l.87-.5.9-.43q.92-.4,1.87-.71t1.93-.5a19.29,19.29,0,0,1,2-.25,18.89,18.89,0,0,1,2,0v.46c-.92-.05-1.76-.09-2.76-.16Z" transform="translate(-482.72 -354)"/>
    <path class="m" d="M648.85,427.36a6.33,6.33,0,0,0-5.91,5.11" transform="translate(-482.72 -354)"/>
    <path d="M641.43,434a4.64,4.64,0,0,1-.42.46,3,3,0,0,1-.55.45,4.41,4.41,0,0,1-.81.47,4.68,4.68,0,0,1-1,.36,5.74,5.74,0,0,1-1.22.09,18.13,18.13,0,0,0-2.61.07,6.68,6.68,0,0,1-1.35-.05,9.46,9.46,0,0,1-1.29-.28,6,6,0,0,1-1.14-.48,5.72,5.72,0,0,1-.93-.6,4.77,4.77,0,0,1-.69-.63,3.31,3.31,0,0,1-.46-.55c-.23-.33-.34-.52-.34-.52l.07-.07s.21.1.53.3c.16.1.36.21.59.33a8.47,8.47,0,0,0,.76.39c.55.29,1.22.55,1.93.86.36.13.73.29,1.13.4l1.21.37a4.86,4.86,0,0,0,1.26.16,3.86,3.86,0,0,0,1.22-.22l1.07-.4c.34-.12.67-.19,1-.3s.57-.18.81-.26.46-.14.64-.22a4.64,4.64,0,0,1,.59-.18Z" transform="translate(-482.72 -354)"/>
    <path d="M647.88,429.1c-.33-.32.09-.92.58-.86a1.71,1.71,0,0,1,1,.57,7.59,7.59,0,0,1,.67.71,5.49,5.49,0,0,1,.59.8,10.67,10.67,0,0,1,.8,1.81c.24.6.5,1.19.8,1.78a13.22,13.22,0,0,1,.76,1.82,13.67,13.67,0,0,1,.42,1.94,8.87,8.87,0,0,1,0,2,9.27,9.27,0,0,1-.4,1.94l-.47,1.54,0-1.54c0-.36,0-.72,0-1.09l.1,0c.14.34.28.67.39,1h-.51v-.95c0-.31,0-.63,0-.94s0-.62-.05-.93,0-.62-.07-.93a16.31,16.31,0,0,0-.2-1.85c-.1-.62-.17-1.25-.32-1.87a5.78,5.78,0,0,0-.74-1.75c-.36-.53-.78-1-1.17-1.49l-1.11-1.51a1.71,1.71,0,0,0-.51-.56.29.29,0,0,0-.42.3Z" transform="translate(-482.72 -354)"/>
    <path d="M646.35,435.15s0,.61,0,1.67c0,.53,0,1.17-.05,1.91s-.07,1.57-.12,2.48-.13,1.89-.24,2.92-.3,2.12-.45,3.24-.33,2.29-.41,3.47a15.54,15.54,0,0,0,.12,3.57c.41,2.33,1.5,4.5,1.9,6.86a7.24,7.24,0,0,1-.19,3.45,12.8,12.8,0,0,1-1.35,2.73c-.47.78-.88,1.48-1.18,2.12a5.83,5.83,0,0,0-.52,1.75,1.81,1.81,0,0,1-.2.75.5.5,0,0,1-.3.22.37.37,0,0,1-.37-.52.19.19,0,0,1,.14-.06v.1s-.15,0,0,.22a.16.16,0,0,0,.11,0,.25.25,0,0,0,.13-.14,1.61,1.61,0,0,0,0-.63,5.7,5.7,0,0,1,.32-2,15.6,15.6,0,0,1,1-2.31,16.61,16.61,0,0,0,1.11-2.58,7.45,7.45,0,0,0,.17-3,25.41,25.41,0,0,0-.76-3.34,17.06,17.06,0,0,1-.65-3.61,28.31,28.31,0,0,1,.12-3.65c.1-1.19.17-2.36.19-3.5s0-2.24.12-3.27.18-2,.27-2.92.2-1.73.31-2.46.19-1.37.28-1.89c.18-1,.3-1.64.3-1.64Z" transform="translate(-482.72 -354)"/>
    <path d="M660,442.42a.19.19,0,0,1,0-.11.31.31,0,0,1,.2-.28.44.44,0,0,1,.25,0,.4.4,0,0,1,.28.19.9.9,0,0,1,0,.72,14.1,14.1,0,0,1-.57,1.52c-.24.57-.55,1.2-.88,1.87l-1.1,2.15-.6,1.16-.56,1.26a15.26,15.26,0,0,0-.83,2.75,24.42,24.42,0,0,0-.38,3c-.11,2-.29,4-.55,5.9a22.55,22.55,0,0,1-.54,2.71,15.33,15.33,0,0,1-.81,2.36,13.2,13.2,0,0,1-.95,1.88c-.35.52-.66,1-.94,1.32-.61.66-1,1-1,1l-.08-.07s.26-.44.72-1.18c.19-.39.45-.85.7-1.4s.5-1.17.7-1.89a10,10,0,0,0,.32-1.1c.09-.39.22-.78.3-1.2.18-.83.35-1.71.53-2.62s.32-1.88.48-2.85.34-2,.55-3l.62-3c.21-1,.41-1.93.62-2.87a16.2,16.2,0,0,1,.87-2.62c.36-.8.77-1.52,1.14-2.17l1-1.77.77-1.36c.19-.37.09-.59-.12-.53s-.13.15-.13.16Z" transform="translate(-482.72 -354)"/>
    <path class="m" d="M652.19,493.89c-.44-.34-.91.4-1,1a74.14,74.14,0,0,0-.6,8.42" transform="translate(-482.72 -354)"/>
    <path class="m" d="M645.39,473.68a12.22,12.22,0,0,0-4.18,9.93" transform="translate(-482.72 -354)"/>
    <path d="M676.88,401.24l0,.25a5.58,5.58,0,0,0-.11.69c0,.3,0,.66,0,1.07a13.31,13.31,0,0,0,.1,1.39c0,.51.14,1.07.21,1.67s.08,1.25.09,1.92,0,1.37-.06,2.08a7.58,7.58,0,0,1-.45,2.13,3.4,3.4,0,0,1-1.47,1.75,4.22,4.22,0,0,1-2.23.49,6.22,6.22,0,0,1-2-.43,11.4,11.4,0,0,1-1.6-.76,13.73,13.73,0,0,1-2.14-1.5,9.19,9.19,0,0,1-.71-.68l.06-.08.88.43c.55.28,1.34.64,2.3,1a12.4,12.4,0,0,0,3.27,1,3.4,3.4,0,0,0,1.73-.22,3.25,3.25,0,0,0,1.41-1.23,4.3,4.3,0,0,0,.63-1.91,6,6,0,0,0-.17-2c-.13-.64-.32-1.26-.43-1.86a12.69,12.69,0,0,1-.19-1.73,6.59,6.59,0,0,1,.38-2.62,4.88,4.88,0,0,1,.33-.67l.14-.22Z" transform="translate(-482.72 -354)"/>
    <path d="M666.13,422.72s-.2.54-.59,1.47c-.19.47-.45,1-.73,1.66s-.63,1.35-1,2.12a19.21,19.21,0,0,1-1.37,2.49,3,3,0,0,1-1.39,1,5.11,5.11,0,0,1-1.66.27,16,16,0,0,1-3.34-.42,19.39,19.39,0,0,1-3.28-1.1,19.1,19.1,0,0,1-3-1.66c-1-.63-1.85-1.32-2.69-2s-1.62-1.37-2.34-2.07a24.4,24.4,0,0,1-1.91-2.06,17.58,17.58,0,0,1-1.42-1.92,15.11,15.11,0,0,1-.89-1.61,11.26,11.26,0,0,1-.59-1.48l.09,0,.22.35c.13.23.34.56.63,1a24.19,24.19,0,0,0,2.61,3.14c.59.6,1.26,1.23,2,1.89l2.29,2c.8.71,1.64,1.4,2.53,2.07a29.19,29.19,0,0,0,2.79,1.89,11.81,11.81,0,0,0,3.11,1.29,8.77,8.77,0,0,0,3.23.18,3.32,3.32,0,0,0,2.39-1.25,10.85,10.85,0,0,0,.68-1.18l.64-1.18c.42-.75.81-1.44,1.17-2s.67-1.13.94-1.55c.54-.85.87-1.32.87-1.32Z" transform="translate(-482.72 -354)"/>
    <path class="o" d="M639.51,387.19a1.41,1.41,0,0,1-.09.3,2.57,2.57,0,0,1-.39.64,2.13,2.13,0,0,1-.35.33,2.58,2.58,0,0,1-.51.24,1.39,1.39,0,0,0-.5.3,1.91,1.91,0,0,0-.36.49,3.19,3.19,0,0,1-.33.52l-.37.44a3.21,3.21,0,0,1-.8.63,3.31,3.31,0,0,1-1,.38l-.07-.07a3.31,3.31,0,0,1,.47-1,3.21,3.21,0,0,1,.71-.74l.48-.33a3.19,3.19,0,0,1,.55-.27,1.91,1.91,0,0,0,.52-.31,1.38,1.38,0,0,0,.35-.47,2.58,2.58,0,0,1,.28-.49,2.13,2.13,0,0,1,.37-.31,2.57,2.57,0,0,1,.68-.33,1.41,1.41,0,0,1,.31-.06Z" transform="translate(-482.72 -354)"/>
    <path class="o" d="M640.48,382.34a7.94,7.94,0,0,1-1.39,1.77,8.49,8.49,0,0,1-.81.71,9.58,9.58,0,0,1-1,.63,7.34,7.34,0,0,0-1.08.7,10.63,10.63,0,0,0-1,.89,11.64,11.64,0,0,1-1,.9c-.34.28-.69.53-1,.78a9.92,9.92,0,0,1-1,.65c-.33.19-.66.35-1,.49a10.59,10.59,0,0,1-2.13.74l0-.09a18,18,0,0,1,1.72-1.42,21.56,21.56,0,0,1,1.87-1.24c.71-.41,1.45-.87,2.26-1.25a7.7,7.7,0,0,0,1.13-.69,5.73,5.73,0,0,0,.93-.87c.28-.31.54-.62.81-.88s.56-.47.81-.68a15,15,0,0,1,1.32-.91,4.77,4.77,0,0,1,.55-.3Z" transform="translate(-482.72 -354)"/>
    <path class="o" d="M676,382.1l.05-.28a2.73,2.73,0,0,0,0-.75,4,4,0,0,0-1.82-2.74,6.09,6.09,0,0,0-.81-.41,7.44,7.44,0,0,0-1.93-.54,7.18,7.18,0,0,0-2.23,0A15.27,15.27,0,0,0,667,378c-.75.24-1.51.47-2.27.65a15.25,15.25,0,0,1-2.31.35,7.33,7.33,0,0,1-2.24-.18,6.8,6.8,0,0,1-1.88-.74,5.48,5.48,0,0,1-1.35-1,4.48,4.48,0,0,1-.74-1.08,3.71,3.71,0,0,1-.27-.78l-.06-.28.1,0,.14.25a3.73,3.73,0,0,0,.43.64,5.43,5.43,0,0,0,2.14,1.56,8.72,8.72,0,0,0,1.71.5,10.7,10.7,0,0,0,2,.17,16.08,16.08,0,0,0,2.19-.18l2.31-.32,2.34-.33c.77-.11,1.53-.22,2.29-.26a6,6,0,0,1,2.22.26,4.19,4.19,0,0,1,1.74,1.13,3.66,3.66,0,0,1,1,2.85,2.79,2.79,0,0,1-.24.82l-.15.25Z" transform="translate(-482.72 -354)"/>
    <path d="M664.29,420.23c.2.23.39.46.58.7l.12.15-.19.09a2.69,2.69,0,0,1-.62.26,3.34,3.34,0,0,1-.64.13,6.53,6.53,0,0,1-1.28,0,10.84,10.84,0,0,1-2.49-.47,8.55,8.55,0,0,1-1.18-.47,8.72,8.72,0,0,1-1.1-.65,5.23,5.23,0,0,1-1-.84,2.29,2.29,0,0,1-.4-.52,2.25,2.25,0,0,1-.26-.62l0-.12.13,0a7.33,7.33,0,0,1,1-.38,5,5,0,0,1,1.07-.21,5.75,5.75,0,0,1,1.1,0,8.57,8.57,0,0,1,1.08.2c1.4.38,2.66,1.06,3.94,1.34a6.44,6.44,0,0,0,1,.15c.3,0,.69,0,1.09.12a3.7,3.7,0,0,1,.59.16l.12,0s0,0-.11,0a.41.41,0,0,0-.18.08l0,0h0l0-.06c.19-.28.4-.6.62-.88a4.14,4.14,0,0,0,.51-.82c.15-.29.28-.61.42-.94a3.66,3.66,0,0,1,1.28-1.75l.07.07a4.22,4.22,0,0,0-.8,1.85c-.08.34-.15.69-.27,1a5,5,0,0,1-.49,1c-.18.3-.33.57-.5.9a1.25,1.25,0,0,1-.1.16l0,0-.09.09a.57.57,0,0,1-.29.13.75.75,0,0,1-.36,0l-.13,0a2.67,2.67,0,0,0-.43-.09c-.3,0-.61,0-1-.08a6.17,6.17,0,0,1-1.12-.2,34.92,34.92,0,0,1-3.91-1.67,7.94,7.94,0,0,0-1-.34,5,5,0,0,0-1-.15,3.3,3.3,0,0,0-1,.1,4.58,4.58,0,0,0-1,.35l.08-.17a1.52,1.52,0,0,0,.24.49,1.76,1.76,0,0,0,.39.41,4.75,4.75,0,0,0,1,.6,8,8,0,0,0,1.1.43c.37.14.75.24,1.13.37s.76.23,1.14.32.77.19,1.16.24a8,8,0,0,0,1.17.13,3.81,3.81,0,0,0,1.13-.1l-.07.24c-.13-.27-.25-.54-.37-.82Z" transform="translate(-482.72 -354)"/>
    <path class="m" d="M662,392.5c-.79-.23,3.6-2,4.5-2.5" transform="translate(-482.72 -354)"/>
    <path d="M675.5,388.7a1,1,0,0,1,.72-.29.86.86,0,0,1,.34.06,1.1,1.1,0,0,1,.32.28.88.88,0,0,0,.32.27,1.32,1.32,0,0,0,.42.1,1.29,1.29,0,0,1,.44.11,2.88,2.88,0,0,1,.36.2,1.32,1.32,0,0,1,.46.54,1.68,1.68,0,0,1,.16.76l-.07.07a2.13,2.13,0,0,1-.73-.2,1.5,1.5,0,0,1-.5-.39,2.76,2.76,0,0,1-.41-.62.65.65,0,0,0-.26-.29.5.5,0,0,0-.37,0,1.74,1.74,0,0,1-.35.07,1,1,0,0,1-.27-.07,1.94,1.94,0,0,1-.41-.27,1,1,0,0,1-.17-.17Z" transform="translate(-482.72 -354)"/>
  </g>
</svg>
