<svg xmlns="http://www.w3.org/2000/svg" viewBox="0 0 375.85 259.79">
  <defs>
    <style>
      .a {
        fill: #dbdada;
      }

      .b {
        fill: #e5e3e3;
      }

      .c {
        fill: #e0e0e0;
      }

      .d {
        fill: #fff;
      }

      .e {
        fill: #ccc;
      }

      .f {
        fill: #d2d2d2;
      }

      .g {
        opacity: 0.43;
      }
    </style>
  </defs>
  <title>fireworks</title>
  <g>
    <path d="M783.44,437.1l.1,4.18,0,4.8c0,1.85,0,3.94,0,6.22s0,4.75-.09,7.36-.18,5.36-.28,8.21-.19,5.79-.25,8.78,0,6,0,9.07,0,6.08,0,9.07l-.05,8.78c0,2.85-.09,5.6-.13,8.21s-.11,5.08-.18,7.36c-.12,4.56-.29,8.35-.4,11l-.21,4.18h-.1l-.09-4.18c0-2.66-.09-6.46-.07-11,0-2.28,0-4.75,0-7.36s0-5.37.11-8.21l.21-8.78c.08-3,.18-6,.3-9.07s.2-6.08.25-9.07.06-5.94,0-8.79-.08-5.6,0-8.22.07-5.08.13-7.36.1-4.37.18-6.22l.19-4.79.22-4.18Z" transform="translate(-584.14 -284.22)"/>
    <path d="M730,362.75s-2.52,0-6.91.18-10.67.44-18.17,1.15c-3.75.37-7.8.87-12.05,1.53a97.66,97.66,0,0,0-13.22,2.9,26.1,26.1,0,0,0-6.5,2.86,5.88,5.88,0,0,0-2.35,2.58,2.45,2.45,0,0,0,0,1.71,3.94,3.94,0,0,0,.93,1.49,11.19,11.19,0,0,0,3,2.11,27.73,27.73,0,0,0,3.42,1.48,60.86,60.86,0,0,0,7.22,2A135.91,135.91,0,0,0,700,385.1c4.91.53,9.76.9,14.46,1.1s9.25.33,13.56.32,8.39-.08,12.16-.22,7.21-.36,10.26-.62,5.7-.56,7.89-.81,3.89-.5,5.06-.68l1.78-.29,0,.1-1.77.36c-1.16.23-2.86.55-5,.9-4.35.69-10.61,1.42-18.16,1.88-3.77.23-7.87.4-12.2.4s-8.9,0-13.62-.31a163.2,163.2,0,0,1-29.32-3.92,61.72,61.72,0,0,1-7.23-2.22,28.08,28.08,0,0,1-3.45-1.53,11.49,11.49,0,0,1-3.05-2.2,3.4,3.4,0,0,1-1-3.53,6.21,6.21,0,0,1,2.45-2.78,28.93,28.93,0,0,1,6.54-3.06,84.19,84.19,0,0,1,13.25-3.23c4.27-.74,8.35-1.18,12.12-1.5s7.23-.53,10.29-.62,5.74-.15,7.95-.13c4.4,0,6.92.13,6.92.13Z" transform="translate(-584.14 -284.22)"/>
    <path d="M670.11,375l.5,6.84.52,7.85.6,10.19c.21,3.73.44,7.78.63,12.06s.34,8.8.52,13.47.38,9.5.61,14.4.55,9.88.87,14.86l.92,14.86.81,14.39.67,13.46c.22,4.28.38,8.33.52,12.07l.69,18.07.2,6.86h-.1l-.49-6.84-1.13-18c-.23-3.73-.49-7.78-.7-12.06l-.69-13.46-.65-14.4-.59-14.87c-.18-5-.39-10-.63-14.87s-.52-9.73-.84-14.39-.62-9.18-.84-13.46-.43-8.33-.59-12.06l-.43-10.2-.28-7.87L670,375Z" transform="translate(-584.14 -284.22)"/>
    <path class="a" d="M696.8,525.47a21,21,0,0,0-2.39-4.6c-.9-1.14-2.39-1.77-3.22-2.87-2.08-2.74-.94-6.83-.42-9.9h-9.49c1.86,4.43,2.09,9.4,4.31,13.7,2.57,5,6.9,7.13,12.32,7.68,5.63.57,5.84-7.5,1.25-9.22-3-1.11-4-5.9-4.74-8.55-1.13-4-2.3-8.09-3.22-12.15-2.68-11.94-2.82-24.59-3-36.78-.27-24.48,1-49-2.55-73.27-1-6.81-11.49-4-10.4,2.87,4.34,27.1,1.92,54.62,3.21,81.92a164.7,164.7,0,0,0,5.3,35.61c2.15,8,4.25,16.38,12.85,19.42l2.5-9.06c-7.21-1.1-6.16-9.24-8.39-14.78-1.65-4.09-8.32-5.23-9.49,0s-2.7,10.87-.26,15.92a13.91,13.91,0,0,0,5,5.61c2.86,1.88,5.14,1.12,8.23,1.75a2.28,2.28,0,0,0,2.54-3.31Z" transform="translate(-584.14 -284.22)"/>
    <path class="b" d="M716.69,526.91c-1.49-1.08-2.27-2.59-3.63-3.78-1-.88-2.13-1.56-3.11-2.5a26.48,26.48,0,0,1-5.44-8.36c-3.66-8-4.21-16.95-8.14-24.74-3.06-6.07-10.72-2.26-11.43,3.1-1.71,13,2.23,27.31,11.15,37.06,4.6,5,13.9-1.83,9.62-7.43-3.26-4.26-7.61-7.07-11-11.09-3.66-4.33-4.2-11.83-4.48-17.25-.38-7.35-11.76-7.44-11.51,0,.22,6.34.85,12.63,3.86,18.31,2,3.83,9.06,3.33,9.81-1.28,1.5-9.2-.14-18.61-1.88-27.68a155.84,155.84,0,0,1-2.72-29.3c-.07-20.64,1.06-41.26,1.07-61.89,0-6.76-10.48-6.77-10.5,0-.06,20-1,39.94-.55,59.93.2,9.26.61,18.43,2.31,27.55,1.81,9.72,4,18.67,1.93,28.54l9.81-1.28c-2-4-1.87-8.56-1.62-12.89H678.72c.19,7,1.11,15,4.47,21.26,2.9,5.38,9.34,8,11.95,13.27l10.58-6.19c-2.72-4.5-5.48-8.85-6.94-14s-1.58-10.36-1.56-15.68l-11.43,3.1c2.27,4.25,2.52,9.23,4.39,13.65a92.07,92.07,0,0,0,7.36,13.42,26.25,26.25,0,0,0,7,7.71,19.7,19.7,0,0,0,4.11,2.23c2,.75,4,.45,6,1.06,3.07.92,4.39-3.2,2.06-4.88Z" transform="translate(-584.14 -284.22)"/>
    <path class="c" d="M699.79,377c-4.95-.18-10.71-1.08-14.85-4l.58,4.47c1.34-1.52,3-1.65,4.94-1.67,4,0,5.08-6.25,1-7.13-4.72-1-8.58.33-12.89,2.17-4.48,1.91-2.43,8.08,1.23,9.41a33.4,33.4,0,0,0,11.38,1.89c5.8,0,6.17-7.63,1.29-9.54a14.48,14.48,0,0,1-2.43-1.7l.92,7.11a19.25,19.25,0,0,1,4.82-2.88c4-1.78,1.42-7.1-2-7.46-5.46-.57-13.68,2.42-12,9.34,1.47,5.88,9.57,6,14.45,5.48,3-.32,4.62-4.29,1.64-6a34.1,34.1,0,0,1-5-3.56,3.19,3.19,0,0,0-5.26,1.39c-3.23,8.9,10.19,9.19,15.39,10.39,3.58.83,4.83-4.15,1.5-5.42a39.53,39.53,0,0,0-6.08-1.37c-1.15-.24-2.28-.53-3.41-.88-1.39-.43-1.61-.32-1.33-1.05l-5.26,1.39a44.77,44.77,0,0,0,6.22,4.71l1.64-6a36.42,36.42,0,0,1-5.86-.7,6,6,0,0,1-1.22-.4q-.95-.51.27.93c.82.23,2.18-.59,3.25-.31v-7.72a27.26,27.26,0,0,0-7.23,3.08,4.57,4.57,0,0,0-.92,7.11,22.63,22.63,0,0,0,4.17,3.47l2.45-9a32.81,32.81,0,0,1-8.64-2.11l1.23,9.41c2.8-1.58,5.75-2.87,8.56-4.42l-2.8-6.63c-3.45,1.23-6.44,2.07-8.45,5.35a2.87,2.87,0,0,0,1,3.9c5.07,2.38,13.31,5.3,18.6,2.28a1.75,1.75,0,0,0-.88-3.23Z" transform="translate(-584.14 -284.22)"/>
    <path d="M729.91,362.67s.75-1.05,2.1-2.87c.74-.86,1.71-1.85,2.8-3,.59-.53,1.21-1.1,1.89-1.68a23.92,23.92,0,0,1,2.18-1.76l2.45-1.81c.87-.59,1.82-1.12,2.77-1.71.48-.29,1-.6,1.46-.87l1.55-.78c1.06-.51,2.1-1.1,3.22-1.57s2.26-1,3.39-1.49,2.34-.92,3.51-1.42l1.78-.73,1.82-.65c1.21-.44,2.42-.91,3.65-1.34,2.47-.78,4.92-1.64,7.41-2.23,1.24-.31,2.46-.65,3.68-.92l3.63-.76c.6-.12,1.18-.26,1.77-.36l1.76-.26,3.39-.51c2.21-.3,4.32-.45,6.25-.64s3.72-.2,5.3-.26,2.79,0,3.93,0l3.4.07v.1l-3.39.23c-1.13.09-2.42.09-4,.27l-5.22.48-6.17.78c-2.18.37-4.49.65-6.86,1.13l-3.61.68c-1.22.24-2.43.56-3.67.83-2.49.52-5,1.26-7.46,1.9S759.7,343,757.35,344c-1.18.48-2.35.93-3.48,1.47s-2.22,1.09-3.3,1.63-2.09,1.17-3.11,1.73-2,1.13-2.92,1.74l-2.72,1.72L739.37,354a23.38,23.38,0,0,0-2.18,1.69c-.67.57-1.33,1.08-1.94,1.57l-2.91,2.81c-1.48,1.71-2.35,2.67-2.35,2.67Z" transform="translate(-584.14 -284.22)"/>
    <path d="M725.42,375.46a6,6,0,0,1-.24-2.19,6.66,6.66,0,0,1,.14-1.06,7.25,7.25,0,0,1,.4-1.12,9.45,9.45,0,0,0,.44-1.18c.13-.41.2-.84.3-1.27a8.36,8.36,0,0,1,.33-1.27c.14-.41.3-.8.46-1.18a9.68,9.68,0,0,1,1.15-1.93,8.8,8.8,0,0,1,1.52-1.59l.08.06s-.07.22-.21.57-.36.85-.63,1.43-.59,1.24-1,1.93-.77,1.44-1.21,2.18a5.88,5.88,0,0,0-.52,1.17,4.48,4.48,0,0,0-.2,1.22c0,.4,0,.79-.06,1.15s-.12.69-.16,1c-.12.62-.23,1.13-.33,1.51a4.55,4.55,0,0,1-.18.59Z" transform="translate(-584.14 -284.22)"/>
    <path d="M734.3,362.58s.77-.95,2.16-2.57c.73-.78,1.71-1.66,2.78-2.71.57-.49,1.19-1,1.85-1.51s1.34-1.09,2.11-1.59l2.38-1.62c.82-.55,1.75-1,2.66-1.55l1.4-.79c.48-.25,1-.47,1.48-.7,1-.46,2-1,3.07-1.42,2.14-.84,4.3-1.81,6.57-2.61,1.12-.44,2.24-.9,3.41-1.26l3.45-1.22c2.34-.71,4.66-1.51,7-2l3.48-.85,3.43-.68,1.68-.33,1.66-.24,3.21-.46c2.08-.29,4.07-.41,5.9-.58s3.51-.17,5-.23,2.69,0,3.76,0l3.26.08v.1l-3.25.22c-1.06.08-2.31.1-3.79.26s-3.12.25-4.94.45-3.76.44-5.83.72-4.25.59-6.48,1l-3.41.61-3.47.76c-1.17.24-2.35.5-3.52.82l-3.54.89c-2.33.71-4.68,1.36-6.91,2.25a70.09,70.09,0,0,0-6.45,2.81c-2,1.08-4,2.08-5.75,3.16-.89.54-1.78,1-2.61,1.55l-2.38,1.54c-.78.47-1.45,1-2.12,1.52l-1.89,1.4-2.9,2.49c-1.51,1.51-2.39,2.36-2.39,2.36Z" transform="translate(-584.14 -284.22)"/>
    <path d="M728.58,376.74a.94.94,0,0,1,0,.24.88.88,0,0,1-.31.47.8.8,0,0,1-.32.17,1,1,0,0,1-.42,0,.9.9,0,0,0-.41,0,1.35,1.35,0,0,0-.4.15,1.16,1.16,0,0,1-.44.13,2.13,2.13,0,0,1-.43,0,1,1,0,0,1-.38-.14,1.17,1.17,0,0,1-.29-.23,1.12,1.12,0,0,1-.28-.5,1.07,1.07,0,0,1,0-.23l.07-.07s.36,0,.69,0a1.46,1.46,0,0,1,.51.14,3.49,3.49,0,0,1,.59.33.59.59,0,0,0,.35.1.45.45,0,0,0,.31-.18,2,2,0,0,1,.23-.25.92.92,0,0,1,.23-.1,3.62,3.62,0,0,1,.44,0,.94.94,0,0,1,.24,0Z" transform="translate(-584.14 -284.22)"/>
  </g>
  <g>
    <path d="M677.37,538.75a8.13,8.13,0,0,1-1.6-1.12,9.14,9.14,0,0,1-2.86-5.15l-.26-1.5,1,1.12a10.4,10.4,0,0,0,1.09,1,7.9,7.9,0,0,0,1.27.83,6.47,6.47,0,0,0,3,.79l-.15.13c.13-1.07.24-2.14.42-3.2a22.78,22.78,0,0,1,.73-3.17l.87-2.83,0,3c0,.69,0,1.38.06,2.07s.16,1.37.28,2a24.64,24.64,0,0,0,1.07,4l-.84,0a11.77,11.77,0,0,1,1.16-2.32,11.34,11.34,0,0,1,1.61-2l.13-.13.07.14.34.65-.08.06-.47-.56h.2a16.39,16.39,0,0,0-1.24,2.15,15.72,15.72,0,0,0-.87,2.28l-.32,1.15-.53-1.11a15.72,15.72,0,0,1-1.29-4.15,18.16,18.16,0,0,1-.16-4.34l.85.16a25.26,25.26,0,0,0-1.67,6.12V535H679a10.14,10.14,0,0,1-3.18-.58A7.44,7.44,0,0,1,673,532.7l.76-.39a11,11,0,0,0,1.29,3.43,11.5,11.5,0,0,0,1.06,1.54c.2.24.4.48.62.71l.68.67Z" transform="translate(-584.14 -284.22)"/>
    <path d="M644.21,531.07c-.86-.61-1.71-1.21-2.6-1.76s-1.78-1.1-2.7-1.59-1.85-.95-2.79-1.39-1.9-.83-2.88-1.19l.56-.52a10.94,10.94,0,0,0,1,2.26,9.89,9.89,0,0,0,1.52,2l1,1-1.38-.29c-1.17-.25-2.34-.5-3.52-.66s-2.38-.29-3.58-.36-2.4,0-3.6,0a33.6,33.6,0,0,0-3.58.44l0-.34,1.34.62.52.24-.56.14-2.4.59-2.43.43-2.46.27-2.47.14q-2.47.06-4.93,0t-4.9-.14c-1.63,0-3.26-.11-4.88-.13h-2.43l-2.43.1-2.42.22-2.4.37-2.37.54-2.33.74,0-.09,2.27-1c.78-.25,1.57-.51,2.36-.74l2.42-.53c.81-.13,1.63-.25,2.45-.35l2.46-.2,2.47-.1c1.64,0,3.29,0,4.92.06l4.9.2c1.63.07,3.25.09,4.88.1l2.43,0,2.43-.15,2.42-.28,2.39-.46,0,.38-1.32-.66-.51-.25.56-.08q.9-.13,1.8-.23l1.81-.16c1.21-.1,2.42-.14,3.63-.14s2.43,0,3.64.13a32.82,32.82,0,0,1,3.62.48l-.38.71a10.75,10.75,0,0,1-1.69-2.1,9.88,9.88,0,0,1-1.08-2.47l-.25-.84.81.32a34.74,34.74,0,0,1,5.68,2.83,32.42,32.42,0,0,1,5,3.81Z" transform="translate(-584.14 -284.22)"/>
  </g>
  <g>
    <path d="M774.94,458.87a13.67,13.67,0,0,1,2.52-1c.39-.1.81-.22,1.26-.3s.94-.1,1.44-.15a9.37,9.37,0,0,0,1.53-.23,13,13,0,0,0,1.53-.47c.51-.18,1-.38,1.52-.52l1.49-.41a22.28,22.28,0,0,1,2.68-.53c.8-.11,1.47-.16,1.94-.19s.75,0,.75,0l0,.1s-.25.12-.68.31-1.07.42-1.83.67a22.27,22.27,0,0,1-2.65.67l-1.52.27c-.52.09-1.06.13-1.59.19a13,13,0,0,0-1.58.23,9.36,9.36,0,0,0-1.48.45c-.47.17-.93.36-1.37.48s-.87.2-1.26.27A13.66,13.66,0,0,1,775,459Z" transform="translate(-584.14 -284.22)"/>
    <path d="M779.22,477.8a13.67,13.67,0,0,1,2.52-1c.39-.1.81-.22,1.26-.3s.94-.1,1.44-.15a9.37,9.37,0,0,0,1.53-.23,13,13,0,0,0,1.53-.47c.51-.18,1-.38,1.52-.52l1.49-.41a22.27,22.27,0,0,1,2.68-.53c.8-.11,1.47-.16,1.94-.19s.75,0,.75,0l0,.1s-.25.12-.68.31-1.07.42-1.83.67a22.28,22.28,0,0,1-2.65.67l-1.52.27c-.52.09-1.06.13-1.59.19a13,13,0,0,0-1.58.23,9.36,9.36,0,0,0-1.48.45c-.47.17-.93.36-1.37.48s-.87.2-1.26.27a13.66,13.66,0,0,1-2.69.22Z" transform="translate(-584.14 -284.22)"/>
    <path d="M784,499.1a13.66,13.66,0,0,1,2.52-1c.39-.1.81-.22,1.26-.3s.94-.1,1.44-.15a9.36,9.36,0,0,0,1.53-.23,13,13,0,0,0,1.53-.47c.51-.18,1-.38,1.52-.52l1.49-.41a22.27,22.27,0,0,1,2.68-.53c.8-.11,1.47-.16,1.94-.19s.75,0,.75,0l0,.1s-.25.12-.68.31-1.07.42-1.83.67a22.27,22.27,0,0,1-2.65.67l-1.52.27c-.52.09-1.06.13-1.59.19a13,13,0,0,0-1.58.23,9.37,9.37,0,0,0-1.48.45c-.47.17-.93.36-1.37.48s-.87.2-1.26.27a13.67,13.67,0,0,1-2.69.22Z" transform="translate(-584.14 -284.22)"/>
    <path d="M788.31,425.51l1.13,4.83,1.23,5.56c.48,2.15,1,4.58,1.53,7.22s1.15,5.52,1.72,8.56,1.15,6.27,1.75,9.59,1.24,6.76,1.93,10.25,1.45,7,2.22,10.53,1.54,7,2.27,10.52l2.12,10.21c.69,3.31,1.29,6.52,1.9,9.56s1.14,5.92,1.64,8.58c1,5.32,1.78,9.76,2.32,12.87l.83,4.89-.1,0-1.12-4.83c-.69-3.08-1.68-7.48-2.79-12.78-.56-2.65-1.18-5.51-1.78-8.55s-1.28-6.24-1.92-9.56l-2-10.24c-.66-3.49-1.31-7-1.94-10.59s-1.3-7.1-2-10.58-1.41-6.9-2.15-10.2-1.46-6.49-2.06-9.53-1.19-5.91-1.69-8.57-1-5.09-1.36-7.26l-1-5.61-.81-4.9Z" transform="translate(-584.14 -284.22)"/>
    <path d="M763.49,417l1.17,5.43,1.27,6.24c.5,2.41,1,5.13,1.58,8.11s1.2,6.19,1.79,9.61,1.2,7,1.83,10.75,1.3,7.58,2,11.49,1.5,7.86,2.31,11.82l2.35,11.81,2.2,11.45,2,10.73c.63,3.41,1.19,6.64,1.7,9.62,1,6,1.86,10.94,2.43,14.43L787,544l-.1,0-1.15-5.43c-.72-3.46-1.74-8.4-2.89-14.34-.59-3-1.22-6.19-1.85-9.6l-2-10.72-2-11.48-2-11.87c-.66-4-1.36-8-2.07-11.86s-1.47-7.74-2.23-11.45-1.51-7.29-2.14-10.7-1.23-6.63-1.76-9.61-1-5.71-1.42-8.14l-1-6.28-.85-5.48Z" transform="translate(-584.14 -284.22)"/>
    <path d="M784,436.28a.86.86,0,0,1,.09-.18.82.82,0,0,1,.28-.28.46.46,0,0,1,.21-.06.84.84,0,0,1,.28.11.37.37,0,0,0,.28.06.51.51,0,0,0,.24-.17,1,1,0,0,1,.23-.22l.24-.13a.72.72,0,0,1,.47,0,1.38,1.38,0,0,1,.53.29l0,.1a1.38,1.38,0,0,1-.37.48.72.72,0,0,1-.44.17l-.28,0a1,1,0,0,1-.3-.11.51.51,0,0,0-.29-.06.37.37,0,0,0-.24.17c-.07.08-.13.18-.21.22a.46.46,0,0,1-.22,0,.82.82,0,0,1-.37-.14.85.85,0,0,1-.16-.13Z" transform="translate(-584.14 -284.22)"/>
    <path d="M770.26,439.16a1.11,1.11,0,0,1,.18-.2,1.73,1.73,0,0,1,.51-.32,1.32,1.32,0,0,1,.37-.09,1.74,1.74,0,0,1,.45.08.9.9,0,0,0,.47,0,1.24,1.24,0,0,0,.43-.21,2.12,2.12,0,0,1,.42-.26l.43-.17a2,2,0,0,1,.8-.09,2.35,2.35,0,0,1,.85.23l0,.1a2.35,2.35,0,0,1-.69.55,2,2,0,0,1-.77.24l-.46,0a2.12,2.12,0,0,1-.49-.07,1.24,1.24,0,0,0-.48,0,.9.9,0,0,0-.42.21,1.74,1.74,0,0,1-.38.25,1.32,1.32,0,0,1-.37.06,1.72,1.72,0,0,1-.6-.09,1.1,1.1,0,0,1-.24-.11Z" transform="translate(-584.14 -284.22)"/>
  </g>
  <g>
    <path d="M780.94,369.64a.9.9,0,0,1,.5.34.48.48,0,0,1,.08.22.83.83,0,0,1-.1.29.4.4,0,0,0,0,.29.55.55,0,0,0,.18.25,1,1,0,0,1,.22.25,2.32,2.32,0,0,1,.13.26.75.75,0,0,1,0,.5,1.28,1.28,0,0,1-.33.52h-.1a1.53,1.53,0,0,1-.45-.41.73.73,0,0,1-.14-.45c0-.09,0-.18,0-.27a1,1,0,0,1,.11-.3.49.49,0,0,0,.06-.29.36.36,0,0,0-.18-.23.89.89,0,0,1-.23-.2.46.46,0,0,1,0-.21.89.89,0,0,1,.11-.38.86.86,0,0,1,.12-.17Z" transform="translate(-584.14 -284.22)"/>
    <path d="M780.55,370.17a.85.85,0,0,1,.18.08.77.77,0,0,1,.27.26.41.41,0,0,1,.06.2.79.79,0,0,1-.12.26.34.34,0,0,0-.06.27c0,.08.1.15.17.23a.91.91,0,0,1,.22.22,2.23,2.23,0,0,1,.13.23c.07.15.07.33,0,.31l-.16,0a.13.13,0,0,0,0,.12.1.1,0,0,0,.1.09l.09,0s.07.1-.06.25a.4.4,0,0,1-.3.12.63.63,0,0,1-.41-.2,1,1,0,0,1-.19-.31.46.46,0,0,1,0-.23,2.22,2.22,0,0,1,0-.26.91.91,0,0,1,.11-.29.46.46,0,0,0,.06-.28.34.34,0,0,0-.17-.22c-.08-.06-.18-.12-.22-.19a.41.41,0,0,1,0-.21.77.77,0,0,1,.14-.35.85.85,0,0,1,.13-.15Z" transform="translate(-584.14 -284.22)"/>
    <path d="M780.33,370.63a.85.85,0,0,1,.15.14.8.8,0,0,1,.17.35.43.43,0,0,1,0,.22.82.82,0,0,1-.2.22.35.35,0,0,0-.15.24.48.48,0,0,0,.09.28.94.94,0,0,1,.13.28,2.36,2.36,0,0,1,0,.26.68.68,0,0,1-.13.44,1.35,1.35,0,0,1-.45.39h-.1a1.35,1.35,0,0,1-.34-.49.68.68,0,0,1,0-.46,2.36,2.36,0,0,1,.11-.25.94.94,0,0,1,.2-.24.48.48,0,0,0,.15-.25.35.35,0,0,0-.08-.27.82.82,0,0,1-.14-.26.43.43,0,0,1,0-.21.79.79,0,0,1,.25-.29.85.85,0,0,1,.18-.1Z" transform="translate(-584.14 -284.22)"/>
    <path d="M780.34,368.87a.85.85,0,0,1,.19.06,1,1,0,0,1,.29.19.35.35,0,0,1,.08.16.89.89,0,0,1-.06.26.29.29,0,0,0,0,.26c0,.07.14.1.23.14a1.14,1.14,0,0,1,.47.21.56.56,0,0,1,.21.33,1.9,1.9,0,0,1,0,.56l-.06.08a1,1,0,0,1-.6,0A.76.76,0,0,1,781,371a.5.5,0,0,1-.17-.19,1.69,1.69,0,0,1-.11-.26.81.81,0,0,1,0-.32.54.54,0,0,0,0-.29.38.38,0,0,0-.23-.17.71.71,0,0,1-.26-.15.42.42,0,0,1-.08-.21.73.73,0,0,1,.21-.54Z" transform="translate(-584.14 -284.22)"/>
    <path d="M780.77,368.81s0,0,0,0a.14.14,0,0,0,0,.13s.11.09.21,0,.06-.19.07-.2,0,0,.07.06a.63.63,0,0,1,0,.24.23.23,0,0,0,0,.22c0,.05.13.06.22.07a.7.7,0,0,1,.25,0l.18.09a.38.38,0,0,1,.16.3,1.21,1.21,0,0,1-.09.5l-.08.07a1.21,1.21,0,0,1-.51,0,.38.38,0,0,1-.27-.2,1.39,1.39,0,0,1-.06-.19.7.7,0,0,1,0-.26c0-.09,0-.18,0-.23a.23.23,0,0,0-.21-.07.64.64,0,0,1-.24,0s-.08-.08-.13-.19a.54.54,0,0,1,0-.46.3.3,0,0,1,.36-.16.23.23,0,0,1,.17.17c0,.08,0,.06,0,.07Z" transform="translate(-584.14 -284.22)"/>
    <path d="M781.63,367.62a.36.36,0,0,0-.25,0c-.05,0-.07.08-.06.1l.36-.37a.58.58,0,0,1-.11.66.53.53,0,0,0,0,.67,1.68,1.68,0,0,1,.17.33,3.15,3.15,0,0,1,.08.33,1.1,1.1,0,0,1-.1.67l-.54-.37c-.1.13.14.2.24,0l.09-.05a.47.47,0,0,1-.08.84l-.3.16-.24-.53a1.14,1.14,0,0,1-.1-.68,3.37,3.37,0,0,1,.08-.35,1.7,1.7,0,0,1,.17-.35.55.55,0,0,0,0-.68.87.87,0,0,1-.17-.35.8.8,0,0,1,.05-.34L781,367l.22,0a.54.54,0,0,1,.39.21.38.38,0,0,1,.07.38Z" transform="translate(-584.14 -284.22)"/>
    <path d="M781.26,367.13a.9.9,0,0,1,.12.14c.05.1.13.15.16.23s0,.07,0,.11a1.1,1.1,0,0,1-.17.13c-.07.05-.12.12-.1.17s.08.1.15.14a1,1,0,0,1,.33.17c.07.05.07.13.07.23s-.07.47-.07.47l-.06.08a.72.72,0,0,1-.54,0,.55.55,0,0,1-.19-.12.38.38,0,0,1-.12-.2,1,1,0,0,1,0-.25.58.58,0,0,1,.08-.28A.46.46,0,0,0,781,368a.31.31,0,0,0-.14-.2c-.07-.07-.15-.14-.16-.22a.31.31,0,0,1,0-.2.46.46,0,0,1,.28-.22.9.9,0,0,1,.18,0Z" transform="translate(-584.14 -284.22)"/>
    <path d="M781.3,368.33c.38.12.51.27.58.48a1.32,1.32,0,0,1-.1.38.29.29,0,0,0,.11.3c.1.07.23.13.34.19a1.87,1.87,0,0,1,.24.23.78.78,0,0,1,.15.64l-.23-.15c-.14,0-.16.13-.12.16s.1.06.14,0l.07-.07c.11,0,.16.14.16.26a.33.33,0,0,1-.34.29l-.23-.15a.78.78,0,0,1-.51-.49,1.61,1.61,0,0,1-.06-.35c0-.13,0-.27.05-.4a.32.32,0,0,0-.16-.3c-.12-.07-.28-.13-.34-.23a.69.69,0,0,1,.15-.76Z" transform="translate(-584.14 -284.22)"/>
    <path d="M782.13,366.39a1.45,1.45,0,0,1,.4-.1s.06,0,.06,0a.83.83,0,0,1-.06.18c0,.08,0,.13,0,.15s.09,0,.15,0a.85.85,0,0,1,.17-.08l.11,0c.06,0,.08.06.09.14a2.83,2.83,0,0,1,0,.43l0,.09a.91.91,0,0,1-.35.27.2.2,0,0,1-.24-.05.63.63,0,0,1-.07-.14.48.48,0,0,1,0-.21c0-.07,0-.15,0-.17s-.08,0-.17,0a.47.47,0,0,1-.2,0s-.05-.05-.06-.09.16-.39.16-.39Z" transform="translate(-584.14 -284.22)"/>
    <path d="M782.48,365.83a2.3,2.3,0,0,1,.39-.11s.05,0,.05,0a1.1,1.1,0,0,1-.07.17c0,.08,0,.13,0,.15s.09,0,.14,0a.68.68,0,0,1,.26-.13c.06,0,.07,0,.08.12s0,.42,0,.42l0,.1a.83.83,0,0,1-.31.32.2.2,0,0,1-.25,0,.59.59,0,0,1-.08-.13.45.45,0,0,1,0-.21c0-.07,0-.15,0-.17s-.08,0-.16,0a.44.44,0,0,1-.2,0s-.05-.06-.06-.09.18-.39.18-.39Z" transform="translate(-584.14 -284.22)"/>
    <path d="M781.77,366.72l.15.07a.42.42,0,0,1,.19.17s0,.07,0,.09a.49.49,0,0,1-.19.06c-.09,0-.14,0-.14.07s0,.08.08.14a.49.49,0,0,1,.12.16.56.56,0,0,1,0,.13c0,.08-.07.13-.16.15a1,1,0,0,1-.43,0l-.08-.05a2.69,2.69,0,0,1-.27-.33c0-.07-.06-.12,0-.15l.1,0a.84.84,0,0,1,.19,0c.07,0,.14,0,.14,0s0-.07-.09-.12a.83.83,0,0,1-.15-.11s0,0,0-.06a1.43,1.43,0,0,1,.39-.08Z" transform="translate(-584.14 -284.22)"/>
    <path d="M782,370.67a.24.24,0,0,1-.15.12.36.36,0,0,1-.19,0,.44.44,0,0,1-.3-.27l.83-.18a.15.15,0,0,1,0,.2c0,.08-.15.17-.16.24s.23.22.36.32.22.21.18.36a1,1,0,0,1-.32.54l-.09,0a.78.78,0,0,1-.55-.26c-.11-.12-.07-.28,0-.44s.26-.36.14-.48a1.83,1.83,0,0,0-.28-.16.18.18,0,0,1-.09-.2l.83-.18a.09.09,0,0,0-.14,0,.18.18,0,0,0-.05.09.23.23,0,0,0,0,.15Z" transform="translate(-584.14 -284.22)"/>
    <path d="M780.8,369.47s.23.2.22.35,0,.07,0,.08a.48.48,0,0,1-.19,0c-.08,0-.14,0-.15,0s0,.09,0,.16a.49.49,0,0,1,0,.2.55.55,0,0,1,0,.13c0,.08-.11.09-.2.07a1,1,0,0,1-.37-.22l-.05-.08a3,3,0,0,1-.11-.4c0-.08,0-.14.05-.14h.1a.88.88,0,0,1,.18.06c.06,0,.13,0,.15,0s0-.07,0-.14a.87.87,0,0,1-.09-.16s0,0,0,0a1.55,1.55,0,0,1,.39.08Z" transform="translate(-584.14 -284.22)"/>
    <path d="M780.79,368.32a.88.88,0,0,1-.24-.27c0-.07,0-.13,0-.17l1.62-1.55-.77,1.75c0,.06-.13.1-.21.14s-.13.07-.12.13.19.29.17.41a.29.29,0,0,1-.16.32.62.62,0,0,1-.54-.06l-.07-.07a3.29,3.29,0,0,1-.18-.45c0-.09,0-.11.12-.14s.3,0,.36-.09,0-.08-.07-.13-.16-.09-.18-.12l.85.21c0,.06-.06.09-.12.12a.88.88,0,0,1-.36,0Z" transform="translate(-584.14 -284.22)"/>
    <path d="M784.2,365.61a1.29,1.29,0,0,0-.14.23,2.05,2.05,0,0,0-.15.49c0,.09,0,.18-.05.27a3.76,3.76,0,0,0-.11.38.56.56,0,0,0,.11.46.76.76,0,0,0,.43.25c.17,0,.34,0,.47.07a2.88,2.88,0,0,0,.44,0,5.4,5.4,0,0,1,.82.11l.36.09c.1,0,.23.06.25.09s.1,0,.11,0,0,0,0,0l.07-.07s.06,0,.08.11a.39.39,0,0,1-.15.29,3,3,0,0,1-.32.19,2.41,2.41,0,0,1-.38.15,1.93,1.93,0,0,1-1,0,2.45,2.45,0,0,1-.57-.24,1.4,1.4,0,0,1-.48-.46c-.13-.17-.22-.36-.34-.51s-.24-.3-.38-.47a1.16,1.16,0,0,1-.25-.59,1.11,1.11,0,0,1,.16-.58,1,1,0,0,1,.7-.5.5.5,0,0,1,.32,0Z" transform="translate(-584.14 -284.22)"/>
    <path d="M782.86,367.54s0,0,0,0h0s0,0,0,0,0,0,0,.09a3.74,3.74,0,0,0,.11.37,5.25,5.25,0,0,0,.32.7,4.16,4.16,0,0,0,.94,1.14l-.69.25a3.5,3.5,0,0,0-.79-2.33l.63-.24a3.41,3.41,0,0,0,0,1.38,2.8,2.8,0,0,0,.67,1.26l-.23.19a11.1,11.1,0,0,0-2.31-2.26l.63-.26a2.87,2.87,0,0,0,1.33,2.31l-.8.55a3.46,3.46,0,0,0-.65-1.27,3.34,3.34,0,0,0-1.13-.9l.61-.51a5.78,5.78,0,0,0,.46,1.64,6.5,6.5,0,0,0,1,1.5l-.06.08a4.89,4.89,0,0,1-2.26-3.05l-.19-.77.8.27a3.77,3.77,0,0,1,2.46,2.78l.27,1.31-1.07-.75a3.53,3.53,0,0,1-1.51-3.22l.1-.84.53.58a29.54,29.54,0,0,1,2,2.64l-.23.19a5,5,0,0,1-.86-1.32,3.91,3.91,0,0,1-.36-1.59v-.76l.64.52a3.21,3.21,0,0,1,1.09,3l-.13.83-.56-.57a3.8,3.8,0,0,1-.91-1.51,3.32,3.32,0,0,1-.16-.86,4,4,0,0,1,0-.43.28.28,0,0,1,.16-.27.14.14,0,0,1,.13,0,.14.14,0,0,1,.05.09.16.16,0,0,1,0,.09c0,.05-.13.06-.11,0Z" transform="translate(-584.14 -284.22)"/>
    <path d="M781.56,366.75a5.66,5.66,0,0,1,1.33.83l-.63.49a5.67,5.67,0,0,1-.62-1l.75-.4a6.92,6.92,0,0,0,.33.91,2,2,0,0,0,.63.75l-.26.16a2.94,2.94,0,0,0-1.16-1.4l.7-.56c.35.52.74,1,1.08,1.54.17.26.34.53.51.8s.29.44.48.48l-.16.22a.64.64,0,0,0-.05-.42l.07-.07a.76.76,0,0,1,.39.45l0,.13-.2.1a.85.85,0,0,1-.68,0,1.87,1.87,0,0,1-.5-.32,6,6,0,0,1-.72-.71,6.63,6.63,0,0,1-1.05-1.72l-1-2.3,1.75,1.74a3.53,3.53,0,0,1,.86,2l.07.47-.33-.31c-.26-.24-.51-.47-.79-.71a3.71,3.71,0,0,1-.74-.82l.75-.4a5.67,5.67,0,0,1,.58,1l1.47,3.12-2.1-2.63a5.66,5.66,0,0,1-.83-1.33Z" transform="translate(-584.14 -284.22)"/>
    <path d="M781.7,371.12s.31,0,.44.12a.18.18,0,0,1,.05.13c0,.05-.08.12-.13.19s-.1.12-.09.17.07.09.14.14a.52.52,0,0,1,.18.16.85.85,0,0,1,.08.17.3.3,0,0,1-.1.29.87.87,0,0,1-.44.2l-.1,0a2.25,2.25,0,0,1-.35-.29c-.06-.07-.1-.14-.06-.21a.64.64,0,0,1,.24-.25c.05,0,.12-.1.1-.15s-.05-.08-.14-.11a.75.75,0,0,1-.19-.07s0-.06,0-.1a1.2,1.2,0,0,1,.27-.34Z" transform="translate(-584.14 -284.22)"/>
    <path d="M783.07,365a.8.8,0,0,1,.4.14s0,.06,0,.1-.09.09-.15.14-.11.1-.1.14.07.07.14.1a.59.59,0,0,1,.19.09l.1.11c.05.07,0,.15,0,.22a1.28,1.28,0,0,1-.36.27l-.1,0a1.29,1.29,0,0,1-.42-.14c-.08-.05-.13-.11-.11-.2a.76.76,0,0,1,.06-.13.59.59,0,0,1,.15-.15c.05-.05.11-.1.1-.14s-.05-.07-.13-.1a.57.57,0,0,1-.19-.08s0-.07,0-.1.33-.26.34-.27Z" transform="translate(-584.14 -284.22)"/>
    <path d="M783,365.12a1.2,1.2,0,0,1,.1-.13.45.45,0,0,1,.22-.15s.07,0,.1,0a.51.51,0,0,1,0,.2c0,.09,0,.14.06.16s.1,0,.16-.05a.52.52,0,0,1,.19-.09H784c.09,0,.13.09.15.18a1.07,1.07,0,0,1-.06.44l-.06.08a1.79,1.79,0,0,1-.37.22c-.08,0-.15,0-.19,0a.75.75,0,0,1,0-.12.68.68,0,0,1,0-.2c0-.07,0-.15,0-.16s-.08,0-.14.06-.12.11-.15.12-.05,0-.07,0a1,1,0,0,1,0-.41Z" transform="translate(-584.14 -284.22)"/>
    <path d="M783.51,364.54a.92.92,0,0,1,.4-.19s.08,0,.1,0a.64.64,0,0,1,0,.21c0,.09,0,.15.07.17s.11,0,.18-.05a.69.69,0,0,1,.19-.1l.15,0c.09,0,.15.06.2.15a1.55,1.55,0,0,1,.12.45l0,.1a1,1,0,0,1-.36.31.28.28,0,0,1-.29,0l-.12-.13a.57.57,0,0,1-.08-.22c0-.08,0-.16-.09-.18s-.11,0-.19,0a.53.53,0,0,1-.21.08c-.05,0-.08,0-.11-.08a.68.68,0,0,1,0-.46Z" transform="translate(-584.14 -284.22)"/>
    <path d="M783.09,369.7a.62.62,0,0,1,.51.13.31.31,0,0,1,.1.17.58.58,0,0,1-.08.26.3.3,0,0,0,0,.24c0,.07.1.12.17.18a.65.65,0,0,1,.21.2,1.25,1.25,0,0,1,.1.22.37.37,0,0,1,0,.22.59.59,0,0,1-.08.19.88.88,0,0,1-.44.33l-.1,0a2.17,2.17,0,0,1-.35-.36.34.34,0,0,1-.07-.29.89.89,0,0,1,.19-.38c0-.07.1-.15.07-.21s-.08-.11-.17-.14a.82.82,0,0,1-.22-.09.21.21,0,0,1,0-.13,1.18,1.18,0,0,1,.16-.46Z" transform="translate(-584.14 -284.22)"/>
    <path d="M805.29,335.42a.74.74,0,0,1,.55.09.38.38,0,0,1,.13.16.69.69,0,0,1,0,.29.34.34,0,0,0,0,.27c0,.07.13.11.23.16a.78.78,0,0,1,.26.16,1.64,1.64,0,0,1,.17.2.6.6,0,0,1,.08.45,1.05,1.05,0,0,1-.27.51l-.1,0a1.68,1.68,0,0,1-.48-.26.51.51,0,0,1-.19-.33,1,1,0,0,1,0-.5c0-.09,0-.2,0-.26a.27.27,0,0,0-.21-.13.82.82,0,0,1-.25-.07.32.32,0,0,1-.09-.15,1,1,0,0,1,0-.53Z" transform="translate(-584.14 -284.22)"/>
    <path d="M807.37,344.21a.37.37,0,0,1-.34.11.67.67,0,0,1-.35-.17.89.89,0,0,1-.29-.73,1,1,0,0,1,0-.13v-.07a1.51,1.51,0,0,1,.07-.19,2.07,2.07,0,0,1,.18-.29,1.88,1.88,0,0,1,.39-.4c.07-.06.11-.07.19-.14a1.14,1.14,0,0,0,.17-.15,1,1,0,0,0,.25-.42,1,1,0,0,0-.2-.92l.48-.25a2.31,2.31,0,0,1,.65,1,2.82,2.82,0,0,1,.13,1.23,2.7,2.7,0,0,1-.45,1.14,2,2,0,0,1-.93.75l-.07-.07a6.24,6.24,0,0,0,.39-1.94c0-.15,0-.3,0-.45s0-.3,0-.46,0-.3-.07-.46a4.6,4.6,0,0,0-.11-.48l.48-.25a7.06,7.06,0,0,1-.05,1.78,2.4,2.4,0,0,1-.1.32,1.51,1.51,0,0,1-.14.28,2.53,2.53,0,0,1-.33.4l-.12.15,0,.05,0,.06s0,0,0,0a.41.41,0,0,0,0,.28.5.5,0,0,0,.06.16s.06.11.18.11Z" transform="translate(-584.14 -284.22)"/>
    <g>
      <path class="d" d="M734.41,362.76c.12.09-.64.21-.54.36" transform="translate(-584.14 -284.22)"/>
      <path d="M734.46,362.73l0,0s.07-.1.13.09,0,.16,0,.18a.23.23,0,0,1,0,.1.4.4,0,0,1,0,.13s0,.06-.07,0-.08-.08-.13-.13-.08-.1-.1-.09,0,.07,0,.14a1.32,1.32,0,0,1,0,.18v.09s0,0,0-.07,0-.09,0-.14,0-.13-.09-.15a.13.13,0,0,0-.15,0l-.08.06s-.07,0-.17-.05a.31.31,0,0,1-.06-.22.82.82,0,0,1,0-.2c0-.12.09-.19.16-.18a.3.3,0,0,1,.11,0s.09.08.13.13.09.1.11.09,0-.05,0-.13a1.47,1.47,0,0,1,0-.18s0,0,0,0l0,.09a.13.13,0,0,0,0,.08s0,.06,0,.15.1.05.12.05l0,0Z" transform="translate(-584.14 -284.22)"/>
    </g>
    <g>
      <path class="d" d="M774.28,368c-2.16-.67-4.36-1.21-6.56-1.69-3.28-.7-6.59-1.25-9.91-1.7-3.84-.52-7.69-.91-11.55-1.2s-8-.5-12-.6" transform="translate(-584.14 -284.22)"/>
      <path d="M774.27,368s-.63-.09-1.73-.28c-.55-.09-1.21-.24-2-.38S769,367,768,366.79s-1.92-.38-3-.61l-3.33-.76c-1.16-.27-2.36-.49-3.6-.65s-2.5-.22-3.76-.28-2.53-.13-3.77-.22L747,364c-1.12-.12-2.31-.11-3.39-.21s-2.11-.15-3.06-.24c-1.89-.15-3.47-.34-4.57-.46s-1.73-.24-1.73-.24v-.1s.64,0,1.75-.06,2.7,0,4.59,0c.95,0,2,0,3.07.07l1.67.07.86,0c.35,0,.6.07.91.1l3.63.45c1.24.16,2.49.35,3.74.56l1.88.28c.63.08,1.25.14,1.87.24,1.23.18,2.45.31,3.64.43s2.33.24,3.41.43,2.07.39,3,.65,1.75.5,2.48.74,1.38.42,1.9.61c1.05.36,1.65.59,1.65.59Z" transform="translate(-584.14 -284.22)"/>
    </g>
    <g>
      <path class="d" d="M783.78,376.53a3.07,3.07,0,0,0,.53-1.67,2.92,2.92,0,0,0-.29-1.25c-.57-1.2-1.91-2.66-3.18-2.4-.9.18-1.54.68-1.16-1.18" transform="translate(-584.14 -284.22)"/>
      <path d="M783.74,376.51l.06-.44a5.46,5.46,0,0,0,0-1.63,6.54,6.54,0,0,0-.08-.75,1.89,1.89,0,0,0-.34-.8,2.25,2.25,0,0,0-.66-.6,3.72,3.72,0,0,0-1.43-.58,2.16,2.16,0,0,0-.61.05,2.74,2.74,0,0,1-.9.08.71.71,0,0,1-.56-.48.88.88,0,0,1,0-.44,1.84,1.84,0,0,1,.17-.52,2.81,2.81,0,0,1,.22-.4l.1,0s0,.17.08.43a4.08,4.08,0,0,0,.09.44c0,.07.06.15.08.15s-.06-.1-.06-.1.29-.11.56-.2a1.89,1.89,0,0,1,1-.07,2.64,2.64,0,0,1,1.64,1.22c.19.27.34.56.52.81a8.57,8.57,0,0,0,.57.73,2.29,2.29,0,0,1,.46.82,2.13,2.13,0,0,1,0,.86,2.21,2.21,0,0,1-.55,1.12,1.44,1.44,0,0,1-.36.3Z" transform="translate(-584.14 -284.22)"/>
    </g>
    <path d="M734.17,362.74a3.6,3.6,0,0,1-.27-.26s0,0,0,0l.14.1.1.06s0,0-.08-.09l-.12-.12,0-.06s0,0,.08,0l.32.23.08.06s.19.18.28.28.07.09,0,.07l-.07,0-.14-.09-.11-.06s0,0,.08.09l.12.12s0,0,0,0a3.6,3.6,0,0,1-.31-.22Z" transform="translate(-584.14 -284.22)"/>
    <path d="M728.46,376.89s-.07-.24-.14-.67a7.51,7.51,0,0,1-.06-1.8,7.87,7.87,0,0,1,.18-1.19,9.24,9.24,0,0,1,.48-1.26,13.37,13.37,0,0,0,.53-1.32c.17-.45.27-.93.42-1.41a10,10,0,0,1,.47-1.41c.2-.45.4-.88.61-1.29a11.73,11.73,0,0,1,3.22-3.8l.08.06s-.1.23-.3.61-.49.92-.85,1.54l-.58,1c-.21.35-.43.72-.67,1.1s-.48.77-.72,1.17-.51.81-.75,1.22a6,6,0,0,0-.93,2.65c-.07.45-.06.89-.14,1.29s-.15.78-.2,1.13c-.14.7-.26,1.27-.36,1.7s-.18.66-.18.66Z" transform="translate(-584.14 -284.22)"/>
    <path d="M790.4,361.61a6.2,6.2,0,0,1,1.59-.33,5.35,5.35,0,0,1,1.59,0l.4.09,0,.27a2.08,2.08,0,0,1-.31.86,3.38,3.38,0,0,1-.54.67L793,363a1.52,1.52,0,0,1,1,.18,2.73,2.73,0,0,1,.77.64,3.31,3.31,0,0,1,.69,1.86,2.7,2.7,0,0,1,0,.28c0,.08,0,.13,0,.23a2.55,2.55,0,0,1-.16.5,3.42,3.42,0,0,1-.5.84,4.9,4.9,0,0,1-1.4,1.18l-.08-.07c.24-.56.52-1.08.74-1.57a5.67,5.67,0,0,0,.26-.73c0-.12.05-.24.07-.34a2,2,0,0,0,0-.2s0-.1,0-.15a3.43,3.43,0,0,0-.29-1.45,2,2,0,0,0-.38-.66.83.83,0,0,0-.3-.22.71.71,0,0,0-.36,0l-.45,0,.32-.3a1.09,1.09,0,0,0,.34-.61,1.45,1.45,0,0,0,0-.66l.37.36a5.34,5.34,0,0,1-1.59,0,6.2,6.2,0,0,1-1.58-.37Z" transform="translate(-584.14 -284.22)"/>
    <path d="M794.22,369.79c.14,1.13.23,2.27.3,3.4h-.63a6.84,6.84,0,0,1,1.06-3.72,18.53,18.53,0,0,1,2.21-3,19.89,19.89,0,0,0,2.22-2.94,28.51,28.51,0,0,0,1.65-3.32c.47-1.14.88-2.31,1.26-3.48s.75-2.34,1.08-3.52a6.48,6.48,0,0,0,.34-1.65.8.8,0,0,0-.06-.26,2,2,0,0,0-.2-.31,1.15,1.15,0,0,1-.17-.39.87.87,0,0,1,.07-.58,1.51,1.51,0,0,1,.48-.51c1-.74,2-1.47,3-2.17l-.17.29a4.2,4.2,0,0,0,0-1.26,4.61,4.61,0,0,1,0-1.51l.06-.29.27,0,.79.06.25,0,0,.22a5.26,5.26,0,0,1-.57,2.89l-.09,0a5.82,5.82,0,0,0,.11-2.77l.27.24-.79,0,.33-.27a5.22,5.22,0,0,0,.15,1.28,4.9,4.9,0,0,1,.14,1.53l0,.16-.15.13c-1,.79-1.93,1.55-2.91,2.31-.14.1-.21.18-.18.13s0-.21,0-.1a2.57,2.57,0,0,1,.29.48,1.69,1.69,0,0,1,.13.64,6.92,6.92,0,0,1-.45,2q-.57,1.79-1.3,3.52c-.49,1.15-1.05,2.27-1.62,3.37s-1.14,2.21-1.71,3.31a26.58,26.58,0,0,1-1.93,3.22c-.68,1-1.41,2-2,3a12.06,12.06,0,0,0-.8,1.59,6.41,6.41,0,0,0-.39,1.69h-.63c0-1.13.11-2.27.22-3.41Z" transform="translate(-584.14 -284.22)"/>
    <path d="M780.37,433c0,.47-.05.93-.11,1.39l-.54-.08a17.58,17.58,0,0,1,0-2.48,11.76,11.76,0,0,1,.4-2.45,23,23,0,0,0,.53-2.41c.13-.81.2-1.63.3-2.46a22,22,0,0,1,.45-2.43c.18-.8.36-1.59.57-2.37s.38-1.55.51-2.34a13.79,13.79,0,0,0,.2-2.41l.1,0a7.36,7.36,0,0,1,.46,2.48,12.27,12.27,0,0,1-.25,2.51,20.36,20.36,0,0,1-.64,2.39c-.24.79-.46,1.56-.73,2.34A18.8,18.8,0,0,0,781,427a12.53,12.53,0,0,0-.22,2.44c0,.41,0,.82,0,1.23s-.06.81-.11,1.21c-.08.81-.19,1.61-.32,2.43l-.54-.08c.16-.43.34-.86.54-1.28Z" transform="translate(-584.14 -284.22)"/>
    <path d="M776.51,434.11a.89.89,0,0,1,.22,0,1.33,1.33,0,0,1,.42.05.63.63,0,0,1,.21.12,1.2,1.2,0,0,1,.15.28.41.41,0,0,0,.22.24.55.55,0,0,0,.33,0,1.79,1.79,0,0,1,.63-.07,1,1,0,0,1,.48.15,2.34,2.34,0,0,1,.5.42v.1a1.21,1.21,0,0,1-.59.37,1.08,1.08,0,0,1-.3,0,.77.77,0,0,1-.32-.06,2.3,2.3,0,0,1-.32-.16,1.07,1.07,0,0,1-.28-.27.82.82,0,0,0-.27-.24.57.57,0,0,0-.35,0,.92.92,0,0,1-.36,0,.65.65,0,0,1-.23-.17.88.88,0,0,1-.22-.65Z" transform="translate(-584.14 -284.22)"/>
    <path d="M785,433.6a1,1,0,0,1,0,.24.86.86,0,0,1-.18.56.81.81,0,0,1-.28.25,1,1,0,0,1-.43.07,1,1,0,0,0-.42,0,1.52,1.52,0,0,0-.37.22,1.17,1.17,0,0,1-.42.21,2.05,2.05,0,0,1-.45.06,1,1,0,0,1-.42-.09,1.17,1.17,0,0,1-.33-.2,1.08,1.08,0,0,1-.34-.49,1,1,0,0,1-.05-.23l.07-.07.69,0a1.59,1.59,0,0,1,.52.07,4.37,4.37,0,0,1,.64.23.59.59,0,0,0,.37,0,.45.45,0,0,0,.27-.24,2.3,2.3,0,0,1,.16-.3,1,1,0,0,1,.2-.15c.15-.08.27-.09.41-.17a1,1,0,0,1,.23-.07Z" transform="translate(-584.14 -284.22)"/>
    <path d="M779.73,370.41a1.24,1.24,0,0,1,.13.26.51.51,0,0,1,0,.33.89.89,0,0,1-.19.49,1,1,0,0,1-.51.35,1.08,1.08,0,0,1-.61-.09,2.22,2.22,0,0,0-1.09-.22,1.83,1.83,0,0,1-.57-.05,4.19,4.19,0,0,1-.52-.17,2.11,2.11,0,0,1-.77-.57,2.07,2.07,0,0,1-.37-.62,1.5,1.5,0,0,1-.07-.28l.08-.07.27.06a5.07,5.07,0,0,1,.61.18,3.06,3.06,0,0,1,.74.38,5.76,5.76,0,0,1,.77.62.76.76,0,0,0,.91.2c.15-.05.24-.17.32-.2s.14-.05.18-.11a.66.66,0,0,0,.18-.11c.07,0,.13-.12.18-.19a1.2,1.2,0,0,1,.19-.21Z" transform="translate(-584.14 -284.22)"/>
    <path d="M784.36,374.86a.86.86,0,0,1,.16.11.69.69,0,0,1,.21.28.32.32,0,0,1,0,.19c0,.07-.1.13-.17.2a.29.29,0,0,0-.12.22c0,.08.06.15.12.23a.81.81,0,0,1,.16.23,1.82,1.82,0,0,1,.07.22.51.51,0,0,1-.08.39,1.26,1.26,0,0,1-.4.38h-.1a1.26,1.26,0,0,1-.39-.39.51.51,0,0,1-.07-.39,1.82,1.82,0,0,1,.08-.22.81.81,0,0,1,.17-.23c.06-.08.13-.15.12-.23a.29.29,0,0,0-.11-.22c-.07-.07-.15-.14-.17-.21a.32.32,0,0,1,0-.18.69.69,0,0,1,.22-.27.86.86,0,0,1,.16-.1Z" transform="translate(-584.14 -284.22)"/>
    <path class="e" d="M767.78,397.67a6.64,6.64,0,0,0,3-3.48,7.26,7.26,0,0,0,.17-1.46c.12-1.17.22-2.35.33-3.52s.21-2.35.3-3.52a6.66,6.66,0,0,1,.1-1.46,6.64,6.64,0,0,1-3,3.48,8,8,0,0,0-.17,1.46c-.12,1.17-.22,2.35-.33,3.52s-.21,2.35-.3,3.52a7.62,7.62,0,0,1-.1,1.46Z" transform="translate(-584.14 -284.22)"/>
    <path d="M780,437.13a1.1,1.1,0,0,1,0-.39s0,0,.05,0a.69.69,0,0,1,.1.15c0,.07.07.11.09.1s0-.07,0-.13a.68.68,0,0,1,0-.18l.05-.09s.08,0,.13,0a1.82,1.82,0,0,1,.2.36l0,.1a1.81,1.81,0,0,1,0,.41c0,.07-.05.12-.1.1l-.08-.06a.68.68,0,0,1-.1-.15c0-.05-.07-.11-.09-.1s0,0,0,.13a.7.7,0,0,1,0,.18s0,0-.06,0a1.1,1.1,0,0,1-.19-.34Z" transform="translate(-584.14 -284.22)"/>
    <path d="M764.26,392a.91.91,0,0,1,.24-.2,1.94,1.94,0,0,1,1.2-.27,2.58,2.58,0,0,1,.51.17,1,1,0,0,0,.54.09,1.32,1.32,0,0,0,.53-.21,3.78,3.78,0,0,1,.51-.29l.48-.22a6.43,6.43,0,0,1,.82-.3l.63-.21.27-.1.08.06a1.21,1.21,0,0,1-.06.31,1.69,1.69,0,0,1-.44.69,2.09,2.09,0,0,1-1,.53,4.39,4.39,0,0,1-.59.1,2.54,2.54,0,0,1-.62,0,2.77,2.77,0,0,0-.61,0,1.76,1.76,0,0,0-.57.15,2.32,2.32,0,0,1-.53.16,2.12,2.12,0,0,1-.46,0,3.52,3.52,0,0,1-.67-.17l-.28-.12Z" transform="translate(-584.14 -284.22)"/>
    <path d="M808.41,346.06c-.3,4.13-.57,8.27-1.07,12.39a101.29,101.29,0,0,1-2.1,12.28c-1,4.05-2.32,8-3.42,12a53.52,53.52,0,0,0-1.31,6c-.34,2-.62,4.09-1,6.14A43,43,0,0,1,798,400.9c-.64,2-1.4,3.91-2.14,5.85-1.49,3.86-3,7.73-4.42,11.61s-2.88,7.77-4.31,11.65l-1.07,2.92a28.28,28.28,0,0,1-1.17,2.92,4.93,4.93,0,0,1-1,1.34,2.7,2.7,0,0,1-1.58.77,2.8,2.8,0,0,1-1.73-.39,1.82,1.82,0,0,1-.92-1.64l.18-1.94.61,1.85a2.51,2.51,0,0,1-.75,2.52,3.43,3.43,0,0,1-2.39,1,12.59,12.59,0,0,1-4.53-1.49l-1.05-.48c-.34-.16-.71-.3-1.09-.52a1.84,1.84,0,0,1-.95-1.17,2,2,0,0,1,.25-1.47,1.82,1.82,0,0,1,.24-.32c.07-.07.12-.13.21-.22a2.75,2.75,0,0,1,.61-.41,5.71,5.71,0,0,1,1.2-.39c.77-.17,1.42-.34,1.67-.8a3.11,3.11,0,0,0,.09-1.9,21.6,21.6,0,0,0-.54-2.18c-.45-1.53-.72-3-1.13-4.5-.76-3-1.58-6-2.12-9a85.79,85.79,0,0,1-1-9.24c-.18-3.09-.26-6.18-.25-9.26v-4.33a.16.16,0,0,0,0,.06l0,0h0a3.39,3.39,0,0,0-1,.14c-.37.09-.73.2-1.1.31l-1.1.35a2.89,2.89,0,0,1-1.25,0,2.2,2.2,0,0,1-1.14-.54,2.31,2.31,0,0,1-.63-1.06,3.86,3.86,0,0,1,.21-2.38c.52-1.47,1.46-2.75,1.74-4.26h.1c-.22,1.56-1.13,2.89-1.57,4.34a3.59,3.59,0,0,0-.13,2.15,1.74,1.74,0,0,0,1.49,1.29,2.48,2.48,0,0,0,1,0l1.09-.37c.37-.12.74-.24,1.12-.34a3.61,3.61,0,0,1,1.25-.17.64.64,0,0,1,.24.09.42.42,0,0,1,.14.15.51.51,0,0,1,0,.12v0c0,.19,0,.22,0,.34v1.73l0,2.31c.06,3.08.21,6.15.45,9.21q.18,2.3.46,4.58c.19,1.52.39,3,.66,4.54.54,3,1.36,6,2.14,9,.41,1.48.71,3,1.14,4.46A18.76,18.76,0,0,1,775,430a6.45,6.45,0,0,1,.1,1.25,3.39,3.39,0,0,1-.08.68,3.2,3.2,0,0,1-.12.37l-.06.13,0,.07,0,.08,0,0a2.32,2.32,0,0,1-1.13.91,7.5,7.5,0,0,1-1.19.33,4.81,4.81,0,0,0-1,.3,2.06,2.06,0,0,0-.35.22,2.62,2.62,0,0,0-.19.19l-.1.14a1,1,0,0,0-.15.75.89.89,0,0,0,.49.56c.28.17.63.31,1,.48l1,.49c.69.31,1.42.68,2.08.94a7.17,7.17,0,0,0,2.09.51c1.25.07,2.72-1.18,2.35-2.38l.79-.09c-.1.74.92,1.33,1.77,1.23a2.86,2.86,0,0,0,2-1.69,28.07,28.07,0,0,0,1.19-2.82l1.13-2.89c1.51-3.86,3-7.71,4.51-11.58s2.95-7.74,4.39-11.62c.73-1.94,1.42-3.89,2-5.86a42.82,42.82,0,0,0,1.32-6l.84-6.15a54.4,54.4,0,0,1,1.28-6.12c.53-2,1.17-4,1.78-6s1.21-3.95,1.71-5.95a122.69,122.69,0,0,0,2.32-12.16c.57-4.1,1.07-8.21,1.53-12.32Z" transform="translate(-584.14 -284.22)"/>
    <path d="M780.84,376.3s-.48.07-1.31.21a30.57,30.57,0,0,0-3.35.77,13.33,13.33,0,0,0-2.09.75,14.64,14.64,0,0,0-2.1,1.4c-.72.55-1.51,1.09-2.29,1.63s-1.58,1.09-2.4,1.62c-.42.28-.8.51-1.19.8a5,5,0,0,0-.88.94,7.16,7.16,0,0,0-1.06,2.36,24.23,24.23,0,0,0-.48,2.47,2.7,2.7,0,0,0,.11,1.92,2.08,2.08,0,0,0,1.39.78,6.89,6.89,0,0,0,1.45,0,5.81,5.81,0,0,0,.94-.18l.33-.09,0,.09a4.51,4.51,0,0,1-1.23.57,6,6,0,0,1-1.57.27,2.62,2.62,0,0,1-2-.89,2.33,2.33,0,0,1-.5-1.28,6.29,6.29,0,0,1,.05-1.3,13.15,13.15,0,0,1,.53-2.63,7.83,7.83,0,0,1,1.36-2.61,5.71,5.71,0,0,1,1.18-1c.42-.23.89-.44,1.31-.64a18.91,18.91,0,0,0,2.49-1.4,11.86,11.86,0,0,0,2.11-1.78,10.45,10.45,0,0,1,2-1.76,9.1,9.1,0,0,1,2.3-.8,14.18,14.18,0,0,1,3.53-.37,10.32,10.32,0,0,1,1.34.11Z" transform="translate(-584.14 -284.22)"/>
    <path d="M775.22,369.87a.73.73,0,0,1-.48-.33c0-.05-.13-.11-.22-.19a1.51,1.51,0,0,1-.27-.26,2.44,2.44,0,0,1-.47-.86,5.39,5.39,0,0,1,0-2.54c.09-.47.21-1,.34-1.48s.22-1,.34-1.61a4,4,0,0,1,.85-1.8,10.62,10.62,0,0,1,1.49-1.36,9.48,9.48,0,0,1,3.83-1.95,6,6,0,0,1,2.28,0,20.07,20.07,0,0,0,2.22.36,3.06,3.06,0,0,0,2.07-.51c.54-.51,1.09-1.08,1.64-1.62l1.64-1.67.23-.2a.71.71,0,0,1,.57-.16,1.07,1.07,0,0,1,.42.19,1.17,1.17,0,0,1,.3.31,1.89,1.89,0,0,1,.23,1.43,6.09,6.09,0,0,1-1.22,2.11c-.47.62-1,1.17-1.47,1.72a38.15,38.15,0,0,1-3.09,2.88c-1,.87-2,1.66-2.83,2.43a18.65,18.65,0,0,0-2.16,2.21,7.66,7.66,0,0,0-1.18,2,5.43,5.43,0,0,0-.35,1.49,4.23,4.23,0,0,0,0,.55h-.1a4.34,4.34,0,0,1-.07-.56,5.55,5.55,0,0,1,.16-1.6,7.49,7.49,0,0,1,1-2.29,15,15,0,0,1,2.09-2.47c1.63-1.69,3.76-3.39,5.78-5.4.5-.5,1-1,1.46-1.59a5.79,5.79,0,0,0,1.12-1.72c.19-.51-.21-1.32-.42-.79l-1.75,1.5c-.6.5-1.16,1-1.78,1.51a3.39,3.39,0,0,1-2.31.52c-.78-.05-1.52-.24-2.25-.32a4.93,4.93,0,0,0-2.1.17,10,10,0,0,0-3.41,2.1,13.26,13.26,0,0,0-1.36,1.26,3.14,3.14,0,0,0-.71,1.42c-.13.53-.26,1.12-.43,1.62s-.33,1-.45,1.42a5.38,5.38,0,0,0-.24,2.29,2.44,2.44,0,0,0,.71,1.29.58.58,0,0,0,.35.36Z" transform="translate(-584.14 -284.22)"/>
    <path d="M780.63,369.15a.68.68,0,0,1,.15.49l0,.09s0,.06-.06.06,0,0,0-.07a.4.4,0,0,0-.08-.24.28.28,0,0,0-.29-.11.32.32,0,0,0-.14.08.26.26,0,0,0-.07.25l.1.17c0-.08,0-.13,0-.13s0,0,0,.1.07.12.08.17a.78.78,0,0,1,0,.15.32.32,0,0,1-.15.3,1,1,0,0,1-.51.22l-.09,0a1,1,0,0,1-.28-.48.4.4,0,0,1,.1-.4.78.78,0,0,1,.48-.31,1,1,0,0,1,.35,0,2.17,2.17,0,0,0,.32,0h0l.07.17a.3.3,0,0,1-.09.28.37.37,0,0,1-.18.09.36.36,0,0,1-.37-.15.49.49,0,0,1-.08-.32.65.65,0,0,1,0-.15.23.23,0,0,1,0-.09l.06-.06a.68.68,0,0,1,.5-.11Z" transform="translate(-584.14 -284.22)"/>
    <path d="M769.93,393.71a3.92,3.92,0,0,0,2.06-1.1,6.75,6.75,0,0,0,1.3-1.94c.34-.72.6-1.48.91-2.24s.63-1.53,1-2.27a44,44,0,0,1,2.33-4.32l2.57-4.16.62-1.05a1.36,1.36,0,0,1,1.06-.78,2,2,0,0,1,1.26.37l1,.69a6.45,6.45,0,0,0,4.52,1,5.92,5.92,0,0,0,1.11-.28,6.53,6.53,0,0,0,1.05-.49,6.9,6.9,0,0,0,1.76-1.46,6.81,6.81,0,0,0,1.69-4.14l.08-2.16.91,2a78.28,78.28,0,0,1,3.32,8.26,44.2,44.2,0,0,1,1.26,4.28,21.75,21.75,0,0,1,.43,2.2c.06.37.08.74.11,1.12a6.34,6.34,0,0,1,0,1.12h-.1a7.77,7.77,0,0,0-.1-1.09c-.07-.36-.14-.72-.23-1.07-.18-.71-.39-1.41-.62-2.11-.47-1.39-1-2.77-1.52-4.14-1.1-2.73-2.26-5.43-3.45-8.13l1-.19a7.77,7.77,0,0,1-2.06,4.69,7.65,7.65,0,0,1-2.06,1.55,6.12,6.12,0,0,1-1.19.47,6.52,6.52,0,0,1-1.27.23,7.42,7.42,0,0,1-2.51-.24,7.27,7.27,0,0,1-2.27-1c-.68-.44-1.29-1.12-2-1a1,1,0,0,0-.8.63l-.56,1.08-2.23,4.35-2.26,4.3c-.37.72-.72,1.44-1,2.19a20.79,20.79,0,0,1-1.07,2.23,6.57,6.57,0,0,1-1.58,2,3.91,3.91,0,0,1-2.32.88Z" transform="translate(-584.14 -284.22)"/>
    <path d="M775.4,415.58a1.65,1.65,0,0,1,.34-.08,3.65,3.65,0,0,1,.84,0,3.21,3.21,0,0,1,.53.09,3.78,3.78,0,0,1,.56.26,1.51,1.51,0,0,0,.62.19,1.86,1.86,0,0,0,.67-.08c.22-.07.44-.14.64-.18l.59-.14c.37-.1.72-.15,1-.21l.79-.13.34,0,.06.08a2.41,2.41,0,0,1-.18.3,2.27,2.27,0,0,1-.66.62,2.64,2.64,0,0,1-.54.27,2.33,2.33,0,0,1-.65.14,3.34,3.34,0,0,1-1.41-.15,2.38,2.38,0,0,0-1.36-.12,2.83,2.83,0,0,1-.64.06,2.41,2.41,0,0,1-.55-.12,2.61,2.61,0,0,1-1-.62Z" transform="translate(-584.14 -284.22)"/>
    <path d="M785.2,414.78a.86.86,0,0,1,.16-.13,1.11,1.11,0,0,1,.36-.16.5.5,0,0,1,.22,0,1,1,0,0,1,.24.18.36.36,0,0,0,.27.11.48.48,0,0,0,.27-.14,1.44,1.44,0,0,1,.48-.33.78.78,0,0,1,.46-.05,2,2,0,0,1,.58.2l0,.09a1.15,1.15,0,0,1-.34.55.94.94,0,0,1-.23.15.64.64,0,0,1-.28.07l-.32,0a1,1,0,0,1-.33-.12.67.67,0,0,0-.31-.1.47.47,0,0,0-.29.12.83.83,0,0,1-.29.16.54.54,0,0,1-.26,0,.82.82,0,0,1-.45-.45Z" transform="translate(-584.14 -284.22)"/>
    <path d="M765.58,383.15a2,2,0,0,0,0-.36,1.81,1.81,0,0,1,0-.31,1,1,0,0,1,.19-.72l0,0c0-.07,0,0,.05-.06l.1-.08a.67.67,0,0,1,.24-.12c.16,0,.29-.06.42-.08a1.17,1.17,0,0,1,.44,0,.46.46,0,0,1,.26.15.67.67,0,0,1,.14.3l-.61-.14a2.2,2.2,0,0,1,1.12-1.32l.17-.19a.55.55,0,0,1,.46,0,.53.53,0,0,1,.25.24.39.39,0,0,1-.09.53l-.08-.05a.16.16,0,0,0-.21-.1s-.05,0,0,.06.07.05.13,0l.17-.19a1.38,1.38,0,0,1-.29.55,1.61,1.61,0,0,1-.35.33,3.83,3.83,0,0,1-.65.37l-.61-.14s.1,0,.08-.08a.21.21,0,0,0-.22,0,.27.27,0,0,0-.19.18s0,.09,0,.1,0,0,0,.06,0,.06,0,0v0a1.14,1.14,0,0,1-.15.58,1.19,1.19,0,0,1-.22.34.63.63,0,0,1-.39.22Z" transform="translate(-584.14 -284.22)"/>
    <path d="M774.22,368.73a.87.87,0,0,1,.19,0,.76.76,0,0,1,.31.08.26.26,0,0,1,.11.12.74.74,0,0,1,0,.25.24.24,0,0,0,0,.23c0,.06.14.06.23.07a.87.87,0,0,1,.45.1.42.42,0,0,1,.21.28,1.54,1.54,0,0,1,0,.52l-.06.08a1,1,0,0,1-.54.09.5.5,0,0,1-.35-.21,1.46,1.46,0,0,1-.11-.21.71.71,0,0,1,0-.28.4.4,0,0,0-.06-.25.29.29,0,0,0-.23-.09.64.64,0,0,1-.26-.06.31.31,0,0,1-.1-.16.72.72,0,0,1,.1-.52Z" transform="translate(-584.14 -284.22)"/>
    <path class="f" d="M783.59,397.59c-.16,0-.33.09-.4,0-.13-.39.45-.74.32-1.15l-.27,0,.47-1a5.85,5.85,0,0,0-.05-1c0-.15-.06-.27-.09-.37a.56.56,0,0,1-.24,0c-.06-.1.06-.2.13-.28l0-.05-.21-.08a.35.35,0,0,1,.12-.11,2.85,2.85,0,0,1,.18-1.78,6,6,0,0,1,.32-.73c.13-.27.24-.55.35-.83a16.22,16.22,0,0,0,.55-1.71,10.22,10.22,0,0,1,.09-1.54,12.74,12.74,0,0,1,1-1.82c-1-.35-.88-1.88-2-2,.18-.36.49-.89.24-1a2.36,2.36,0,0,1-1.32-2.5.57.57,0,0,1,.26-.32,1.89,1.89,0,0,1,.41-.26,3.5,3.5,0,0,0,.86-.15.11.11,0,0,0-.13-.1h-.07c-.07,0,0,0-.06,0H784l-.25,0c-.35,0-.74-.08-.61-.16a1.1,1.1,0,0,0-.85.32c-.24.14-.32.37-.48.55-.27.39-.52.77-.74,1.15a12.79,12.79,0,0,0-1,2.16,13,13,0,0,1-1.55,3.14,1.55,1.55,0,0,1-.14.45l-.15.31a1.89,1.89,0,0,1-.17.25l-.23.33a13.52,13.52,0,0,0-2,4,10.25,10.25,0,0,0-.38,2.64c0,.41,0,.8,0,1.17s.06.44.09.67c.13.88.22,1.69.24,2.16l0,.17a7.9,7.9,0,0,0,1,3.27c.33.4.71.79,1.08,1.17a3,3,0,0,1,.21-.61,1.93,1.93,0,0,0,.44,1c.7.8.77.19,1.19-.25.16-.28.56-.06.72-.46l.11.63c.22,0-.27-.74.11-.65,0,.26.15.49.17.74.25-.16,0-.88.25-.91.07.11-.26.78.06.73.06,0,.07-.26,0-.38.2.72.41,1,.78.25a1.16,1.16,0,0,1-.13.43c-.06.09-.15.2-.16.27a1.13,1.13,0,0,0,0,.21h0a2.27,2.27,0,0,1,0-.25,2.39,2.39,0,0,1,.22-.3,1.94,1.94,0,0,0-.19.28,1.72,1.72,0,0,0,0,.22l.1-.11a1,1,0,0,1,.24-.4c-.09.12-.2.25-.2.34a2,2,0,0,1,.4-.38.55.55,0,0,1,.14-.1.2.2,0,0,1,0-.07l.1-.15.22-.27c.13-.16.28-.31.29-.39.08-.65.31-1.33.39-2Z" transform="translate(-584.14 -284.22)"/>
    <path class="f" d="M769.87,399.86c.16,0,.31-.08.37,0,.14.29-.36.57-.22.86h.24l-.36.75a11.27,11.27,0,0,0,.18,1.35c.09,0,.18,0,.21,0a1.92,1.92,0,0,1,0,.71l0,.11a.56.56,0,0,0,.2,0,1.66,1.66,0,0,1-.06.33c.52,1.27,1.16,2.54,1.87,3.92a3.67,3.67,0,0,1,.66.85,4.63,4.63,0,0,1,0,1.4c1-.11,1.48.9,2.46.66,0,.28,0,.71.25.73a2.57,2.57,0,0,1,2.25,1c.08.15-.16.35-.28.52s-.25.31-.21.37.74-.4.88-.23c.22-.29.49-.58.48-.87a2.83,2.83,0,0,0,.07-.85c0-.57-.07-1.12-.12-1.68-.12-1.1-.29-2.2-.37-3.3a15.22,15.22,0,0,1-.86-3.29,25.53,25.53,0,0,1-.46-3.66l0-.11a5.53,5.53,0,0,0-.84-2.06l-.73-.78a3.16,3.16,0,0,1-.29.35c0-.27-.05-.55-.19-.65-.43-.58-.62-.25-1.08,0-.19.17-.51,0-.71.22a4.63,4.63,0,0,1,0-.47c-.2,0,.08.58-.23.45.07-.18,0-.39,0-.58-.28.07-.16.66-.4.63-.06-.1.37-.54.09-.57-.05,0-.13.19-.13.28,0-.59-.06-.91-.6-.37,0-.09.13-.21.2-.32s0-.11.15-.17l.35-.16h0l-.45.18-.11.18.08-.17.38-.17-.22.06-.18.06,0-.22V395H772l0,.47h0v0l-.08.13.06-.11s0,0,0-.06a.7.7,0,0,0,.19-.06l-.17,0h-.1l0,0-.17.1a8.19,8.19,0,0,0-.87.68A36.84,36.84,0,0,0,769.87,399.86Z" transform="translate(-584.14 -284.22)"/>
    <g class="g">
      <path class="f" d="M770.22,412.4c.12,0,.24-.11.29.07.1.57-.31,1-.21,1.62l.19,0-.33,1.4c0,.89,0,1.79.06,2.69.07,0,.14,0,.17.05a10.3,10.3,0,0,1-.06,1.44l0,.24a.24.24,0,0,0,.16.09,3.63,3.63,0,0,1-.06.68,27.41,27.41,0,0,0,.68,4.09c.31,1.32.66,2.68,1.1,4.09a15.61,15.61,0,0,1,.82,1.72c.24.85.23,2,.38,2.84,1-.33,1.92,1.54,2.85.87.13.53.32,1.31.63,1.26a3.22,3.22,0,0,1,3,.93,1.75,1.75,0,0,1,.19.8,2.09,2.09,0,0,0-.28.77A.12.12,0,0,0,780,438l0-.06v0c.06,0,0,0,0,0l0,0,.16-.2c.22-.27.47-.54.49-.42l.13-.23a.61.61,0,0,0,.06-.11s0-.05,0-.08l-.08-.31a4.42,4.42,0,0,0-.17-.62l-.41-1.26c-.29-.85-.62-1.72-.91-2.63s-.57-1.85-.81-2.83-.58-2-.83-3a14.33,14.33,0,0,1-.79-2.33l-.24-.91-.22-.89a17.35,17.35,0,0,1-.35-2c-.19-2.86-.18-6-.17-7.35l0-.24a16.84,16.84,0,0,0-.53-4.44c-.22-.57-.46-1.13-.74-1.69a5.06,5.06,0,0,1-.21.78,3.74,3.74,0,0,0-.3-1.39c-.54-1.21-.68-.41-1,.12-.14.36-.49,0-.61.51a9.09,9.09,0,0,0-.14-.9c-.17,0,.29,1.09,0,.89a4.73,4.73,0,0,0-.23-1.07c-.11.09-.07.39,0,.68s0,.56-.09.55c-.07-.18.16-1-.16-1.05-.06,0,0,.34,0,.52-.31-1.05-.59-1.52-.8-.52a5.25,5.25,0,0,0-.06-1.13h0c0,.17,0,.48,0,.63l-.07-.57-.09.14a2.41,2.41,0,0,0,0,.44l0-.37c-.07.12-.14.25-.21.39a4.46,4.46,0,0,1-.26.7,1,1,0,0,0-.1.5A60.17,60.17,0,0,1,770.22,412.4Z" transform="translate(-584.14 -284.22)"/>
    </g>
    <path class="f" d="M782.12,407.37l-.31.23c-.15.06.29-.24.16-.17l-.23.12.2-.13.13-.06a.59.59,0,0,1-.19,0h-.22s0,0,0,0,0,0,0,0l0-.09,0-.07a1,1,0,0,0-.2,0,.85.85,0,0,1,.09-.21c-.38-1-.81-2.18-1.14-3.45a2.83,2.83,0,0,1-.42-.86,3,3,0,0,1,.42-1.1c-1-.21-1.16-1.2-2.16-1.34.09-.24.24-.58,0-.69a2.93,2.93,0,0,1-1.88-1.68c0-.32.79-.47.7-.6s-.86.06-.95-.14c-.14.09-.36.15-.44.26a1.32,1.32,0,0,0-.22.35c-.1.25-.19.5-.27.75-.15.51-.28,1-.39,1.54-.22,1-.35,2.09-.53,3.15a10.78,10.78,0,0,1,.06,2.42c0,.59-.06,1.06,0,2.19a5.68,5.68,0,0,0,.23,1.38c.08.21.09.43.19.63l.24.56c.19.35.4.64.55.91a2.75,2.75,0,0,0,.45.64l.14.13a4.7,4.7,0,0,0,3.18,1.4,11.43,11.43,0,0,0,1.44-.38,2.11,2.11,0,0,1-.35-.48c.33.11.76.17.86,0,.65-.33.36-.68.26-1.24-.1-.25.15-.57,0-.86l.38.12c.06-.21-.5,0-.31-.34.12.12.31,0,.46.08,0-.29-.51-.27-.4-.53.06-.06.33.52.41.17,0-.07-.12-.13-.19-.16.47,0,.75-.18.42-.72a1.76,1.76,0,0,1,.22.18l.06,0,0,0h.22l.22-.13V409h-.2l.2.34h0l0,0c0,.21,0,.36,0,.59h0c0-.16-.21-.45-.23-.74a1.25,1.25,0,0,0-.22-.1l.08.06,0,.64v-.34c0-.1.18-.2.18-.29l.19-.07v0h0l-.18-.1h-.18l0,0-.1-.07.08,0,0,0h.2l.18.08h0l-.19,0-.09.06.14.12L783,409v-.14h0l-.19,0-.1,0c0-.06-.08-.13-.1-.19-.16-.32-.28-.76-.36-.84s-.2-.21-.16-.16a.45.45,0,0,0,0-.07.37.37,0,0,1,0-.1A.33.33,0,0,1,782.12,407.37Z" transform="translate(-584.14 -284.22)"/>
    <path d="M807.78,332.83a.88.88,0,0,1,0-.21,1,1,0,0,1,.22-.38.6.6,0,0,1,.21-.14,1,1,0,0,1,.33,0,.46.46,0,0,0,.32-.06.63.63,0,0,0,.21-.27,1.16,1.16,0,0,1,.18-.31l.22-.22a.93.93,0,0,1,.5-.22,1.53,1.53,0,0,1,.66.07l.05.09a1.53,1.53,0,0,1-.24.61.93.93,0,0,1-.42.34l-.3.09a1.16,1.16,0,0,1-.36,0,.63.63,0,0,0-.33.06.46.46,0,0,0-.2.26,1,1,0,0,1-.16.29.6.6,0,0,1-.23.12,1,1,0,0,1-.44,0,.88.88,0,0,1-.21-.06Z" transform="translate(-584.14 -284.22)"/>
    <path d="M808.36,335.4a.87.87,0,0,1,.14-.16,1,1,0,0,1,.38-.21.59.59,0,0,1,.25,0,1,1,0,0,1,.28.17.45.45,0,0,0,.3.12.61.61,0,0,0,.31-.12,1.14,1.14,0,0,1,.31-.17l.3-.08a.91.91,0,0,1,.53.07,1.51,1.51,0,0,1,.52.4v.1a1.51,1.51,0,0,1-.52.4.91.91,0,0,1-.53.07l-.3-.08a1.14,1.14,0,0,1-.31-.17.61.61,0,0,0-.31-.12.45.45,0,0,0-.3.12,1,1,0,0,1-.28.17.59.59,0,0,1-.25,0,1,1,0,0,1-.38-.21.87.87,0,0,1-.14-.16Z" transform="translate(-584.14 -284.22)"/>
    <path d="M808.65,338.08a.87.87,0,0,1,.2-.07.92.92,0,0,1,.42,0,.55.55,0,0,1,.22.12.94.94,0,0,1,.14.29.43.43,0,0,0,.19.25.59.59,0,0,0,.32.05,1.1,1.1,0,0,1,.34,0l.29.09a.86.86,0,0,1,.4.33,1.47,1.47,0,0,1,.22.6l-.05.09a1.47,1.47,0,0,1-.64.07.86.86,0,0,1-.48-.21l-.21-.22a1.1,1.1,0,0,1-.17-.3.59.59,0,0,0-.19-.26.43.43,0,0,0-.31-.05.94.94,0,0,1-.32,0,.55.55,0,0,1-.2-.14.92.92,0,0,1-.2-.37.87.87,0,0,1,0-.21Z" transform="translate(-584.14 -284.22)"/>
    <path d="M805,339.45a.85.85,0,0,1,.13.15.82.82,0,0,1,.15.37.46.46,0,0,1,0,.22c0,.07-.13.14-.21.21a.37.37,0,0,0-.17.24.51.51,0,0,0,.07.29,1,1,0,0,1,.11.3,2.48,2.48,0,0,1,0,.27.72.72,0,0,1-.16.45,1.38,1.38,0,0,1-.48.37l-.1,0a1.38,1.38,0,0,1-.3-.53.72.72,0,0,1,0-.47,2.48,2.48,0,0,1,.13-.24,1,1,0,0,1,.22-.24.51.51,0,0,0,.17-.24.37.37,0,0,0-.06-.28.84.84,0,0,1-.12-.28.46.46,0,0,1,.06-.21.82.82,0,0,1,.27-.28.85.85,0,0,1,.18-.09Z" transform="translate(-584.14 -284.22)"/>
    <path d="M802.78,333.41a.85.85,0,0,1-.2,0,.8.8,0,0,1-.38-.06.44.44,0,0,1-.17-.14A.82.82,0,0,1,802,333a.36.36,0,0,0-.11-.26.49.49,0,0,0-.28-.09,1,1,0,0,1-.31-.06l-.24-.12a.69.69,0,0,1-.29-.36,1.36,1.36,0,0,1-.07-.6l.07-.07a1.36,1.36,0,0,1,.6,0,.69.69,0,0,1,.39.26,2.39,2.39,0,0,1,.14.23,1,1,0,0,1,.08.31.49.49,0,0,0,.12.27.36.36,0,0,0,.27.09.83.83,0,0,1,.29,0,.44.44,0,0,1,.15.16.8.8,0,0,1,.1.38.85.85,0,0,1,0,.2Z" transform="translate(-584.14 -284.22)"/>
  </g>
  <g>
    <path d="M948.17,284.3,943.42,289l-5.49,5.4-7.17,7c-2.63,2.54-5.48,5.3-8.54,8.16s-6.3,5.87-9.65,9-6.8,6.34-10.29,9.65-7,6.72-10.46,10.13L881.4,348.49l-10.15,9.79-9.55,9.09c-3,2.9-5.93,5.6-8.61,8.09l-13,12-5,4.52-.07-.07,4.75-4.74,12.65-12.36c2.62-2.56,5.45-5.33,8.49-8.22l9.54-9.11,10.26-9.67,10.65-9.93c3.58-3.32,7.14-6.65,10.62-10s6.87-6.6,10.13-9.81,6.4-6.32,9.44-9.21,5.9-5.63,8.56-8.14l7.29-6.83,5.66-5.23,5-4.52Z" transform="translate(-584.14 -284.22)"/>
    <path d="M880.71,371.14l.16,7.2.12,8.26.08,10.72c0,3.93.05,8.18,0,12.68s-.1,9.25-.16,14.16-.1,10-.11,15.14,0,10.39.12,15.63l.16,15.63.08,15.14c0,4.91,0,9.66,0,14.16s0,8.76-.09,12.68l-.22,19-.15,7.2h-.1l-.15-7.2-.22-19c0-3.93-.1-8.18-.09-12.68s0-9.25,0-14.16l.08-15.14.16-15.63c.07-5.24.11-10.47.12-15.63s0-10.23-.11-15.14-.16-9.66-.16-14.16,0-8.76,0-12.68l.08-10.72.12-8.26.16-7.2Z" transform="translate(-584.14 -284.22)"/>
    <path d="M906.11,383.18l.18,6.91.14,7.93.11,10.29c0,3.77.07,7.85,0,12.17s-.08,8.87-.12,13.59-.08,9.58-.08,14.53.07,10,.16,15l.2,15,.12,14.53,0,13.58c0,4.32,0,8.4-.06,12.17l-.17,18.22-.13,6.91h-.1l-.17-6.91L906,518.87c-.06-3.77-.12-7.85-.12-12.17l0-13.58,0-14.53.12-15c.06-5,.08-10.05.08-15s-.06-9.82-.15-14.53-.18-9.27-.19-13.58,0-8.4,0-12.17l.06-10.29.1-7.93.14-6.91Z" transform="translate(-584.14 -284.22)"/>
    <path d="M906.07,383.13s.85.09,2.33.3c.74.1,1.63.25,2.66.41s2.18.36,3.44.58,2.62.48,4.05.79,2.93.69,4.48,1.06,3.16.75,4.81,1.07,3.33.61,5,.87,3.37.53,5,.82l4.85.88c3.14.58,6.06,1.2,8.55,1.77s4.56,1.07,6,1.43l2.27.6,0,.1-2.33-.31c-1.48-.22-3.59-.52-6.1-1s-5.46-1-8.58-1.61l-4.82-1c-1.64-.36-3.3-.75-5-1.15s-3.32-.77-5-1.1-3.27-.61-4.85-.84-3.11-.46-4.55-.73-2.79-.55-4-.81-2.39-.52-3.4-.77-1.89-.44-2.61-.64c-1.45-.37-2.27-.61-2.27-.61Z" transform="translate(-584.14 -284.22)"/>
    <path d="M835.13,391.94a34.36,34.36,0,0,1,4.22-.81c.64-.08,1.33-.17,2.06-.22s1.52,0,2.32-.07a23.94,23.94,0,0,0,2.47-.13c.84-.08,1.68-.23,2.53-.38s1.69-.3,2.53-.42l2.45-.33c1.59-.2,3.09-.31,4.37-.36s2.36-.08,3.11-.08,1.19,0,1.19,0v.1s-.42.11-1.16.27-1.79.37-3.06.55-2.76.4-4.36.53l-2.47.17c-.84,0-1.7.08-2.56.09s-1.72,0-2.55.14a23.94,23.94,0,0,0-2.45.37c-.79.14-1.56.31-2.29.4s-1.42.15-2.06.2a34.35,34.35,0,0,1-4.3.06Z" transform="translate(-584.14 -284.22)"/>
    <path d="M937.16,509.46a1.53,1.53,0,0,0-1.56-.06,2.84,2.84,0,0,0-1.28,1.27,5.53,5.53,0,0,0-.33,2.39c0,.47,0,1,0,1.51a10,10,0,0,1-.19,1.64,3.5,3.5,0,0,0,0,1.5,4.39,4.39,0,0,0,.79,1.43,10.3,10.3,0,0,0,2.63,2.51,17.66,17.66,0,0,0,3.36,1.74c1.18.47,2.39.89,3.57,1.32l3.47,1.29c2.25.85,4.32,1.71,6.08,2.49s3.22,1.45,4.23,1.93,1.58.79,1.58.79l0,.09s-.62-.17-1.69-.51-2.6-.83-4.41-1.49-3.92-1.42-6.14-2.34-4.61-1.85-6.9-3.08a32.41,32.41,0,0,1-3.31-2,17.85,17.85,0,0,1-2.87-2.42,4.92,4.92,0,0,1-1.08-1.54,3.67,3.67,0,0,1-.15-1.86,17.22,17.22,0,0,0,.19-3,5.43,5.43,0,0,1,.61-2.71,3.16,3.16,0,0,1,1.71-1.34,1.85,1.85,0,0,1,1.38.09,1.69,1.69,0,0,1,.38.29Z" transform="translate(-584.14 -284.22)"/>
    <path d="M936.82,508.83a30.05,30.05,0,0,1,3.85,1.16c.56.21,1.17.44,1.8.72s1.27.63,1.94,1a21.9,21.9,0,0,0,2.1,1c.73.31,1.49.57,2.24.9a10.07,10.07,0,0,1,2.14,1.21,19.54,19.54,0,0,0,1.83,1.31,10.25,10.25,0,0,0,1.86.78l1.83.55a9.35,9.35,0,0,1,2.73,1.18,4.77,4.77,0,0,1,.65.54l.2.21-.06.08-.25-.14a5,5,0,0,0-.72-.34,14.4,14.4,0,0,0-2.74-.68c-.59-.11-1.24-.21-1.92-.4a7.26,7.26,0,0,1-2.11-.9,17.72,17.72,0,0,1-1.84-1.5,15.39,15.39,0,0,0-1.85-1.41,13.27,13.27,0,0,0-2.1-1.1,20,20,0,0,0-2.18-.76c-.72-.23-1.42-.42-2.07-.66s-1.24-.5-1.79-.74a30.05,30.05,0,0,1-3.57-1.85Z" transform="translate(-584.14 -284.22)"/>
    <path d="M938.57,508.72l0,0a.13.13,0,0,1,.16,0,.33.33,0,0,1,0,.45c-.29.18-.53-.1-.61-.33a5.71,5.71,0,0,1-.17-.8c-.11-.58-.2-1.3-.33-2.11s-.25-1.74-.37-2.74-.25-2.1-.34-3.26a26.87,26.87,0,0,1,0-3.69,18.06,18.06,0,0,1,.67-3.9,11.38,11.38,0,0,1,1.89-3.63,13,13,0,0,1,3-2.8A21.27,21.27,0,0,1,946,484a47.79,47.79,0,0,1,6.67-2c2-.51,3.56-1,4.67-1.39.55-.2,1-.37,1.28-.49l.45-.19,0,.09a15.56,15.56,0,0,1-1.61,1c-.53.29-1.19.58-2,.9s-1.65.63-2.62,1c-1.93.66-4.21,1.27-6.53,2.15a21.45,21.45,0,0,0-3.44,1.65,14.91,14.91,0,0,0-3.09,2.41,10.34,10.34,0,0,0-1.2,1.57,9.29,9.29,0,0,0-.81,1.8,10.84,10.84,0,0,0-.43,3.81c0,1.25.23,2.45.35,3.6s.22,2.25.31,3.26.14,1.94.18,2.76.09,1.54.1,2.13a5.91,5.91,0,0,0,0,.76.42.42,0,0,0,.1.21.18.18,0,0,0,.11.05c.06,0,.07-.2,0-.21s0,0,0,0Z" transform="translate(-584.14 -284.22)"/>
    <path d="M945.29,525.45l.06.22c0,.14.07.36.15.61l.25.91c.11.35.23.74.38,1.16s.33.86.53,1.33.38,1,.63,1.49a6,6,0,0,0,1,1.45,6.87,6.87,0,0,0,1.4,1.13,15.12,15.12,0,0,0,3.16,1.43,19.11,19.11,0,0,0,2.94.65c.44.06.85.09,1.21.12l1,0h.85l0,.08a7.71,7.71,0,0,1-.81.29,8.49,8.49,0,0,1-2.27.35,9.33,9.33,0,0,1-1.55-.12,7.87,7.87,0,0,1-1.68-.45,12.11,12.11,0,0,1-1.67-.81,8.61,8.61,0,0,1-1.5-1.17c-.9-.9-1.7-1.83-2.48-2.72a8.19,8.19,0,0,1-1-1.42,7.88,7.88,0,0,1-.54-1.44,7.36,7.36,0,0,1-.24-2.29,5.45,5.45,0,0,1,.11-.86Z" transform="translate(-584.14 -284.22)"/>
    <path d="M943.67,497.35s-.13-.21-.41-.12a.27.27,0,0,0-.14.1.67.67,0,0,0-.13.23,7.2,7.2,0,0,0-.16.81c-.07.32-.12.66-.17,1a4.21,4.21,0,0,0-.08,1.09,1.49,1.49,0,0,0,.54,1,1.1,1.1,0,0,0,1.11.17,2.2,2.2,0,0,0,.87-.7,2.38,2.38,0,0,0,.28-.48,2.49,2.49,0,0,0,.14-.48,3.44,3.44,0,0,0,0-1,3.5,3.5,0,0,0-.22-.91,3.19,3.19,0,0,0-.8-1.22,4,4,0,0,0-.48-.37l0-.1a2.17,2.17,0,0,1,.65.13,2.76,2.76,0,0,1,1.39,1.15,3.22,3.22,0,0,1,.41,2.57,2.91,2.91,0,0,1-.31.72,2.82,2.82,0,0,1-.47.6,2.26,2.26,0,0,1-1.41.64,2,2,0,0,1-1.41-.47,3.42,3.42,0,0,1-.86-1.12,2.9,2.9,0,0,1-.27-1.32,4.66,4.66,0,0,1,.22-1.13,3.6,3.6,0,0,1,.41-.93,1.05,1.05,0,0,1,.37-.34.71.71,0,0,1,.47-.09.62.62,0,0,1,.49.33.35.35,0,0,1,0,.2Z" transform="translate(-584.14 -284.22)"/>
    <path d="M949.06,533.14a42,42,0,0,1-4.44,1.72c-.68.22-1.41.46-2.2.67s-1.64.38-2.5.58-1.77.4-2.66.68-1.79.6-2.68.93-1.78.67-2.66,1l-2.6.86c-1.69.55-3.29,1-4.68,1.32s-2.55.59-3.36.76-1.29.23-1.29.23l0-.1s.44-.2,1.21-.52,1.88-.75,3.23-1.22,2.92-1,4.63-1.48l2.65-.71c.9-.23,1.83-.45,2.76-.65s1.85-.42,2.75-.7,1.76-.57,2.59-.9,1.63-.65,2.41-.9,1.52-.46,2.2-.65a42,42,0,0,1,4.65-1Z" transform="translate(-584.14 -284.22)"/>
    <path d="M959,513a18.36,18.36,0,0,1-3.23-.6,13.85,13.85,0,0,1-1.56-.49,3,3,0,0,1-.84-.44.88.88,0,0,1-.28-.54,2.2,2.2,0,0,1,0-.46,22.45,22.45,0,0,0-.06-3.29c0-.55-.07-1.1-.06-1.66s.06-1.1.1-1.65l0-.53.57.11a30.25,30.25,0,0,1,5.7,1.7l.13.05v.09a.75.75,0,0,1-.42.74l-.06-.08a.57.57,0,0,0,.11-.59l.14.14a30.25,30.25,0,0,1-5.85-1.09l.61-.42-.51,3.2a9.76,9.76,0,0,0,0,3.24c0,.28.11.48.22.5a5.38,5.38,0,0,0,.67.16,13.86,13.86,0,0,1,1.56.47,18.37,18.37,0,0,1,3,1.32Z" transform="translate(-584.14 -284.22)"/>
  </g>
</svg>
