<svg xmlns="http://www.w3.org/2000/svg" viewBox="0 0 266.45 117.26">
  <defs>
    <style>
      .a {
        font-size: 27px;
        font-family: TrajanPro3-Regular, Trajan Pro 3;
      }

      .b {
        letter-spacing: 0.01em;
      }

      .c {
        letter-spacing: -0.01em;
      }
    </style>
  </defs>
  <title>mmp-arrow</title>
  <path d="M481.4,305.35l-.27-24.85.37.37c-13.67.18-27.33.2-41,.31s-27.33.1-41,.15-27.33.11-41,.05l-20.5,0-20.5-.12h-.72v-.71l0-6.76v-.2l.12-.18,1.87-2.87c.59-1,1.13-2,1.7-3s1-2.05,1.51-3.08.86-2.11,1.3-3.17.71-2.17,1.07-3.25.54-2.22.81-3.32.36-2.25.54-3.38.16-2.28.25-3.41,0-2.28-.05-3.42-.24-2.27-.37-3.41-.43-2.25-.69-3.36-.62-2.2-1-3.28-.81-2.14-1.29-3.18-1-2.06-1.56-3.06-1.18-2-1.8-2.92l-2.1-2.78-.15-.11V215h41.5l41-.12,82-.35-.94,1-.06-25.67v-1.72l1.5.86,25,14.37,25,14.44,25,14.44,24.93,14.5,1.37.8-1.37.78-50.1,28.58L506.67,291.1Zm.2-.35,24.68-14.58,24.89-14.61L581,246.71v1.58L555.95,234l-25-14.4-25-14.4L481,190.68l1.49-.86-.06,25.68v.94h-.93l-82-.38-41-.2-20.5,0-20.5,0,.34-.34,0,6.76-.08-.22,2.07,2.81c.64,1,1.23,2,1.85,3s1.07,2.07,1.61,3.11.89,2.16,1.34,3.24.69,2.23,1,3.34.5,2.28.75,3.42.3,2.32.42,3.48.11,2.34.1,3.51-.08,2.34-.21,3.5-.26,2.33-.51,3.47-.45,2.3-.79,3.42-.62,2.26-1,3.35-.79,2.2-1.29,3.26-1,2.14-1.5,3.17-1.11,2.06-1.7,3.07l-1.88,3,.12-.38,0,6.76-.71-.71,20.5-.12,20.5,0c13.67-.06,27.33,0,41,.05s27.33,0,41,.15,27.33.13,41,.31h.37v.36Z" transform="translate(-316.78 -188.09)"/>
  <text class="a" transform="translate(62.22 67.19)">N<tspan class="b" x="25.57" y="0">E</tspan><tspan class="c" x="42.31" y="0">X</tspan><tspan x="60.32" y="0">T</tspan></text>
</svg>
