<svg xmlns="http://www.w3.org/2000/svg" viewBox="0 0 595.03 532.34">
  <defs>
    <style>
      .a, .b {
        fill: #fff;
      }

      .a, .c, .e, .f {
        stroke: #000;
      }

      .a, .c {
        stroke-miterlimit: 10;
      }

      .c, .d, .e, .f {
        fill: none;
      }

      .e, .f {
        stroke-linecap: round;
        stroke-linejoin: round;
      }

      .f {
        stroke-width: 0.5px;
      }

      .g {
        fill: #e5e4e4;
      }

      .h {
        fill: #6b6565;
      }
    </style>
  </defs>
  <title>neat-cord</title>
  <g>
    <path class="a" d="M522,227.6" transform="translate(-45.47 -72.83)"/>
    <path class="a" d="M457.5,227.6" transform="translate(-45.47 -72.83)"/>
    <g>
      <polyline class="b" points="405.53 101.17 405.53 56.17 515.53 56.17"/>
      <path d="M451,173.83l-.27-22.31-.16-22.21V129H451l27.52-.17H506l13.76,0,13.76.08c9.17,0,18.35.2,27.52.3-9.17.1-18.35.26-27.52.3l-13.76.1-13.76,0-27.52,0L451,129.63l.42-.42-.16,22.31Z" transform="translate(-45.47 -72.83)"/>
    </g>
    <path class="c" d="M451,237" transform="translate(-45.47 -72.83)"/>
    <path class="a" d="M640.5,84" transform="translate(-45.47 -72.83)"/>
    <path d="M451,129.16a10.81,10.81,0,0,1,1.84-1.53c.3-.19.62-.41,1-.6s.77-.33,1.18-.51a7.35,7.35,0,0,0,1.23-.6,10.2,10.2,0,0,0,1.15-.82c.37-.3.74-.61,1.13-.86l1.14-.76a17.45,17.45,0,0,1,2.12-1.17c.64-.3,1.21-.51,1.6-.66s.63-.2.63-.2l.05.09s-.17.18-.48.46-.77.66-1.35,1.09a17.44,17.44,0,0,1-2,1.3l-1.21.63c-.41.22-.86.39-1.3.57a10.2,10.2,0,0,0-1.27.61,7.35,7.35,0,0,0-1.11.8c-.35.28-.67.57-1,.8s-.68.4-1,.57a10.81,10.81,0,0,1-2.22.88Z" transform="translate(-45.47 -72.83)"/>
    <path class="c" d="M586,145.59" transform="translate(-45.47 -72.83)"/>
    <path class="c" d="M581.83,227.6" transform="translate(-45.47 -72.83)"/>
    <g>
      <polyline class="b" points="512.78 165.28 545.9 165.17 593.53 87.17 593.53 12.17 546.03 57.38"/>
      <path d="M558.25,238.06l16.69-.27,16.69-.18-.33.18,11.92-19.53,6-9.73,6.07-9.7q6.08-9.69,12.09-19.42c2-3.24,4-6.5,6-9.76l5.94-9.78,0,.12L639,122.5,639,103.75V85l.87.37-12,11.27-12,11.22-12,11.22-12.07,11.16a0,0,0,0,1-.07-.07l11.8-11.44,11.86-11.38L627.24,96l11.91-11.33A.51.51,0,0,1,640,85v18.75L640,122.5l-.22,37.5a.24.24,0,0,1,0,.12l-6,9.72c-2,3.24-4,6.48-6,9.74q-6,9.76-11.84,19.58l-5.9,9.8-6,9.77L592,238.2a.39.39,0,0,1-.33.18l-16.69-.06-16.69-.16a.05.05,0,0,1,0-.1Z" transform="translate(-45.47 -72.83)"/>
    </g>
    <g>
      <polyline class="b" points="520.53 56.17 547.53 56.17 547.53 164.17"/>
      <path d="M566.17,129.16c4.47-.15,8.94-.23,13.42-.29,2.24,0,4.47,0,6.71-.06l6.48,0c.25,0,.22.2.22.44h0c0,4.49.18,9,.08,13.47s0,9,0,13.47.1,9,.18,13.47l.2,13.47.1,13.47,0,13.47-.15,13.47q-.1,6.74-.29,13.47a0,0,0,0,1-.05,0,0,0,0,0,1,0,0q-.19-6.74-.29-13.47l-.16-13.47,0-13.47.08-13.47.18-13.47q.11-6.74.12-13.47c0-4.49-.06-9-.16-13.47s-.13-9-.14-13.47l.45.45-6.71,0c-2.24,0-4.47,0-6.71-.06-4.47-.06-8.94-.14-13.42-.29a.05.05,0,0,1,0-.1Z" transform="translate(-45.47 -72.83)"/>
    </g>
    <path d="M464.45,162l-.19-12.77-.11-12.85c0-.19.15-.43.35-.43h15.26c5.08,0,10.17,0,15.25,0,10.17,0,20.33.2,30.5.26,5.08,0,10.17.07,15.25,0l15.25-.07,30.52-.22a.47.47,0,0,1,.48.45h0l0,20.75L587,178c0,6.92-.09,13.83-.13,20.75l-.16,20.88c0,.13-.1.37-.23.37h0l-13-.32s0-.09,0-.12,0-.08,0-.08l13-.2-.23.22-.16-20.75c0-6.92-.13-13.84-.12-20.75l0-20.75L586,136.5l.45.45-30.5-.22-15.25-.08c-5.08,0-10.17,0-15.25,0-10.17.06-20.33.22-30.5.24q-7.63,0-15.25,0l-15.25-.07.35-.35-.11,12.77L464.55,162a0,0,0,0,1-.1,0Z" transform="translate(-45.47 -72.83)"/>
    <path class="d" d="M464.5,162" transform="translate(-45.47 -72.83)"/>
    <path class="d" d="M464.5,184" transform="translate(-45.47 -72.83)"/>
    <g>
      <g>
        <polygon class="b" points="579.03 11.17 579.03 11.67 574.2 11.67 515.75 61.34 515.61 61.17 515.61 56.38 515.61 42.66 515.44 42.66 578.6 0.78 579.03 0.5 579.03 11.17"/>
        <polygon class="b" points="578.6 0.78 515.44 42.66 418.53 42.66 418.28 41.34 514.2 0.67 578.53 0.67 578.6 0.78"/>
        <polygon class="b" points="515.61 56.38 515.61 61.17 418.53 61.17 418.53 42.66 515.44 42.66 515.61 42.66 515.61 56.38"/>
      </g>
      <g>
        <polyline class="e" points="594.53 11.67 579.03 11.67 574.2 11.67 515.75 61.34 515.36 61.67"/>
        <polyline class="e" points="515.44 42.66 578.6 0.78 579.03 0.5 579.03 11.17"/>
        <polyline class="e" points="418.28 41.34 514.2 0.67 578.53 0.67"/>
        <polygon class="f" points="515.61 61.17 418.53 61.17 418.53 42.66 515.44 42.66 515.61 42.66 515.61 56.38 515.61 61.17"/>
      </g>
    </g>
    <path class="c" d="M586,222" transform="translate(-45.47 -72.83)"/>
    <path class="b" d="M561.48,144.84a78.91,78.91,0,0,0-9.9-2,1.12,1.12,0,0,0-.47-1.23c-3.91-2.63-11.19-2.06-15.69-2.07-3.32,0-6.64,0-10,0-4,0-7.58-.69-11.55-1.13a104.57,104.57,0,0,0-18.28-.32c-4.15.3-6.69,3.75-8.74,7a2.09,2.09,0,0,0-.24.54,34,34,0,0,0-8.15,6.81c-.11.13-.21.26-.3.39-2.92,2.77-6.49,5.79-7.81,9.41a1.08,1.08,0,0,0-.05.64,188.37,188.37,0,0,0-22.75,17.86c-7.86,7.14-15.43,14.62-23.23,21.83-17.49,16.15-33.8,33.85-49.84,51.43l6.33-6.93c-13.83,15.09-30.35,27.64-46.08,40.68-15.44,12.8-29.34,27.13-44.34,40.4s-31.39,24.93-46.5,38.1c-7.47,6.51-14.39,13.58-21.4,20.57s-14.25,13.29-21.46,19.87c-18.17,16.59-33.75,35.74-50.26,53.93q-4.23,4.62-8.46,9.24l6.33-6.93c-7.54,8.24-16.15,14.81-24.51,22.15-8.82,7.75-16.45,16.56-24.23,25.29a135.72,135.72,0,0,1-17.45,15.76c-3.64,2.69-7.5,5.09-10.84,8.18C60.49,544.65,53,557.86,55.79,573.59s16.38,28.78,32.59,30l10.16.8c21.53,1.65,43.38.41,64.89-1.82,22.43-2.33,44.1-7.78,65.59-14.39l-8.68,2.66c19.17-5.78,37.63-10.78,54.37-22.1,6-4.07,10.84-9.52,15.77-14.81,7.2-7.73,14.35-15.51,21.36-23.42,19.45-22,34.43-47.38,53.47-69.66,11.55-11.56,25.17-21,36.54-32.76,14.42-15,25.56-32.4,39.51-47.73L435,387.31c13.77-15,26.14-30.72,38.57-46.84,10-13,19.38-26.37,30.16-38.68,15.07-15.93,30.91-30.95,44.44-48.35A289.34,289.34,0,0,0,565.66,229a74.72,74.72,0,0,0,9.28-20.85c.77-3,1.44-6,2.41-9a63.9,63.9,0,0,0,5.25-9.57C589.6,173.53,579,149.16,561.48,144.84Z" transform="translate(-45.47 -72.83)"/>
    <path class="b" d="M635.11,85.56c-.39.12-.77.27-1.15.42-5-.19-11.45-1.69-15.37,2-1.46,1.36-2.83,2.8-4.25,4.2-1,.83-1.89,1.71-2.8,2.59l-.25.22a41.86,41.86,0,0,0-5.86,5.15c-2.17,2.57-5.44,4.65-8,6.84-1.56,1.36-3.14,2.68-4.72,4-4.09,3.16-8.16,6.34-11.91,9.83-2.56,2-5.15,4-7.8,5.9a1,1,0,0,0,.56,1.76c2.95.29,6-.48,9-.46s6.19.33,9.08-.5c.26.6,1,1,1.52.43s1-1.14,1.51-1.73c5-2.89,8.45-8.41,12.76-12,5.43-4.48,10.06-8.24,14.52-13.69,3.24-4,9.71-6.83,11.83-11.46a18.69,18.69,0,0,0,2.34-1.83A1,1,0,0,0,635.11,85.56Zm-57.88,40.49a.92.92,0,0,0,.74.17,6.34,6.34,0,0,0,.94-.25c.16.07.33.11.49.16-.89.09-1.78.21-2.67.29Zm18.63-7.49h0a.78.78,0,0,0-.24-.51.9.9,0,0,0-.09-.33l.35-.2a1.05,1.05,0,0,0,.42,1A1,1,0,0,0,595.85,118.56Zm5.11-5.34a1,1,0,0,0,.32.64c-.16.18-.25.32-.22.41a1.11,1.11,0,0,0-.52-.68Zm-6.78-.48a1.05,1.05,0,0,0-.25,1.08,1.09,1.09,0,0,0-.76-.29l1.63-1.4Zm-5.75,4.71a1.07,1.07,0,0,0,.28.65,1,1,0,0,0,.27.83l-.06.27-.24.17a1,1,0,0,0-.17-.75,1,1,0,0,0-.3-1Zm-5.49,6.21a1,1,0,0,0,.16.57l-1.15.1C582.28,124.11,582.61,123.88,582.93,123.65Z" transform="translate(-45.47 -72.83)"/>
  </g>
  <g>
    <line class="f" x1="418.75" y1="111.03" x2="420.61" y2="112.67"/>
    <line class="e" x1="540.53" y1="125.67" x2="540.53" y2="125.67"/>
    <path d="M294.55,559.79l12.39-15.3,32.85-40.2c6.79-8.32,14.15-17.33,22-26.79l24.69-29.81,26.4-31.88L440,382.73l27-33.1,26.28-32,24.58-29.9c7.8-9.52,15.23-18.47,22.1-26.73l33.16-39.94,12.63-15.11a.05.05,0,0,1,.08.06l-12.4,15.3-32.82,40.22c-6.79,8.32-14.14,17.34-22,26.83L494,318.24l-26.33,31.94-27.28,32.9L413.15,416l-26.21,32-24.5,30c-7.77,9.55-15.2,18.5-22.05,26.77l-33.13,40-12.63,15.1a0,0,0,0,1-.08-.06Z" transform="translate(-45.47 -72.83)"/>
    <path d="M490.22,136.88c-4.44,4.41-9.08,8.64-13.64,12.92l-13.77,12.76-27.67,25.39-27.7,25.35c-9.22,8.46-18.54,16.82-27.8,25.23l-55.7,50.37L310,301.48l-13.87,12.65-27.75,25.29L212.91,390,157.3,440.5l-27.81,25.23-27.9,25.13L45.76,541.07l-.06-.16,7.1.26v.1l-7.1-.18h-.22l.17-.15,55.45-50.64L128.83,465l27.82-25.21,55.65-50.43L268,339l27.85-25.18,13.92-12.59,13.87-12.65L379.13,238c9.25-8.43,18.45-16.92,27.74-25.3l27.82-25.22,27.78-25.26,13.89-12.62c4.62-4.23,9.29-8.38,13.78-12.74Z" transform="translate(-45.47 -72.83)"/>
    <path class="g" d="M292.52,499.67c.42.33.74.38.84.08a2.79,2.79,0,0,0,0-1.16c-.07-.43-.14-.86-.09-.67a1.17,1.17,0,0,0,0-.17v0h0v-.53a98.3,98.3,0,0,0-7.18-34.7l-1.74-4-1-2-.88-1.78c-.34-.69-.75-1.36-1.13-2-1.64-2.74-3.4-5.51-5.08-8.24s-3.38-5.34-5.06-8h2.37l2.74,0,5.3.09,2.57,0,2.67.17,2.66.17c.92.13,1.88.34,2.82.51l2.82.53c.47.08.94.21,1.42.31l1.36.41c1.09.33,2.19.65,3.24,1.08a52.54,52.54,0,0,1,6.22,2.75,56.23,56.23,0,0,1,5.8,3.48c.91.67,1.84,1.3,2.73,2l1.3,1.07.27.23h0l.06.06a9.21,9.21,0,0,1,1,1.43l.32.58s0-.22.06-.34l.1-1,.1-1.24,0-6.41-.07-14,0-7-.14-11.53,7.95.23,3.63.11,2.37.09c3,.12,7.15.27,7.6.36l.68-.76.18-.2.41-.49.81-1,3.27-4,6.62-7.92q6.68-7.92,13.58-15.89c15-17.55,29.32-33.8,43.85-49.77s29.25-31.62,45-47.88c-8.67,9.06-17.63,17.94-25.75,27.57-16.27,19.32-30.59,37-46,57.15-5.7,7.38-11.72,15.57-18,24l-9.49,12.86-4.84,6.47-2.43,3.23-3.85,5-9.59-.14-3.63-.09-.91,0h-.58l-.55,0-1.43-.11-.05,1.38,0,.72,0,2.13.09,8.27.22,15,.43,19.31.23,9,.06,2.13V477c0,.08,0,.07,0,.11l-.06.16-.13.33-.24.64-.12.32,0,.08,0,.19-.06.39c-1.71-2.69-3.32-5.29-4.92-7.71l-2.32-3.57-.56-.87-.5-.72-1-1.4-1.9-2.69-.46-.65c-.15-.17-.29-.3-.44-.45l-.86-.87-1.64-1.67-.79-.8-.79-.69-2-1.52c-.55-.4-1.07-.73-1.54-1a23.68,23.68,0,0,0-2.36-1.43c-1.22-.7-1.73-.89-1.44-.68s1.34.85,3.13,2a31.37,31.37,0,0,0-12-4.82c-1.34-.27-1.13-.1-1.38,0a.6.6,0,0,0-.29.29.54.54,0,0,0,.22.59l.08.06c.09.06.1,0,.09,0l0,0,.8,1.65c.29.58.57,1.16.8,1.76a98.41,98.41,0,0,1,4.93,14.3c.3,1.2.56,2.41.83,3.61l.4,1.8.32,1.81.61,3.6.44,3.6.21,1.79.13,1.8.26,3.58.09,3.57,0,1.78,0,1.78.05.59.06,1.17c0,.84.08,1.8.06,2.8,0,2-.19,4.24-.32,6.55-.07,1.14-.14,2.3-.23,3.38l-.44,2.85c-.29,1.78-.55,3.29-.76,4.24l-1.61,6.9-1.69,6.89c0,.12-.07.32-.1.37l0-.11-.08-.23-.17-.48c-.08-.09-.17-.11-.26-.19l-.13-.1-.07-.06,0,0-.05,0a3.89,3.89,0,0,1-.41.29l-.21.12s-.06,0-.12.11l-.16.32q-.33.63-.65,1.19l-.32.55-.47,1.21-2-9.09-1.55-6.68-.74-3.14-.61-2-.61-2-.3-1a4.55,4.55,0,0,0-.31-.85,38.35,38.35,0,0,0-2.57-4.77c-.46-.69-.86-1.4-1.36-2.06l-.95-1.3a45.32,45.32,0,0,0-20.92-15.27,44.32,44.32,0,0,0-7-1.82,40.3,40.3,0,0,0-7.55-.52c.65-.11,1.3-.18,1.92-.23s1.19-.13,1.68-.13l1.65-.06a44.16,44.16,0,0,0-6.73-.55,43.42,43.42,0,0,0-6.81.58,39.52,39.52,0,0,1,13.1-2.24,47,47,0,0,1,14.68,2.35,52.54,52.54,0,0,1,14,7,51.94,51.94,0,0,1,6.13,5c.47.46,1,.89,1.41,1.38l.68.71.33.34s0,0,.08,0Z" transform="translate(-45.47 -72.83)"/>
    <path class="c" d="M120.11,148" transform="translate(-45.47 -72.83)"/>
  </g>
  <g>
    <path class="b" d="M585,138.86a2.68,2.68,0,0,0-2.53-1,7.19,7.19,0,0,0-4.62,3,4.56,4.56,0,0,0-.7,1.62,3.09,3.09,0,0,0-1.08,2.33,4.72,4.72,0,0,0,.82,2.35c.65.66,1.77.18,2.46-.12a12,12,0,0,0,5.47-5.38A2.73,2.73,0,0,0,585,138.86Z" transform="translate(-45.47 -72.83)"/>
    <path class="b" d="M585.64,147.11a37,37,0,0,0-.5-4.73c.4-2.49,1.06-5.23-2.06-5.59a20.53,20.53,0,0,0-4.83.55c-1.08,0-2.18,0-3.29,0-1.25-.14-2.44-.17-3.21-.2-4.07-.16-8.69-.82-12.68.06-1.54.34-6.39,6.25-3.94,6.3a10.87,10.87,0,0,1,6.92,2.82,1.47,1.47,0,0,0,.33,1.61c2,1.91,4.47,2.84,6.69,4.43s3.63,3.74,5.55,5.51c1.12,1,3.41-.74,4.68-2.71a25.28,25.28,0,0,0,.8,3.65c.8,2.58,5.89-3,5.87-4.55A66.24,66.24,0,0,0,585.64,147.11Z" transform="translate(-45.47 -72.83)"/>
    <g>
      <line class="b" x1="440.56" y1="174.16" x2="492.79" y2="120.18"/>
      <path class="h" d="M486,247s3.15-3.48,8-8.56c1.22-1.27,2.53-2.65,3.95-4.09s2.92-2.94,4.47-4.51c3.13-3.1,6.36-6.51,9.59-9.91s6.45-6.82,9.5-10l4.41-4.56,4-4.05,6-6,2.3-2.27,0,0-2.19,2.37-5.84,6.19-3.92,4.12-4.41,4.56c-3.07,3.15-6.37,6.5-9.68,9.83s-6.6,6.68-9.59,9.91c-1.51,1.6-3,3.17-4.35,4.62s-2.73,2.82-4,4.08c-4.92,5-8.29,8.31-8.29,8.31Z" transform="translate(-45.47 -72.83)"/>
    </g>
  </g>
</svg>
