<svg xmlns="http://www.w3.org/2000/svg" viewBox="0 0 363.93 504.93">
  <defs>
    <style>
      .a {
        fill: #fff;
      }

      .b {
        fill: #d1cfcf;
      }

      .c {
        fill: #f5f3f3;
      }

      .d {
        fill: #f8f7f7;
      }
    </style>
  </defs>
  <title>phone-jack-smaller-hole</title>
  <g>
    <rect class="a" x="0.44" y="0.48" width="363" height="504" rx="3" ry="3"/>
    <path d="M662.8,534.88l0,.32a3.19,3.19,0,0,1-.25.92,3.06,3.06,0,0,1-1,1.22,3.12,3.12,0,0,1-2.06.6l-14.46,0-54.87.06-195.84.23-63.21.08h-27a11.53,11.53,0,0,1-2.2-.1,3.42,3.42,0,0,1-2-1.32,3.52,3.52,0,0,1-.66-2.24l0-34.33c0-46.43.08-95.39.12-146s.08-103,.12-156.17-.08-107.21-.12-161.23a3.28,3.28,0,0,1,1.1-2.45,3.41,3.41,0,0,1,2.53-.83H318.3l20.25,0,40.43,0,80.3-.08,156.17,0h42.32c.79,0,1.52,0,2.36,0a3.47,3.47,0,0,1,2.33,1.26,3.58,3.58,0,0,1,.79,2.46v2.32q0,2.32,0,4.62,0,9.24,0,18.38,0,36.56,0,71.44c0,46.43-.07,90.32-.1,130.84Zm-.1,0s-.14-108.05-.34-270.13c0-40.52-.07-84.42-.1-130.84q0-34.82,0-71.44,0-9.14,0-18.38,0-2.31,0-4.62V37.14a2.6,2.6,0,0,0-.57-1.86,2.54,2.54,0,0,0-1.65-.91c-.71,0-1.53,0-2.29,0H615.44l-156.17,0L379,34.23l-40.43,0-20.25,0H303.11a2.85,2.85,0,0,0-2.16.69,2.73,2.73,0,0,0-.92,2c0,54-.08,108.05-.12,161.23s.08,105.52.12,156.17.08,99.61.12,146l0,34.33a2.6,2.6,0,0,0,2,2.71,11.57,11.57,0,0,0,2,.07h27l63.21.08,195.84.23,54.87.06,14.46,0a3,3,0,0,0,2-.58,3,3,0,0,0,.95-1.17,3.1,3.1,0,0,0,.24-.88Z" transform="translate(-299.31 -33.4)"/>
  </g>
  <g>
    <rect class="a" x="100.56" y="105.54" width="160" height="300" rx="5" ry="5"/>
    <path d="M554.88,439l-142.4.15c-2.67,0-5.36,0-8.1,0a5.22,5.22,0,0,1-4.54-4,8.57,8.57,0,0,1-.15-2.11l0-17q0-17.27,0-35.66c0-24.48,0-50.29.06-77s0-54.29.06-82.33q0-21,0-42.33,0-10.64,0-21.31V144.1a5.27,5.27,0,0,1,.64-2.64,5.2,5.2,0,0,1,4.51-2.68l85-.07h64.68a5.43,5.43,0,0,1,2.56.51,5.26,5.26,0,0,1,3,4.12c.08,3.42,0,6.73,0,10.08,0,53.4,0,103.24,0,146s-.1,78.32-.13,103.24c0,12.46,0,22.25,0,28.93,0,1.65.17,3.18-.42,4.37a5.09,5.09,0,0,1-2.11,2.36,4.74,4.74,0,0,1-1.85.63A5.38,5.38,0,0,1,554.88,439Zm0,0a5.34,5.34,0,0,0,.65,0,4.68,4.68,0,0,0,1.83-.63,5,5,0,0,0,2.08-2.34c.57-1.17.37-2.69.4-4.35,0-6.68,0-16.47,0-28.93,0-24.92-.07-60.52-.13-103.24s0-92.56,0-146c0-3.32,0-6.72,0-10a4.79,4.79,0,0,0-2.69-3.75,4.94,4.94,0,0,0-2.36-.47H489.87l-85-.07a4.91,4.91,0,0,0-4.25,2.52c-.9,1.53-.52,3.4-.61,5.16v10.67q0,10.67,0,21.31,0,21.28,0,42.33c0,28,0,55.63.06,82.33s0,52.51.06,77q0,18.36,0,35.66l0,17a8.21,8.21,0,0,0,.14,2,4.84,4.84,0,0,0,4.18,3.67c2.7.05,5.42,0,8.08,0Z" transform="translate(-299.31 -33.4)"/>
  </g>
  <g>
    <g>
      <polygon class="a" points="208.69 238.6 208.69 290.6 150.69 290.6 150.69 238.6 163.69 238.6 163.69 228.6 196.69 228.6 196.69 238.6 208.69 238.6"/>
      <path d="M508.55,271.45l.19,13,.12,13,.06,13c0,4.33,0,8.7,0,13V324h-.44c-9.67,0-19.33-.16-29-.25l-14.5.07-14.5.18h-.19v-.35l-.2-26.08-.12-26V271h.51l13,0-.52.52,0-10V261h.5q8.25,0,16.5.08l16.5.12h.3v.3l-.08,10-.22-.22Zm-.1.1-11.95.17h-.22v-.23l-.08-10,.3.3-16.5.13c-5.5,0-11,.09-16.5.08l.5-.51V272H450.5l.51-.51-.12,26-.2,26-.2-.19,14.5,0,14.5-.07c9.67-.08,19.33-.22,29-.22l-.44.44c0-4.33,0-8.67,0-13l.06-13,.12-13Z" transform="translate(-299.31 -33.4)"/>
    </g>
    <g>
      <polygon class="b" points="208.69 238.6 208.69 290.6 153.69 290.6 153.69 238.6 165.69 238.6 165.69 228.6 197.69 228.6 197.69 238.6 208.69 238.6"/>
      <path d="M508.55,271.45l.2,13,.12,13,.05,13c0,4.33,0,8.7,0,13V324h-.43c-9.17,0-18.33-.18-27.5-.25l-13.75.07L453.5,324h-.19v-.35l-.2-26.08-.12-26V271H465.5l-.52.52,0-10V261h.5c5.33,0,10.67,0,16,.08l16,.12h.3v.29l-.09,10-.21-.21Zm-.1.1-10.95.16h-.21v-.21l-.09-10,.3.3-16,.13c-5.33,0-10.67.09-16,.09l.5-.51V272H453.5l.51-.51-.12,26-.2,26-.19-.19,13.75,0,13.75-.06c9.17-.08,18.33-.22,27.5-.22l-.43.43c0-4.33,0-8.67,0-13l.05-13,.12-13Z" transform="translate(-299.31 -33.4)"/>
    </g>
  </g>
  <g>
    <g>
      <circle class="a" cx="180.56" cy="456.13" r="15.13"/>
      <path d="M495,489.52l0,1.07a8.64,8.64,0,0,1-.13,1.28,11.27,11.27,0,0,1-.35,1.71,15.89,15.89,0,0,1-1.83,4.35,15.23,15.23,0,0,1-4.21,4.5,14.91,14.91,0,0,1-6.86,2.55c-.66.05-1.3.09-2,.08a14.72,14.72,0,0,1-2-.21,15,15,0,0,1-4-1.24,16,16,0,0,1-6.49-5.62,16.36,16.36,0,0,1-1.92-4A15.52,15.52,0,0,1,465,485a15.28,15.28,0,0,1,4.81-7.46,16.31,16.31,0,0,1,3.69-2.34,15.56,15.56,0,0,1,8.08-1.24,15.15,15.15,0,0,1,6.89,2.61,15.37,15.37,0,0,1,4.2,4.51,15.84,15.84,0,0,1,1.83,4.35,11.27,11.27,0,0,1,.34,1.71,8.63,8.63,0,0,1,.13,1.28Zm-.1,0-.07-1.06a8.52,8.52,0,0,0-.16-1.26,11.1,11.1,0,0,0-.38-1.68,13.67,13.67,0,0,0-2-4.15,15.33,15.33,0,0,0-4.29-4.07,15.92,15.92,0,0,0-6.49-2.28,15.11,15.11,0,0,0-7.59,1.16,15.31,15.31,0,0,0-3.49,2.13,16.15,16.15,0,0,0-2.83,3.1,15.79,15.79,0,0,0-1.88,3.84,14.66,14.66,0,0,0-.18,8.61,16,16,0,0,0,1.83,3.95,15.49,15.49,0,0,0,2.88,3.17,14.5,14.5,0,0,0,7.44,3.14,15.14,15.14,0,0,0,2,.12c.61,0,1.26,0,1.87-.1a16.21,16.21,0,0,0,6.52-2.35,15.49,15.49,0,0,0,4.28-4.09,13.64,13.64,0,0,0,2-4.16,11.1,11.1,0,0,0,.38-1.68,8.5,8.5,0,0,0,.16-1.27Z" transform="translate(-299.31 -33.4)"/>
    </g>
    <g>
      <circle class="a" cx="180.56" cy="39.83" r="15.13"/>
      <path d="M495,73.23l0,1.07a8.64,8.64,0,0,1-.13,1.28,11.27,11.27,0,0,1-.35,1.71,15.89,15.89,0,0,1-1.83,4.35,15.23,15.23,0,0,1-4.21,4.5,14.91,14.91,0,0,1-6.86,2.55c-.66.05-1.3.09-2,.08a14.71,14.71,0,0,1-2-.21,15,15,0,0,1-4-1.24,16,16,0,0,1-6.49-5.62,16.36,16.36,0,0,1-1.92-4,15.52,15.52,0,0,1-.18-8.93,15.28,15.28,0,0,1,4.81-7.46,16.31,16.31,0,0,1,3.69-2.34,15.56,15.56,0,0,1,8.08-1.24,15.15,15.15,0,0,1,6.89,2.61,15.37,15.37,0,0,1,4.2,4.51,15.84,15.84,0,0,1,1.83,4.35,11.27,11.27,0,0,1,.34,1.71,8.63,8.63,0,0,1,.13,1.28Zm-.1,0-.07-1.06a8.52,8.52,0,0,0-.16-1.26,11.1,11.1,0,0,0-.38-1.68,13.67,13.67,0,0,0-2-4.15A15.33,15.33,0,0,0,488,61a15.92,15.92,0,0,0-6.49-2.28A15.11,15.11,0,0,0,474,59.88,15.31,15.31,0,0,0,470.47,62a16.15,16.15,0,0,0-2.83,3.1A15.79,15.79,0,0,0,465.76,69a14.66,14.66,0,0,0-.18,8.61,16,16,0,0,0,1.83,3.95,15.49,15.49,0,0,0,2.88,3.17,14.5,14.5,0,0,0,7.44,3.14,15.14,15.14,0,0,0,2,.12c.61,0,1.26,0,1.87-.1a16.21,16.21,0,0,0,6.52-2.35,15.49,15.49,0,0,0,4.28-4.09,13.64,13.64,0,0,0,2-4.16,11.1,11.1,0,0,0,.38-1.68,8.5,8.5,0,0,0,.16-1.27Z" transform="translate(-299.31 -33.4)"/>
    </g>
    <path d="M473.31,69.06c1.82.44,3.63.94,5.42,1.46l-.41.21c.5-1.81,1.09-3.59,1.63-5.39l.12-.41.43.13c1.22.37,2.42.78,3.62,1.19l.41.14-.14.38-1.93,5.29-.13-.26c1.77.64,3.56,1.21,5.36,1.76l.17.05-.05.17c-.39,1.21-.72,2.44-1.08,3.66l-.07.25-.27-.08q-2.72-.76-5.42-1.58l.56-.28-1.65,5.35-.15.49-.5-.16c-1.21-.37-2.42-.77-3.63-1.16l-.51-.17.17-.51c.59-1.77,1.19-3.54,1.81-5.29l.28.55c-1.77-.61-3.53-1.25-5.28-1.9l-.25-.09.08-.23q.66-1.79,1.37-3.56l0,0Zm0,.11q-.46,1.83-1,3.64l-.16-.32c1.8.5,3.6,1,5.39,1.55l.41.12-.12.43c-.52,1.79-1.07,3.57-1.63,5.35l-.34-.67c1.21.39,2.42.78,3.62,1.18l-.66.34,1.8-5.3.14-.43.41.14q2.67.92,5.32,1.89l-.35.18c.42-1.2.87-2.39,1.27-3.6l.11.22c-1.78-.61-3.57-1.19-5.38-1.71l-.19-.05.06-.21,1.53-5.42.27.52c-1.22-.36-2.43-.74-3.63-1.15l.55-.28c-.61,1.77-1.18,3.56-1.83,5.32l-.12.32-.3-.11C476.78,70.52,475,69.88,473.32,69.18Z" transform="translate(-299.31 -33.4)"/>
    <path d="M474.79,484.35c1.68.84,3.32,1.74,5,2.65l-.45.11c.9-1.65,1.87-3.25,2.8-4.88l.21-.37.39.22c1.1.63,2.18,1.3,3.26,2l.37.23-.22.34L483,489.35l-.07-.28c1.58,1,3.19,2,4.82,2.93l.15.09-.09.15c-.65,1.09-1.25,2.21-1.88,3.32l-.13.23-.25-.14q-2.48-1.35-4.92-2.76l.61-.15-2.81,4.84-.26.44-.46-.26c-1.1-.64-2.19-1.3-3.28-2l-.46-.28.28-.45q1.46-2.39,3-4.75l.15.6c-1.59-1-3.15-2-4.72-3l-.22-.15.13-.2q1-1.59,2.14-3.16l0,0Zm0,.12q-.86,1.68-1.76,3.33l-.09-.35c1.64.89,3.28,1.8,4.9,2.73l.37.21-.22.39q-1.37,2.44-2.8,4.85l-.18-.73c1.09.65,2.18,1.3,3.26,2l-.71.18,2.95-4.76.24-.38.37.23q2.39,1.5,4.75,3l-.38.09c.68-1.07,1.39-2.13,2-3.22l.06.24c-1.6-1-3.21-2-4.85-2.88l-.17-.1.1-.19,2.71-4.93.14.57c-1.1-.63-2.2-1.27-3.28-1.94l.6-.15c-1,1.59-2,3.2-3,4.77l-.19.28-.26-.17C477.85,486.56,476.3,485.54,474.78,484.47Z" transform="translate(-299.31 -33.4)"/>
  </g>
  <g>
    <path class="c" d="M319.86,505.16c-.69-4.14-2.29-9-2.5-14.36-.53-7.13-.94-14.15-.82-21.09s.59-13.81,1.06-20.61.8-13.52.76-20.19-.38-13.29-.85-19.89c-1-13.2-2.74-26.32-3.39-39.67-.35-6.67-.5-13.4-.67-20.19s-.27-13.66-.27-20.64c-.21-15.51-.16-30.12-.31-44.66s-.38-29-.71-44.26l.25,12.69c.08,4.24.18,8.48.47,12.71,1.21,17,3,32.24,5,49.25.87,7.68,2,16.21,2.66,25s1.09,17.87.92,26.63c-.24,11-.6,20.48-.72,28.32s0,14,.09,18.54.28,7.29.35,8.3.06.24,0-2.39a163,163,0,0,0,2,19.15c.94,7.05,2,13.74,2.61,20.26s.76,12.87.82,19.19a55.93,55.93,0,0,1,.62,8.93c-.3,6.23-.76,12.21-1.16,18.33-.2,3.06-.38,6.15-.52,9.33,0,.18,0,.44,0,.55l0,.36-.08.76c-.05.52-.1,1.06-.13,1.71l-.09,1.94c0,.15.05,0,.09,0l.13-.15.26-.31c.18-.21.38-.38.58-.58a11.13,11.13,0,0,1,1.88-1.51,11.45,11.45,0,0,1,1.27-.73,16.59,16.59,0,0,1,1.59-.74,20.48,20.48,0,0,1,7-1.56c-.46.05-.91.1-1.34.16l-1.15.23c-.66.17-1.1.3-1.1.3a20.86,20.86,0,0,1,9.1.1,16.62,16.62,0,0,0-8.95.66,17.81,17.81,0,0,0-4.25,2.19l-.49.35a2.58,2.58,0,0,0-.3.25l-.34.3a7.64,7.64,0,0,0-1.44,1.52l-.8,1.06c-.14.19-.26.33-.42.58l-.54.81c-.73,1.09-1.45,2.24-2.25,3.39l-.32-.37-.16-.2c-.05-.07-.11-.15-.15-.13a2.56,2.56,0,0,1-.5-.07s0-.05,0-.12l0-.2,0-.4-.09-.8-.18-1.64-.82-7.18C320.89,511.24,320.38,508.15,319.86,505.16Z" transform="translate(-299.31 -33.4)"/>
    <path class="d" d="M305.61,65c-.61-.71-2.12-1.43-2.27-2.58a12.24,12.24,0,0,1-.46-2.48,8.37,8.37,0,0,1,.27-2.69,11.8,11.8,0,0,1,3-5,17.62,17.62,0,0,1,4.54-3.34,27.91,27.91,0,0,1,4.43-1.75c2.9-.87,5.33-2,8-2.31a30.31,30.31,0,0,1,4,0,36.06,36.06,0,0,1,4.12.37c3.1.27,6,.78,8.93,1.08s5.79.53,8.83.68a28.61,28.61,0,0,0-5.05-.08,45.86,45.86,0,0,0-9.62,3.45,32.17,32.17,0,0,1-4.88,1.87,11,11,0,0,1-5.29.08c-2.21-.58-4.14-1.25-5.7-1.6a8.75,8.75,0,0,0-3.47-.28,3.7,3.7,0,0,0-1.36.44c-.14.1,0,0,.4-.09a2.38,2.38,0,0,0-1.55,2.53,4.88,4.88,0,0,0,.23,1.58c.13.49.26.94.34,1.38a7.86,7.86,0,0,1-.19,2.75,1.66,1.66,0,0,1,.35,1.4c-.58,1.53-1.28,3.28-1.89,5.07S310.22,69,309.48,71a3.1,3.1,0,0,0,.05-.73,18.22,18.22,0,0,0-.67,1.72,5.8,5.8,0,0,0-.76-3.59A17.19,17.19,0,0,0,305.61,65Z" transform="translate(-299.31 -33.4)"/>
  </g>
</svg>
