<svg xmlns="http://www.w3.org/2000/svg" viewBox="0 0 306.55 208.95">
  <defs>
    <style>
      .a {
        fill: #fff;
      }

      .b {
        font-size: 18.49px;
        stroke-miterlimit: 10;
      }

      .b, .d {
        fill: none;
        stroke: #000;
        stroke-width: 0.75px;
        font-family: Copperplate, Copperplate;
      }

      .c {
        font-size: 15px;
        fill: #7c7979;
        font-family: Impact, Impact;
      }

      .d {
        font-size: 17px;
      }

      .e {
        fill: #e5e2e2;
      }
    </style>
  </defs>
  <title>time-capsule</title>
  <g>
    <g>
      <g>
        <ellipse class="a" cx="213.93" cy="90.79" rx="90.13" ry="90.26"/>
        <path d="M486.84,262.21l0,1.63c0,1.07,0,2.66-.19,4.74a86.2,86.2,0,0,1-3,17.73,89.43,89.43,0,0,1-11.4,25.45,91.39,91.39,0,0,1-25.3,25.79,92.36,92.36,0,0,1-18.43,9.57c-1.68.65-3.4,1.21-5.14,1.78l-2.65.75c-.88.26-1.78.5-2.69.69l-2.73.62c-.91.2-1.84.34-2.77.51-1.85.37-3.74.58-5.63.81s-3.82.32-5.75.47l-2.91.07c-1,0-2,0-2.93,0l-2.94-.08c-1,0-2-.14-3-.21-2-.11-4-.42-5.95-.67a89.36,89.36,0,0,1-11.86-2.61c-2-.52-3.9-1.25-5.86-1.9l-2.89-1.14-1.45-.58L360,345a90.32,90.32,0,0,1-21.39-13.45,93.28,93.28,0,0,1-9.24-9,98,98,0,0,1-8-10.32,90.08,90.08,0,0,1-14.16-36.71,91.27,91.27,0,0,1-.07-26.54A93.8,93.8,0,0,1,310,236a90.34,90.34,0,0,1,11.14-23.87,90.8,90.8,0,0,1,38.74-32.8l1.42-.65,1.45-.58,2.9-1.13c2-.65,3.89-1.38,5.88-1.89a89.5,89.5,0,0,1,11.89-2.59c2-.24,4-.55,6-.66,1-.07,2-.17,3-.21l3-.08c.5,0,1,0,1.48,0l1.46,0,2.9.07c1.93.15,3.87.24,5.77.48a88.71,88.71,0,0,1,21.62,5.21A92.4,92.4,0,0,1,447,186.85a91.48,91.48,0,0,1,25.29,25.81,89.44,89.44,0,0,1,11.4,25.45,86.21,86.21,0,0,1,3,17.73c.19,2.07.15,3.67.19,4.74Zm-.1,0,0-1.62c-.05-1.07,0-2.66-.22-4.73a86,86,0,0,0-3.07-17.67,89.08,89.08,0,0,0-11.53-25.27,90.61,90.61,0,0,0-25.33-25.42A90.63,90.63,0,0,0,406.81,173c-1.88-.24-3.77-.32-5.68-.48l-2.9-.07-1.46,0-1.44,0-2.92.07c-1,0-2,.14-2.93.2-2,.1-3.92.4-5.89.64a88.55,88.55,0,0,0-11.76,2.55c-2,.51-3.87,1.23-5.82,1.87l-2.87,1.12-1.43.57-1.41.64a90.17,90.17,0,0,0-38.39,32.43A89.51,89.51,0,0,0,307.8,249a89.58,89.58,0,0,0-.07,26.38,93.24,93.24,0,0,0,2.85,12.9A89.76,89.76,0,0,0,321.67,312a90,90,0,0,0,38.55,32.45l1.41.64,1.44.57,2.87,1.12c1.95.64,3.86,1.35,5.83,1.86a88.7,88.7,0,0,0,11.79,2.53c2,.24,3.94.53,5.9.63,1,.06,2,.16,2.93.2l2.94.07c1,0,1.93,0,2.9,0l2.89-.08c1.91-.16,3.82-.25,5.7-.49a90.16,90.16,0,0,0,65-40,89.08,89.08,0,0,0,11.52-25.27,86,86,0,0,0,3.07-17.67c.2-2.06.17-3.66.22-4.73Z" transform="translate(-182.73 -171.42)"/>
      </g>
      <path d="M386.07,172.52l2.56-.3a70.27,70.27,0,0,1,7.27-.65l2.49-.1a25.27,25.27,0,0,1,2.73,0c1.9.08,4,.12,6.14.26s4.51.46,6.95.82l3.72.72a39.32,39.32,0,0,1,3.87.85,83,83,0,0,1,8.08,2.41c1.37.5,2.79.93,4.17,1.54l4.19,1.85c1.44.58,2.78,1.4,4.2,2.13s2.84,1.47,4.19,2.39l4.15,2.66c1.35,1,2.67,2,4,3a48.08,48.08,0,0,1,3.93,3.25c1.27,1.15,2.63,2.21,3.81,3.49s2.47,2.46,3.67,3.73l3.43,4c.28.34.59.66.86,1l.79,1.07,1.58,2.15,1.58,2.16,1.41,2.28a76.19,76.19,0,0,1,5.23,9.42,84.13,84.13,0,0,1,4,10c.6,1.69,1,3.44,1.51,5.16s.86,3.47,1.16,5.22a89.9,89.9,0,0,1,1.49,20.76,91.71,91.71,0,0,1-3,19.24,90.11,90.11,0,0,1-6.12,16.34,92.28,92.28,0,0,1-7.5,12.69,85.85,85.85,0,0,1-7.09,8.87c-1,1.18-2,2.17-2.9,3l-1.19,1.2-1,1L458.46,328l-.07-.07,1.84-1.81,1-1,1.15-1.23c.84-.89,1.8-1.91,2.8-3.11a93.67,93.67,0,0,0,6.89-8.95,91.57,91.57,0,0,0,7.24-12.71,99.34,99.34,0,0,0,5.89-16.24,94.55,94.55,0,0,0,3-19,90.05,90.05,0,0,0-1.31-20.55c-.27-1.74-.69-3.45-1.07-5.18s-.86-3.44-1.42-5.13a83.51,83.51,0,0,0-3.78-10A86.06,86.06,0,0,0,469.4,204.8l-3.43-4c-1.21-1.26-2.47-2.46-3.69-3.69a47.18,47.18,0,0,0-3.84-3.43,47.68,47.68,0,0,0-4-3.16,92,92,0,0,0-16.59-9.84l-4.16-1.81a21.94,21.94,0,0,0-2.07-.79l-2.06-.73a82.15,82.15,0,0,0-8-2.45,38.78,38.78,0,0,0-3.83-.88l-3.68-.74c-2.41-.37-4.72-.63-6.88-.93s-4.21-.25-6.1-.37a25,25,0,0,0-2.71,0l-2.47,0a70,70,0,0,0-7.27.41l-2.57.22Z" transform="translate(-182.73 -171.42)"/>
      <g>
        <path class="a" d="M313,184l86.1-9.4C442.41,178.68,476.48,214,479,257c2.56,43.8-28.34,83.4-71.9,91.6L321,358" transform="translate(-182.73 -171.42)"/>
        <path d="M313,184l21.5-2.54L356,179l43-4.84h.09a89,89,0,0,1,65.45,39.52,92.57,92.57,0,0,1,7.55,13.84,87.14,87.14,0,0,1,3,61.76,88.76,88.76,0,0,1-68,59.83h0l-43.07,4.52-21.53,2.26L321,358V358l21.5-2.53L364,353l43-4.88h0A87.67,87.67,0,0,0,436.09,337,89,89,0,0,0,474.41,289a86.15,86.15,0,0,0-2.61-61.36,84,84,0,0,0-7.49-13.8A88.35,88.35,0,0,0,399.05,175h.09l-43.06,4.59-21.53,2.29L313,184Z" transform="translate(-182.73 -171.42)"/>
      </g>
    </g>
    <g>
      <circle class="a" cx="100.27" cy="108.58" r="100"/>
      <path d="M383,280l0,1.8c-.05,1.19,0,3-.21,5.25a95.41,95.41,0,0,1-3.3,19.65l-.9,3.19-1.11,3.3c-.35,1.14-.82,2.26-1.27,3.42s-.89,2.35-1.44,3.52a96.16,96.16,0,0,1-8,14.77,101.25,101.25,0,0,1-28.08,28.54A102.48,102.48,0,0,1,318.32,374c-.92.39-1.88.67-2.83,1s-1.9.66-2.87,1l-2.94.83c-1,.29-2,.55-3,.76l-3,.69c-1,.22-2,.37-3.07.56-2.05.41-4.14.64-6.24.9-1,.15-2.11.21-3.17.29l-3.2.23-3.23.07-1.62,0c-.56,0-1.08,0-1.63,0l-3.26-.09c-1.09,0-2.19-.16-3.28-.24-2.2-.12-4.39-.46-6.59-.74a99.16,99.16,0,0,1-13.15-2.88c-2.2-.58-4.33-1.38-6.5-2.1-1.07-.4-2.13-.84-3.2-1.26l-1.6-.64-1.57-.72a100.25,100.25,0,0,1-23.73-14.88,103.8,103.8,0,0,1-10.25-10,108.46,108.46,0,0,1-8.83-11.43,99.7,99.7,0,0,1-15.71-40.68,100.91,100.91,0,0,1-.07-29.42,103.94,103.94,0,0,1,3.17-14.38,100,100,0,0,1,12.38-26.44,100.66,100.66,0,0,1,43-36.31l1.58-.71,1.61-.64c1.07-.42,2.14-.86,3.21-1.25,2.18-.72,4.32-1.52,6.52-2.09a99.31,99.31,0,0,1,13.17-2.86c2.21-.27,4.4-.61,6.6-.73,1.1-.07,2.19-.19,3.28-.23l3.27-.08c.55,0,1.07,0,1.64,0l1.62,0,3.22.08,3.21.23c1.07.08,2.13.14,3.18.3a98.7,98.7,0,0,1,24,5.76,102.52,102.52,0,0,1,20.44,10.6,101.34,101.34,0,0,1,28.07,28.56,96.17,96.17,0,0,1,7.95,14.77c.56,1.17,1,2.37,1.44,3.53s.91,2.28,1.27,3.42l1.11,3.3.9,3.19a95.42,95.42,0,0,1,3.29,19.65c.21,2.29.16,4.06.21,5.25Zm-.1,0-.05-1.8c-.06-1.19,0-3-.25-5.24a95.21,95.21,0,0,0-3.41-19.59l-.92-3.17-1.12-3.28c-.36-1.13-.83-2.25-1.28-3.4s-.9-2.34-1.46-3.5a95.76,95.76,0,0,0-8-14.66,100.48,100.48,0,0,0-28.11-28.17,100.5,100.5,0,0,0-44.07-16c-1-.16-2.09-.21-3.14-.3l-3.16-.23-3.22-.08-1.62,0-1.6,0-3.24.08c-1.08,0-2.16.15-3.25.22-2.18.12-4.35.45-6.54.71a98.35,98.35,0,0,0-13,2.82c-2.18.56-4.3,1.36-6.45,2.07-1.06.39-2.12.83-3.18,1.24l-1.59.63-1.56.71a99.54,99.54,0,0,0-23.6,14.71,103.15,103.15,0,0,0-10.22,9.88,105.79,105.79,0,0,0-8.8,11.34,99.12,99.12,0,0,0-15.66,40.43,99.22,99.22,0,0,0-.07,29.26,103.37,103.37,0,0,0,3.17,14.3,99.4,99.4,0,0,0,12.33,26.28,99.87,99.87,0,0,0,42.78,36l1.57.7,1.6.63c1.07.41,2.12.84,3.19,1.24,2.16.71,4.29,1.5,6.47,2.06a98.5,98.5,0,0,0,13.07,2.8c2.19.26,4.37.59,6.54.7,1.09.07,2.17.18,3.25.22l3.26.07c.54,0,1.09,0,1.61,0l1.61,0,3.2-.09,3.17-.24c1.05-.09,2.11-.14,3.15-.3a100,100,0,0,0,72.18-44.28,95.77,95.77,0,0,0,8-14.66c.56-1.16,1-2.36,1.46-3.5s.92-2.27,1.28-3.4l1.12-3.28.92-3.17A95.22,95.22,0,0,0,382.65,287c.23-2.29.19-4.06.24-5.25Z" transform="translate(-182.73 -171.42)"/>
    </g>
    <path d="M271.26,180.64l2.84-.33a78.06,78.06,0,0,1,8.05-.7l2.76-.11a28.19,28.19,0,0,1,3,0c2.1.09,4.38.14,6.81.29s5,.52,7.7.92l4.12.8c1.41.28,2.86.51,4.29.94a92.55,92.55,0,0,1,9,2.67c1.52.56,3.1,1,4.62,1.7l4.65,2.05c1.6.64,3.09,1.55,4.66,2.35s3.16,1.62,4.65,2.64l4.6,2.94c1.5,1.06,3,2.2,4.47,3.32.73.58,1.53,1.09,2.22,1.73l2.14,1.87c1.41,1.27,2.92,2.45,4.24,3.86s2.73,2.73,4.08,4.13l3.81,4.45c.32.37.65.74,1,1.12l.88,1.19,1.76,2.38,1.76,2.39,1.57,2.53a84.13,84.13,0,0,1,5.78,10.45A92.84,92.84,0,0,1,381,247.32c.66,1.88,1.13,3.81,1.68,5.71s.95,3.84,1.28,5.78a99.54,99.54,0,0,1,1.65,23,101.71,101.71,0,0,1-3.34,21.32,100.21,100.21,0,0,1-6.78,18.11,102.18,102.18,0,0,1-8.31,14.06,95.54,95.54,0,0,1-7.85,9.83c-1.16,1.31-2.25,2.41-3.21,3.37l-1.32,1.33-1.15,1.06-2.1,1.95-.07-.07,2-2,1.11-1.09,1.28-1.37c.93-1,2-2.11,3.11-3.44a103.33,103.33,0,0,0,7.65-9.91,101.46,101.46,0,0,0,8-14.08,109.42,109.42,0,0,0,6.55-18,104.54,104.54,0,0,0,3.29-21.11A99.68,99.68,0,0,0,383.12,259c-.3-1.93-.78-3.83-1.19-5.75s-1-3.82-1.59-5.69a92.21,92.21,0,0,0-4.21-11.1A83.66,83.66,0,0,0,370.48,226l-1.54-2.53-1.73-2.4-1.73-2.39-.86-1.19c-.3-.39-.63-.75-.94-1.13l-3.81-4.43c-1.35-1.39-2.74-2.73-4.09-4.09a53.42,53.42,0,0,0-4.26-3.8l-2.16-1.82c-.7-.63-1.5-1.12-2.24-1.68a101.6,101.6,0,0,0-18.4-10.91l-4.62-2c-.75-.35-1.53-.6-2.3-.87l-2.28-.81a91.7,91.7,0,0,0-8.86-2.71,43.49,43.49,0,0,0-4.25-1l-4.09-.82c-2.68-.4-5.23-.69-7.63-1s-4.67-.27-6.76-.4a27.88,27.88,0,0,0-3,0l-2.74,0a77.81,77.81,0,0,0-8.06.47l-2.85.25Z" transform="translate(-182.73 -171.42)"/>
  </g>
  <g>
    <text class="b" transform="matrix(0.7, -0.72, 0.71, 0.7, 44.59, 63.75)">M</text>
    <text class="b" transform="translate(57.06 52.47) rotate(-35.17) scale(1.01 1)">I</text>
    <text class="b" transform="matrix(0.9, -0.45, 0.45, 0.9, 63.5, 48.31)">L</text>
    <text class="b" transform="matrix(0.97, -0.27, 0.27, 0.96, 75.11, 43.22)">L</text>
    <text class="b" transform="translate(87.47 40.39) rotate(-4.03) scale(1.01 1)">E</text>
    <text class="b" transform="translate(101.11 39.97) rotate(9.37) scale(1.01 1)">N</text>
    <text class="b" transform="translate(116.45 43.2) rotate(22.75) scale(1.01 1)">N</text>
    <text class="b" transform="matrix(0.84, 0.55, -0.54, 0.84, 130.65, 50.17)">I</text>
    <text class="b" transform="matrix(0.74, 0.68, -0.68, 0.74, 136.9, 54.52)">U</text>
    <text class="b" transform="translate(147.25 64.9) rotate(56.02) scale(1.01 1)">M</text>
    <g>
      <text class="c" transform="translate(70.05 102.23) rotate(1.96) scale(1.02 1)">T</text>
      <text class="c" transform="matrix(1.02, 0.03, -0.03, 1, 78.64, 102.84)">A</text>
      <text class="c" transform="matrix(1.02, 0.03, -0.03, 1, 87.92, 103.48)">P</text>
      <text class="c" transform="matrix(1.02, 0.03, -0.03, 1, 97.13, 104.03)"> </text>
      <text class="c" transform="matrix(1.02, 0.03, -0.03, 1, 101.36, 104.4)">T</text>
      <text class="c" transform="matrix(1.02, 0.03, -0.03, 1, 109.92, 105.02)">O</text>
    </g>
    <text class="c" transform="translate(70.3 126.4) rotate(1.96) scale(1.02 1)"> </text>
    <text class="c" transform="matrix(1.02, 0.03, -0.03, 1, 74.52, 126.79)">O</text>
    <text class="c" transform="translate(84.41 127.47) rotate(1.96) scale(1.02 1)">P</text>
    <text class="c" transform="translate(93.6 128.08) rotate(1.96) scale(1.02 1)">E</text>
    <text class="c" transform="translate(101.49 128.66) rotate(1.96) scale(1.02 1)">N</text>
    <text class="d" transform="matrix(0.38, 0.97, -0.93, 0.37, 21.88, 131.48)">M</text>
    <text class="d" transform="matrix(0.55, 0.88, -0.85, 0.53, 27.97, 146.22)">E</text>
    <text class="d" transform="matrix(0.7, 0.77, -0.74, 0.68, 34.86, 157.25)">M</text>
    <text class="d" transform="matrix(0.83, 0.62, -0.6, 0.8, 45.78, 168.92)">O</text>
    <text class="d" transform="matrix(0.93, 0.46, -0.44, 0.9, 57.87, 177.71)">R</text>
    <text class="d" transform="matrix(0.99, 0.3, -0.29, 0.96, 70.35, 183.7)">Y</text>
    <text class="d" transform="matrix(1.02, 0.19, -0.18, 0.98, 81.43, 186.89)"> </text>
    <text class="d" transform="matrix(1.03, 0.1, -0.1, 0.99, 87.27, 187.93)"> </text>
    <text class="d" transform="matrix(1.04, 0.02, -0.02, 1, 93.15, 188.51)"> </text>
    <text class="d" transform="matrix(1.04, -0.07, 0.06, 1, 99.09, 188.6)"> </text>
    <text class="d" transform="matrix(1.03, -0.15, 0.15, 0.99, 105.02, 188.2)"> </text>
    <text class="d" transform="matrix(1.01, -0.24, 0.23, 0.97, 110.9, 187.28)"> </text>
    <text class="d" transform="matrix(0.97, -0.38, 0.36, 0.93, 117.07, 185.96)">P</text>
    <text class="d" transform="matrix(0.88, -0.55, 0.53, 0.85, 129.19, 181.17)">R</text>
    <text class="d" transform="matrix(0.76, -0.71, 0.68, 0.73, 141.08, 173.68)">O</text>
    <text class="d" transform="matrix(0.64, -0.82, 0.79, 0.62, 151.72, 163.42)">J</text>
    <text class="d" transform="matrix(0.52, -0.9, 0.87, 0.5, 157.79, 155.73)">E</text>
    <text class="d" transform="matrix(0.36, -0.98, 0.94, 0.34, 164.16, 144.49)">C</text>
    <text class="d" transform="matrix(0.19, -1.02, 0.98, 0.18, 168.74, 131.43)">T</text>
  </g>
  <g>
    <path d="M210.68,259.52a41.91,41.91,0,0,1,2.83,4.14l.12.2-.12.23c-.4.73-.8,1.46-1.26,2.16s-.94,1.38-1.41,2.07l-.08.12h-.11a32.42,32.42,0,0,0-5,0h-.13l-.1-.15c-1-1.37-1.83-2.79-2.7-4.21l-.14-.23.14-.27q1.18-2.21,2.55-4.3l.15-.24h.24c.83,0,1.67.07,2.5.15s1.67.14,2.5.25h0Zm-.07.08c-.82.11-1.65.19-2.47.25s-1.67.11-2.5.15l.39-.23q-1.13,2.23-2.45,4.36v-.5c.8,1.46,1.59,2.93,2.3,4.45l-.24-.14a32.43,32.43,0,0,0,5,0l-.2.11c.36-.75.72-1.51,1.09-2.26s.81-1.46,1.24-2.17v.43A42,42,0,0,1,210.6,259.6Z" transform="translate(-182.73 -171.42)"/>
    <path d="M349.57,269a41.91,41.91,0,0,1,2.83,4.14l.12.2-.12.23c-.4.73-.8,1.46-1.26,2.16s-.94,1.38-1.41,2.07l-.08.12h-.11a32.43,32.43,0,0,0-5,0h-.13l-.1-.15c-1-1.37-1.83-2.79-2.7-4.21l-.14-.23.14-.27q1.18-2.21,2.55-4.3l.15-.24h.24c.83,0,1.67.07,2.5.15s1.67.14,2.5.25h0Zm-.07.08c-.82.11-1.65.19-2.47.25s-1.67.11-2.5.15l.39-.23q-1.13,2.23-2.45,4.36v-.5c.8,1.46,1.59,2.93,2.3,4.45l-.24-.14a32.43,32.43,0,0,0,5,0l-.2.11c.36-.75.72-1.51,1.09-2.26s.81-1.46,1.24-2.17v.43A42,42,0,0,1,349.49,269.08Z" transform="translate(-182.73 -171.42)"/>
    <path d="M280.84,355.64a41.91,41.91,0,0,1,2.83,4.14l.12.2-.12.23c-.4.73-.8,1.46-1.26,2.16s-.94,1.38-1.41,2.07l-.08.12h-.11a32.43,32.43,0,0,0-5,0h-.13l-.1-.15c-1-1.37-1.83-2.79-2.7-4.21l-.14-.23.14-.27q1.18-2.21,2.55-4.3l.15-.24h.24c.83,0,1.67.07,2.5.15s1.67.14,2.5.25h0Zm-.07.08c-.82.11-1.65.19-2.47.25s-1.67.11-2.5.15l.39-.23q-1.13,2.23-2.45,4.36v-.5c.8,1.46,1.59,2.93,2.3,4.45l-.24-.14a32.43,32.43,0,0,0,5,0l-.2.11c.36-.75.72-1.51,1.09-2.26s.81-1.46,1.24-2.17v.43A42,42,0,0,1,280.77,355.72Z" transform="translate(-182.73 -171.42)"/>
    <path d="M211.35,259.52a1.93,1.93,0,0,1,.53.41,5.74,5.74,0,0,1,.43.5,6.33,6.33,0,0,1,.71,1.1c.19.39.35.8.57,1.18a11.92,11.92,0,0,0,.72,1.09l0,.05,0,.09a21.55,21.55,0,0,1-.92,2.21,15.35,15.35,0,0,1-1.23,2.06l0,0a15.35,15.35,0,0,1,.8-2.27,21.56,21.56,0,0,1,1.11-2.12V264a8.81,8.81,0,0,0-.58-1.16,11.8,11.8,0,0,0-.77-1,10.93,10.93,0,0,1-.7-1.08l-.32-.56a4.53,4.53,0,0,0-.35-.54Z" transform="translate(-182.73 -171.42)"/>
    <path d="M350.35,268.52a1.93,1.93,0,0,1,.53.41,5.74,5.74,0,0,1,.43.5,6.33,6.33,0,0,1,.71,1.1c.19.39.35.8.57,1.18a11.92,11.92,0,0,0,.72,1.09l0,.05,0,.09a21.56,21.56,0,0,1-.92,2.21,15.35,15.35,0,0,1-1.23,2.06l0,0a15.35,15.35,0,0,1,.8-2.27,21.56,21.56,0,0,1,1.11-2.12V273a8.81,8.81,0,0,0-.58-1.16,11.8,11.8,0,0,0-.77-1,10.93,10.93,0,0,1-.7-1.08l-.32-.56a4.53,4.53,0,0,0-.35-.54Z" transform="translate(-182.73 -171.42)"/>
    <path d="M281.35,355.52a1.93,1.93,0,0,1,.53.41,5.74,5.74,0,0,1,.43.5,6.33,6.33,0,0,1,.71,1.1c.19.39.35.8.57,1.18a11.92,11.92,0,0,0,.72,1.09l0,.05,0,.09a21.56,21.56,0,0,1-.92,2.21,15.35,15.35,0,0,1-1.23,2.06l0,0a15.35,15.35,0,0,1,.8-2.27,21.56,21.56,0,0,1,1.11-2.12V360a8.81,8.81,0,0,0-.58-1.16,11.8,11.8,0,0,0-.77-1,10.93,10.93,0,0,1-.7-1.08l-.32-.56a4.53,4.53,0,0,0-.35-.54Z" transform="translate(-182.73 -171.42)"/>
    <path d="M342,190.4s2.74-.43,6.87-.87c1-.12,2.15-.24,3.33-.34s2.44-.19,3.73-.29c2.59-.18,5.34-.46,8.09-.81s5.5-.66,8.08-.93,5-.5,7.06-.67c4.14-.36,6.9-.5,6.9-.5v0s-2.74.41-6.86.88c-2.06.25-4.47.49-7.05.75s-5.34.48-8.1.69-5.51.48-8.09.81c-1.29.16-2.53.33-3.71.45s-2.3.23-3.34.33c-4.13.39-6.9.51-6.9.51Z" transform="translate(-182.73 -171.42)"/>
    <path d="M345,192.65s1.26-.22,3.17-.44c1-.12,2.06-.23,3.26-.32s2.46-.25,3.73-.41c2.53-.35,5.07-.64,7-.81s3.19-.26,3.19-.26v0s-1.26.2-3.17.44-4.44.52-7,.74c-1.27.12-2.55.23-3.73.41s-2.3.31-3.25.39c-1.91.2-3.19.26-3.19.26Z" transform="translate(-182.73 -171.42)"/>
    <path class="e" d="M454.35,212c1.12,1.13,3.28,2.09,4,4a68.33,68.33,0,0,1,7.5,29.79A70.09,70.09,0,0,1,460,275a91.06,91.06,0,0,1-7.15,14.43,93,93,0,0,1-9.29,12.73c1.86-2.33,4.09-4.47,5.26-7.31.63-1.39,1.1-2.81,1.64-4.15s1-2.73,1.34-4.11a69.07,69.07,0,0,0,2-8.43,83.6,83.6,0,0,0,.86-8.58,62.3,62.3,0,0,1,1.07-8.79,46.28,46.28,0,0,0,1.1-9.33,34.75,34.75,0,0,0-.09-3.5c-.07-1-.14-1.92-.28-2.66-.45-3-.91-3.63-.66-1.91a7.21,7.21,0,0,0-1.33-3,15.87,15.87,0,0,1-1.79-2.83c-1.47-4.32-1.34-8.66-2.41-12.77a6.66,6.66,0,0,1-1.47-2.57c-.54-2.72-.92-5.46-1.75-8.22a27.13,27.13,0,0,0-4-8.46l1.2.65L443,203C446.75,204.93,450.82,208.54,454.35,212Z" transform="translate(-182.73 -171.42)"/>
  </g>
</svg>
